<?xml version="1.0" encoding="UTF-8"?>
<svg version="1.1" xmlns="http://www.w3.org/2000/svg" width="338" height="269">
<path d="M0 0 C2.50019846 1.04833613 4.64329082 2.24614524 6.91015625 3.734375 C21.32041127 12.62354119 35.88476551 15.50280077 52.66015625 15.171875 C53.9980315 15.15677336 55.33592359 15.14309481 56.67382812 15.13085938 C59.89888373 15.09593097 63.12303773 15.04688624 66.34765625 14.984375 C66.44066079 27.53740479 66.51157531 40.09035153 66.55490494 52.64365673 C66.5757093 58.47374397 66.6038956 64.3035941 66.64941406 70.13354492 C66.69312765 75.76809812 66.71684704 81.40242438 66.72716522 87.03713417 C66.734511 89.17835368 66.74885463 91.31956189 66.77057648 93.46068382 C66.88274863 104.98405387 66.89725279 115.20837232 62.34765625 125.984375 C61.96949768 126.89176926 61.59133911 127.79916351 61.20172119 128.73405457 C52.04969916 149.60551834 31.64434163 161.81352395 11.45605469 169.97827148 C10.59270508 170.32833252 9.72935547 170.67839355 8.83984375 171.0390625 C8.0701123 171.34312012 7.30038086 171.64717773 6.50732422 171.96044922 C4.25506284 172.9337715 4.25506284 172.9337715 2.20751953 174.64111328 C1.59376465 175.08438965 0.98000977 175.52766602 0.34765625 175.984375 C-1.90234375 175.421875 -1.90234375 175.421875 -4.65234375 173.984375 C-5.74546875 173.4275 -6.83859375 172.870625 -7.96484375 172.296875 C-8.64546875 171.94882813 -9.32609375 171.60078125 -10.02734375 171.2421875 C-12.77567075 169.92528081 -15.56059765 168.74194406 -18.36889648 167.56030273 C-38.42479634 159.0590308 -54.98283029 145.80232795 -64.328125 125.74609375 C-68.89250422 112.78002536 -69.05333328 100.75058528 -68.9453125 87.15234375 C-68.93970636 85.06342374 -68.93544108 82.97449974 -68.93244934 80.88557434 C-68.92108069 75.42923797 -68.89168349 69.97314714 -68.8583374 64.51690674 C-68.82746309 58.93252889 -68.81390715 53.34811076 -68.79882812 47.76367188 C-68.76680508 36.83713263 -68.71570699 25.91077436 -68.65234375 14.984375 C-67.84716309 15.00008545 -67.04198242 15.0157959 -66.21240234 15.03198242 C-63.15204367 15.08388632 -60.09191315 15.12109388 -57.03125 15.14916992 C-55.08448137 15.17122761 -53.1379161 15.20939418 -51.19140625 15.24804688 C-39.31760537 15.3389178 -28.03591246 13.65088025 -17.21484375 8.609375 C-16.57353516 8.3309375 -15.93222656 8.0525 -15.27148438 7.765625 C-11.83745862 6.2208353 -8.96240985 4.51662589 -5.9921875 2.1953125 C-2.99796593 -0.01766107 -2.99796593 -0.01766107 0 0 Z " fill="#DA3F4D" transform="translate(169.65234375,29.015625)"/>
<path d="M0 0 C31.35 0 62.7 0 95 0 C95.0825 10.498125 95.165 20.99625 95.25 31.8125 C95.28641602 35.10581299 95.32283203 38.39912598 95.36035156 41.79223633 C95.3720445 44.43049469 95.38223489 47.06876032 95.390625 49.70703125 C95.40107849 50.37739914 95.41153198 51.04776703 95.42230225 51.7384491 C95.64495923 66.79277162 91.73543914 77.9116076 81.5 89 C73.0890603 97.0264396 61.44010767 104.51798163 50 107 C43.86265044 106.75919856 39.39112268 105.15089635 34 102.3125 C33.30011963 101.95236816 32.60023926 101.59223633 31.87915039 101.22119141 C26.85731597 98.58292792 22.32537628 95.68269065 18 92 C17.11828125 91.34837891 17.11828125 91.34837891 16.21875 90.68359375 C6.99186303 83.58131891 2.46904772 73.11513787 0 62 C-0.48183892 57.04246129 -0.47068423 52.145037 -0.390625 47.16796875 C-0.38659668 45.9622522 -0.38256836 44.75653564 -0.37841797 43.51428223 C-0.35771587 39.07186348 -0.30187326 34.62966411 -0.25 30.1875 C-0.12625 15.2446875 -0.12625 15.2446875 0 0 Z " fill="#F7C503" transform="translate(121,74)"/>
<path d="M0 0 C2.50019846 1.04833613 4.64329082 2.24614524 6.91015625 3.734375 C21.3195112 12.62298597 35.88925263 15.50007083 52.66015625 15.171875 C57.17703125 15.11 61.69390625 15.048125 66.34765625 14.984375 C66.34765625 24.884375 66.34765625 34.784375 66.34765625 44.984375 C21.79765625 44.984375 -22.75234375 44.984375 -68.65234375 44.984375 C-68.65234375 35.084375 -68.65234375 25.184375 -68.65234375 14.984375 C-55.02734375 15.171875 -55.02734375 15.171875 -50.82568359 15.25463867 C-39.04912681 15.33186472 -27.94030224 13.60633573 -17.21484375 8.609375 C-16.57353516 8.3309375 -15.93222656 8.0525 -15.27148438 7.765625 C-11.83745862 6.2208353 -8.96240985 4.51662589 -5.9921875 2.1953125 C-2.99796593 -0.01766107 -2.99796593 -0.01766107 0 0 Z " fill="#033887" transform="translate(169.65234375,29.015625)"/>
<path d="M0 0 C1.98 0 3.96 0 6 0 C6.03738281 1.02480469 6.07476562 2.04960938 6.11328125 3.10546875 C6.17897079 4.46618062 6.24541709 5.82685611 6.3125 7.1875 C6.33505859 7.86103516 6.35761719 8.53457031 6.38085938 9.22851562 C6.615917 13.60913504 7.31458812 16.51087815 10 20 C12.91765 21.9451 14.62537285 22.45276317 18 23 C18 20.03 18 17.06 18 14 C19.98 14 21.96 14 24 14 C24.12743604 21.22230046 24.2146172 28.44430786 24.2746582 35.66748047 C24.29970445 38.12136673 24.33375133 40.57517913 24.37719727 43.02880859 C24.43828239 46.568871 24.46631012 50.1079417 24.48828125 53.6484375 C24.51408768 54.73426117 24.5398941 55.82008484 24.56648254 56.93881226 C24.56917057 64.34350725 23.10394706 69.78365939 19 76 C16.68359375 78.25390625 16.68359375 78.25390625 14.4375 79.5625 C13.69371094 80.01753906 12.94992188 80.47257812 12.18359375 80.94140625 C7.06641519 83.42218512 1.37970759 84.05062071 -4.0859375 82.3515625 C-10.53521249 79.46050819 -15.25408468 74.52223041 -18 68 C-18.24050903 65.46893311 -18.24050903 65.46893311 -18.22705078 62.58886719 C-18.22689972 61.50804871 -18.22674866 60.42723022 -18.22659302 59.31365967 C-18.21627045 58.15312073 -18.20594788 56.99258179 -18.1953125 55.796875 C-18.1924826 54.60394836 -18.18965271 53.41102173 -18.18673706 52.1819458 C-18.17554053 48.37119524 -18.15043653 44.56067955 -18.125 40.75 C-18.11496954 38.16667006 -18.1058438 35.58333644 -18.09765625 33 C-18.07560289 26.66658651 -18.04213035 20.33331003 -18 14 C-16.35 14 -14.7 14 -13 14 C-13 17.3 -13 20.6 -13 24 C-11.576875 23.443125 -10.15375 22.88625 -8.6875 22.3125 C-7.88699219 21.99925781 -7.08648437 21.68601562 -6.26171875 21.36328125 C-3.31218384 19.5854096 -2.38632495 18.15388925 -1 15 C-0.63774319 12.33146704 -0.40199569 9.85958571 -0.3125 7.1875 C-0.27833984 6.49462891 -0.24417969 5.80175781 -0.20898438 5.08789062 C-0.12713656 3.39247151 -0.06187635 1.69626542 0 0 Z " fill="#0C3C7F" transform="translate(166,83)"/>
<path d="M0 0 C0.66 0 1.32 0 2 0 C2 4.62 2 9.24 2 14 C3.2375 13.67 4.475 13.34 5.75 13 C12.58146651 11.4843022 20.76586302 10.26840257 27 14 C27.99 13.34 28.98 12.68 30 12 C37.32029656 11.34262177 44.72661907 12.14430813 52 13 C52 8.71 52 4.42 52 0 C52.66 0 53.32 0 54 0 C54 5.28 54 10.56 54 16 C52.4325 15.835 50.865 15.67 49.25 15.5 C41.18232143 14.77130645 32.96896273 14.27698103 25 16 C24.67 16 24.34 16 24 16 C27.04913228 17.01111093 27.04913228 17.01111093 30 16 C32.53236768 15.90046185 35.03057441 15.85891699 37.5625 15.875 C38.28179687 15.87693359 39.00109375 15.87886719 39.7421875 15.88085938 C44.89124543 15.92260849 49.8977536 16.27110766 55 17 C55 12.05 55 7.1 55 2 C55.66 2 56.32 2 57 2 C57 7.61 57 13.22 57 19 C55.06253906 19.06058594 53.12507813 19.12117188 51.12890625 19.18359375 C48.60676241 19.26797774 46.08462743 19.3526268 43.5625 19.4375 C42.28310547 19.47681641 41.00371094 19.51613281 39.68554688 19.55664062 C38.47060547 19.59853516 37.25566406 19.64042969 36.00390625 19.68359375 C34.87799072 19.72025146 33.7520752 19.75690918 32.59204102 19.79467773 C30.07146559 19.71218045 30.07146559 19.71218045 29 21 C26.5 21.125 26.5 21.125 24 21 C23.67 20.67 23.34 20.34 23 20 C21.07521187 19.84193469 19.1450079 19.748865 17.21484375 19.68359375 C16.04501953 19.64169922 14.87519531 19.59980469 13.66992188 19.55664062 C11.82237305 19.49766602 11.82237305 19.49766602 9.9375 19.4375 C8.08415039 19.37272461 8.08415039 19.37272461 6.19335938 19.30664062 C3.12905159 19.20015889 0.06454115 19.09953935 -3 19 C-3 13.39 -3 7.78 -3 2 C-2.34 2 -1.68 2 -1 2 C-1 6.95 -1 11.9 -1 17 C2.465 16.505 2.465 16.505 6 16 C4.02 16 2.04 16 0 16 C0 10.72 0 5.44 0 0 Z " fill="#F4F6F9" transform="translate(142,49)"/>
<path d="M0 0 C0.56847656 0.40992187 1.13695312 0.81984375 1.72265625 1.2421875 C6.43455739 4.53029214 10.37025993 6.80218296 16 8 C16 11.3 16 14.6 16 18 C6.1 18 -3.8 18 -14 18 C-14 14.7 -14 11.4 -14 8 C-12.618125 7.608125 -11.23625 7.21625 -9.8125 6.8125 C-5.31709594 5.33766712 -3.01381201 3.59713046 0 0 Z " fill="#FAC601" transform="translate(168,104)"/>
<path d="M0 0 C9.9 0 19.8 0 30 0 C28.8 8.4 28.8 8.4 25 12 C19.7551772 14.92499733 15.85619073 15.65068786 10 15 C5.19503576 12.59751788 2.5125111 9.73511707 0 5 C0 3.35 0 1.7 0 0 Z " fill="#F8C502" transform="translate(154,145)"/>
<path d="M0 0 C1.65515625 0.36931641 1.65515625 0.36931641 3.34375 0.74609375 C6.56689569 1.47830837 9.7839032 2.23742035 13 3 C13 7.62 13 12.24 13 17 C11.60265625 16.91621094 10.2053125 16.83242188 8.765625 16.74609375 C6.92710115 16.64291129 5.08855845 16.54006421 3.25 16.4375 C2.32960937 16.38142578 1.40921875 16.32535156 0.4609375 16.26757812 C-0.42851562 16.21923828 -1.31796875 16.17089844 -2.234375 16.12109375 C-3.45979004 16.05039673 -3.45979004 16.05039673 -4.70996094 15.97827148 C-6.97882075 15.99979905 -8.83320921 16.35387865 -11 17 C-11.1079859 14.56131832 -11.18726589 12.12740867 -11.25 9.6875 C-11.28351563 8.99720703 -11.31703125 8.30691406 -11.3515625 7.59570312 C-11.45024951 2.48865032 -11.45024951 2.48865032 -9.16796875 0.01171875 C-5.91998758 -1.5040058 -3.35626704 -0.7758494 0 0 Z " fill="#F5F7FA" transform="translate(180,44)"/>
<path d="M0 0 C1 1 1 1 1.09765625 4.59765625 C1.0909822 6.08596867 1.07902183 7.57426432 1.0625 9.0625 C1.05798828 9.82111328 1.05347656 10.57972656 1.04882812 11.36132812 C1.0370068 13.24091871 1.01907078 15.12046899 1 17 C0.42507812 16.83757813 -0.14984375 16.67515625 -0.7421875 16.5078125 C-7.63112004 14.95839861 -15.07854392 16.22011763 -22 17 C-22 12.38 -22 7.76 -22 3 C-19.6498281 2.2952509 -17.29658167 1.6112057 -14.9375 0.9375 C-14.28072266 0.73833984 -13.62394531 0.53917969 -12.94726562 0.33398438 C-8.32118861 -0.96496336 -4.78596371 -1.06693459 0 0 Z " fill="#FBFCFD" transform="translate(167,44)"/>
<path d="M0 0 C10.23 0 20.46 0 31 0 C31 3.63 31 7.26 31 11 C20.77 11 10.54 11 0 11 C0 7.37 0 3.74 0 0 Z " fill="#F8C501" transform="translate(153,128)"/>
<path d="M0 0 C0.66 0 1.32 0 2 0 C2.77792958 26.00684808 3.14469452 51.98169985 3 78 C1.68 78 0.36 78 -1 78 C-1.21446412 22.08322131 -1.21446412 22.08322131 0 0 Z " fill="#FBF6E1" transform="translate(134,78)"/>
<path d="M0 0 C0.66 0.33 1.32 0.66 2 1 C2.13226675 8.38173914 2.26276035 15.76350755 2.39115143 23.14531517 C2.45085733 26.57508219 2.51111464 30.00483745 2.57275391 33.43457031 C2.83936065 48.2905689 3.09129782 63.14127992 3 78 C1.68 78 0.36 78 -1 78 C-1.02583606 70.74903139 -1.04306498 63.49807507 -1.05493164 56.24707031 C-1.05989043 53.79198768 -1.06665951 51.33690788 -1.07543945 48.88183594 C-1.13225406 32.55933501 -0.84546627 16.30182861 0 0 Z " fill="#FEFDF6" transform="translate(202,78)"/>
<path d="M0 0 C0.66 0 1.32 0 2 0 C2 4.62 2 9.24 2 14 C3.2375 13.67 4.475 13.34 5.75 13 C12.58146651 11.4843022 20.76586302 10.26840257 27 14 C27.99 13.34 28.98 12.68 30 12 C37.32029656 11.34262177 44.72661907 12.14430813 52 13 C52 8.71 52 4.42 52 0 C52.66 0 53.32 0 54 0 C54 5.28 54 10.56 54 16 C52.4325 15.835 50.865 15.67 49.25 15.5 C41.03746771 14.75822289 33.13652776 14.61083672 25 16 C22.125 15.5625 22.125 15.5625 20 15 C20 15.33 20 15.66 20 16 C13.4 16 6.8 16 0 16 C0 10.72 0 5.44 0 0 Z " fill="#E1E7F1" transform="translate(142,49)"/>
<path d="M0 0 C0.33 0 0.66 0 1 0 C1 7.59 1 15.18 1 23 C2.32 23.33 3.64 23.66 5 24 C1.875 24.625 1.875 24.625 -2 24 C-7.35083377 17.76742613 -10.39025823 10.19542291 -10 2 C-9.67 2.66 -9.34 3.32 -9 4 C-4.03088634 2.87302957 -4.03088634 2.87302957 0 0 Z " fill="#F9C607" transform="translate(132,133)"/>
<path d="M0 0 C1.32 0 2.64 0 4 0 C5.32 2.97 6.64 5.94 8 9 C9.65 6.03 11.3 3.06 13 0 C13.99 0 14.98 0 16 0 C16 5.28 16 10.56 16 16 C15.01 16 14.02 16 13 16 C12.67 13.69 12.34 11.38 12 9 C11.01 10.98 10.02 12.96 9 15 C6 14 6 14 4.8125 11.9375 C4.544375 11.298125 4.27625 10.65875 4 10 C3.67 11.98 3.34 13.96 3 16 C2.01 16 1.02 16 0 16 C0 10.72 0 5.44 0 0 Z " fill="#231815" transform="translate(93,218)"/>
<path d="M0 0 C6.73874689 5.00248812 6.73874689 5.00248812 7.6875 8.625 C6.76195655 11.82233191 5.7517502 13.11722355 3 15 C-1.83754447 15 -4.57441357 13.32483388 -8 10 C-8 9.34 -8 8.68 -8 8 C-7.236875 7.566875 -6.47375 7.13375 -5.6875 6.6875 C-2.68071451 4.79951841 -1.60145073 3.11861458 0 0 Z " fill="#FBECEE" transform="translate(131,164)"/>
<path d="M0 0 C0.99 0.33 1.98 0.66 3 1 C2.34 2.65 1.68 4.3 1 6 C2.32 6 3.64 6 5 6 C4.67 4.68 4.34 3.36 4 2 C4.99 2 5.98 2 7 2 C6.67 3.98 6.34 5.96 6 8 C7.32 8 8.64 8 10 8 C10 6.02 10 4.04 10 2 C10.66 2 11.32 2 12 2 C11.67 4.97 11.34 7.94 11 11 C5.06 10.01 5.06 10.01 -1 9 C0.91202643 13.78006608 3.02766235 17.79772953 6 22 C-0.93 21.505 -0.93 21.505 -8 21 C-7.34 19.68 -6.68 18.36 -6 17 C-5.67 17.66 -5.34 18.32 -5 19 C-3.02 18.67 -1.04 18.34 1 18 C-0.65 16.35 -2.3 14.7 -4 13 C-2.68 8.71 -1.36 4.42 0 0 Z " fill="#F9E3E5" transform="translate(219,138)"/>
<path d="M0 0 C0.33 0 0.66 0 1 0 C2.0666009 8.56666756 2.0666009 8.56666756 -0.48828125 12 C-5.13251202 16 -5.13251202 16 -8 16 C-8.33 16.66 -8.66 17.32 -9 18 C-10.44207941 15.11584117 -10.09394887 12.58278472 -10.0625 9.375 C-10.05347656 8.18648437 -10.04445312 6.99796875 -10.03515625 5.7734375 C-10.02355469 4.85820313 -10.01195312 3.94296875 -10 3 C-8.58654297 3.30744141 -8.58654297 3.30744141 -7.14453125 3.62109375 C-6.10683594 3.74613281 -5.06914062 3.87117188 -4 4 C-1.66545339 2.16641665 -1.66545339 2.16641665 0 0 Z " fill="#F4C303" transform="translate(200,119)"/>
<path d="M0 0 C0.66 0 1.32 0 2 0 C1.5206753 4.31392226 0.2542015 6.16569547 -3 9 C-0.36 9.33 2.28 9.66 5 10 C5.33 11.32 5.66 12.64 6 14 C2.7 14.66 -0.6 15.32 -4 16 C-4.33 16.99 -4.66 17.98 -5 19 C-5.66 17.02 -6.32 15.04 -7 13 C-5.68 13 -4.36 13 -3 13 C-4.65 12.67 -6.3 12.34 -8 12 C-7 10 -6 8 -5 6 C-5.99 6 -6.98 6 -8 6 C-8.33 6.66 -8.66 7.32 -9 8 C-9.33 6.68 -9.66 5.36 -10 4 C-6.7 3.34 -3.4 2.68 0 2 C0 1.34 0 0.68 0 0 Z " fill="#FAE4E7" transform="translate(117,140)"/>
<path d="M0 0 C0.33 0 0.66 0 1 0 C1 4.95 1 9.9 1 15 C2.32 14.34 3.64 13.68 5 13 C11.85851021 12.51010641 18.25410174 13.77347304 25 15 C25 11.04 25 7.08 25 3 C25.33 3 25.66 3 26 3 C26 7.29 26 11.58 26 16 C24.45828125 15.97679687 22.9165625 15.95359375 21.328125 15.9296875 C19.30208818 15.9109279 17.27604611 15.8927279 15.25 15.875 C14.23421875 15.85824219 13.2184375 15.84148438 12.171875 15.82421875 C10.70234375 15.81455078 10.70234375 15.81455078 9.203125 15.8046875 C8.30239258 15.79421387 7.40166016 15.78374023 6.47363281 15.77294922 C3.86073144 16.01278324 2.24335334 16.67687936 0 18 C-0.99 17.34 -1.98 16.68 -3 16 C-10.00334963 15.37958314 -17.05367325 16.0738231 -24 17 C-23.67 16.34 -23.34 15.68 -23 15 C-16.13068827 12.79200694 -7.92714621 11.69095126 -1 14 C-0.67 9.38 -0.34 4.76 0 0 Z " fill="#5679AE" transform="translate(168,46)"/>
<path d="M0 0 C0.66 0 1.32 0 2 0 C2 5.61 2 11.22 2 17 C-5 18 -5 18 -7.4375 17 C-9 15 -9 15 -9.4375 11.5 C-9 8 -9 8 -7.875 6 C-5.06863762 4.50327339 -2.99840718 5.26705602 0 6 C0 4.02 0 2.04 0 0 Z M-4 7 C-6.23845015 8.82915641 -6.23845015 8.82915641 -6.3125 11.5 C-6.209375 12.325 -6.10625 13.15 -6 14 C-4.515 14.99 -4.515 14.99 -3 16 C-2.01 14.35 -1.02 12.7 0 11 C-1.32 9.68 -2.64 8.36 -4 7 Z " fill="#231815" transform="translate(136,217)"/>
<path d="M0 0 C0.804375 0.7425 0.804375 0.7425 1.625 1.5 C4.37731796 3.53399299 4.37731796 3.53399299 10 3 C10 6.96 10 10.92 10 15 C4.56896408 13.91379282 3.18903023 13.37352718 0 9 C-0.40846482 5.9518313 -0.29948476 3.05474452 0 0 Z " fill="#F9C601" transform="translate(137,120)"/>
<path d="M0 0 C0.99 0 1.98 0 3 0 C3.33 4.29 3.66 8.58 4 13 C4.99 13.33 5.98 13.66 7 14 C7.66 13.67 8.32 13.34 9 13 C9.69337792 9.9600352 9.69337792 9.9600352 10.125 6.4375 C10.29257813 5.23996094 10.46015625 4.04242188 10.6328125 2.80859375 C10.75398437 1.88175781 10.87515625 0.95492187 11 0 C11.66 0 12.32 0 13 0 C13.05423638 1.91635217 13.09289963 3.83314925 13.125 5.75 C13.14820313 6.81734375 13.17140625 7.8846875 13.1953125 8.984375 C13.00226814 11.96497994 12.73773278 13.59087047 11 16 C7.471271 16.9802025 5.16600858 17.552103 1.7890625 15.953125 C-0.89036631 13.02798438 -0.3924166 10.6933524 -0.25 6.8125 C-0.21390625 5.54019531 -0.1778125 4.26789063 -0.140625 2.95703125 C-0.09421875 1.98121094 -0.0478125 1.00539062 0 0 Z " fill="#231815" transform="translate(193,218)"/>
<path d="M0 0 C0.99 0 1.98 0 3 0 C3.33 1.65 3.66 3.3 4 5 C5.4540625 5.185625 5.4540625 5.185625 6.9375 5.375 C8.4534375 5.684375 8.4534375 5.684375 10 6 C11.20272819 8.40545638 11.10071472 9.94996953 11.0625 12.625 C11.05347656 13.44226563 11.04445313 14.25953125 11.03515625 15.1015625 C11.02355469 15.72804687 11.01195313 16.35453125 11 17 C10.01 17 9.02 17 8 17 C7.67 14.36 7.34 11.72 7 9 C6.01 9 5.02 9 4 9 C3.67 11.64 3.34 14.28 3 17 C2.01 17 1.02 17 0 17 C0 11.39 0 5.78 0 0 Z " fill="#231815" transform="translate(63,217)"/>
<path d="M0 0 C0.928125 0.20625 1.85625 0.4125 2.8125 0.625 C3.4725 2.605 4.1325 4.585 4.8125 6.625 C2.1725 6.955 -0.4675 7.285 -3.1875 7.625 C-3.1875 8.285 -3.1875 8.945 -3.1875 9.625 C0.2775 9.13 0.2775 9.13 3.8125 8.625 C3.4825 9.615 3.1525 10.605 2.8125 11.625 C0.0625 12.375 0.0625 12.375 -3.1875 12.625 C-5.625 11.125 -5.625 11.125 -7.1875 8.625 C-7.125 5 -7.125 5 -6.1875 1.625 C-3.1875 -0.375 -3.1875 -0.375 0 0 Z M-2.1875 1.625 C-3.1775 3.11 -3.1775 3.11 -4.1875 4.625 C-2.5375 4.625 -0.8875 4.625 0.8125 4.625 C0.8125 3.965 0.8125 3.305 0.8125 2.625 C-0.1775 2.295 -1.1675 1.965 -2.1875 1.625 Z " fill="#231815" transform="translate(250.1875,222.375)"/>
<path d="M0 0 C1 1 1 1 1.09765625 3.28515625 C1.08605469 4.20167969 1.07445312 5.11820313 1.0625 6.0625 C1.05347656 6.98160156 1.04445312 7.90070313 1.03515625 8.84765625 C1.02355469 9.55792969 1.01195312 10.26820313 1 11 C-6.75 12.125 -6.75 12.125 -9 11 C-9 9.02 -9 7.04 -9 5 C-7.02 4.01 -5.04 3.02 -3 2 C-4.65 2.33 -6.3 2.66 -8 3 C-8 2.01 -8 1.02 -8 0 C-5.11795733 -1.44102133 -3.08226581 -0.65580124 0 0 Z M-3 5 C-3.99 5.33 -4.98 5.66 -6 6 C-6 6.99 -6 7.98 -6 9 C-4.68 9 -3.36 9 -2 9 C-2.33 7.68 -2.66 6.36 -3 5 Z " fill="#231815" transform="translate(172,223)"/>
<path d="M0 0 C2 2 2 2 2 6 C-0.64 6 -3.28 6 -6 6 C-4.8354799 7.66621425 -4.8354799 7.66621425 -3 9 C-0.34533951 8.76956136 -0.34533951 8.76956136 2 8 C1.67 8.99 1.34 9.98 1 11 C-4.25490196 12.31372549 -4.25490196 12.31372549 -7.375 11 C-9 9 -9 9 -9.5 5.5 C-9 2 -9 2 -7.3125 0 C-4.39120636 -1.26326211 -2.98201353 -1.02016252 0 0 Z M-4 1 C-4.99 2.485 -4.99 2.485 -6 4 C-4.35 4 -2.7 4 -1 4 C-1.99 3.01 -2.98 2.02 -4 1 Z " fill="#231815" transform="translate(122,223)"/>
<path d="M0 0 C0.66 0 1.32 0 2 0 C2 5.28 2 10.56 2 16 C0.47375 15.835 -1.0525 15.67 -2.625 15.5 C-9.4195543 14.87103865 -16.18244893 14.91042634 -23 15 C-22.67 14.01 -22.34 13.02 -22 12 C-14.57670253 11.88520674 -7.37516246 12.13233383 0 13 C0 8.71 0 4.42 0 0 Z " fill="#DEE5EF" transform="translate(194,49)"/>
<path d="M0 0 C1.32 0 2.64 0 4 0 C4.66 1.98 5.32 3.96 6 6 C6.66 6 7.32 6 8 6 C8.33 4.35 8.66 2.7 9 1 C9.99 0.67 10.98 0.34 12 0 C9.03954802 11.34839925 9.03954802 11.34839925 5 16 C3.68 16 2.36 16 1 16 C1 15.34 1 14.68 1 14 C1.99 13.34 2.98 12.68 4 12 C3.79503906 11.38511719 3.59007812 10.77023438 3.37890625 10.13671875 C2.25260417 6.7578125 1.12630208 3.37890625 0 0 Z " fill="#231815" transform="translate(296,223)"/>
<path d="M0 0 C-0.33 0.99 -0.66 1.98 -1 3 C-2.32 2.67 -3.64 2.34 -5 2 C-4.01 2.66 -3.02 3.32 -2 4 C-0.25 5.375 -0.25 5.375 1 7 C0.6875 9.1875 0.6875 9.1875 0 11 C-5.625 12.125 -5.625 12.125 -9 11 C-9 10.01 -9 9.02 -9 8 C-8.195625 8.185625 -7.39125 8.37125 -6.5625 8.5625 C-5.716875 8.706875 -4.87125 8.85125 -4 9 C-3.67 8.67 -3.34 8.34 -3 8 C-4.98 7.01 -6.96 6.02 -9 5 C-8.625 2.5625 -8.625 2.5625 -8 0 C-5.13822943 -1.43088528 -3.06624227 -0.59991697 0 0 Z " fill="#231815" transform="translate(276,223)"/>
<path d="M0 0 C0.66 0.33 1.32 0.66 2 1 C2 10.24 2 19.48 2 29 C1.34 29 0.68 29 0 29 C0 33.62 0 38.24 0 43 C-0.33 43 -0.66 43 -1 43 C-1.1524147 28.6391479 -0.69241678 14.34370819 0 0 Z " fill="#F5EDCB" transform="translate(202,78)"/>
<path d="M0 0 C2.79050082 1.39525041 3.46924934 3.30587883 5 6 C5.556875 6.928125 6.11375 7.85625 6.6875 8.8125 C7.120625 9.534375 7.55375 10.25625 8 11 C4.7 10.67 1.4 10.34 -2 10 C-0.16666667 13.16666667 -0.16666667 13.16666667 3 15 C1.02 15.99 1.02 15.99 -1 17 C-1.598125 15.906875 -2.19625 14.81375 -2.8125 13.6875 C-4.29044697 11.08925871 -5.69822933 8.95650507 -8 7 C-7 6 -7 6 -4.93359375 5.90234375 C-3.69802734 5.91974609 -3.69802734 5.91974609 -2.4375 5.9375 C-1.61121094 5.94652344 -0.78492188 5.95554688 0.06640625 5.96484375 C0.70449219 5.97644531 1.34257812 5.98804688 2 6 C0.68 4.68 -0.64 3.36 -2 2 C-1.34 1.34 -0.68 0.68 0 0 Z " fill="#FAE7E9" transform="translate(203,166)"/>
<path d="M0 0 C0 0.99 0 1.98 0 3 C-2.31 2.67 -4.62 2.34 -7 2 C-7 4.31 -7 6.62 -7 9 C-3.535 8.505 -3.535 8.505 0 8 C-0.33 8.99 -0.66 9.98 -1 11 C-3.75 11.75 -3.75 11.75 -7 12 C-9.4375 10.5 -9.4375 10.5 -11 8 C-10.9375 4.375 -10.9375 4.375 -10 1 C-6.1496895 -1.56687367 -4.41430237 -0.83288724 0 0 Z " fill="#231815" transform="translate(160,223)"/>
<path d="M0 0 C0 0.99 0 1.98 0 3 C-0.61875 2.814375 -1.2375 2.62875 -1.875 2.4375 C-4.04160178 1.76313824 -4.04160178 1.76313824 -6 3 C-6 4.98 -6 6.96 -6 9 C-2.535 8.505 -2.535 8.505 1 8 C0.67 8.99 0.34 9.98 0 11 C-5.25490196 12.31372549 -5.25490196 12.31372549 -8.375 11 C-10 9 -10 9 -10.5 5.5 C-10 2 -10 2 -8.375 0 C-5.2448901 -1.31794101 -3.24216891 -0.81054223 0 0 Z " fill="#231815" transform="translate(59,223)"/>
<path d="M0 0 C0.33 0.99 0.66 1.98 1 3 C-0.32 3.99 -1.64 4.98 -3 6 C-1.35 6 0.3 6 2 6 C2 7.65 2 9.3 2 11 C-2.29 11 -6.58 11 -11 11 C-11 9.02 -11 7.04 -11 5 C-10.67 5.66 -10.34 6.32 -10 7 C-8.35 7 -6.7 7 -5 7 C-5.34786708 5.02463255 -5.34786708 5.02463255 -6 3 C-6.66 2.67 -7.32 2.34 -8 2 C-7.05125 2.04125 -6.1025 2.0825 -5.125 2.125 C-1.89755144 2.34973818 -1.89755144 2.34973818 0 0 Z " fill="#FDF5F6" transform="translate(231,125)"/>
<path d="M0 0 C1 1 1 1 1.09765625 3.28515625 C1.08605469 4.20167969 1.07445312 5.11820313 1.0625 6.0625 C1.05347656 6.98160156 1.04445312 7.90070313 1.03515625 8.84765625 C1.02355469 9.55792969 1.01195312 10.26820313 1 11 C0.01 11 -0.98 11 -2 11 C-2.33 8.03 -2.66 5.06 -3 2 C-3.99 2 -4.98 2 -6 2 C-6.33 4.97 -6.66 7.94 -7 11 C-7.66 11 -8.32 11 -9 11 C-9 7.37 -9 3.74 -9 0 C-5.16046631 -0.95988342 -3.67125527 -0.99223115 0 0 Z " fill="#231815" transform="translate(219,223)"/>
<path d="M0 0 C4.875 4.625 4.875 4.625 6 8 C5.01 8 4.02 8 3 8 C2.67 7.01 2.34 6.02 2 5 C1.34 5 0.68 5 0 5 C0 6.32 0 7.64 0 9 C0.66 9.33 1.32 9.66 2 10 C1.01 10.33 0.02 10.66 -1 11 C-1.33 9.68 -1.66 8.36 -2 7 C-2.99 7.99 -3.98 8.98 -5 10 C-4.04134491 12.33075929 -4.04134491 12.33075929 -1 14 C-2.32 14 -3.64 14 -5 14 C-6.484375 12.46875 -6.484375 12.46875 -7.75 10.5 C-8.17796875 9.8503125 -8.6059375 9.200625 -9.046875 8.53125 C-9.36140625 8.0259375 -9.6759375 7.520625 -10 7 C-9.0925 6.5875 -8.185 6.175 -7.25 5.75 C-4.20334382 4.10949282 -2.28873194 2.55281639 0 0 Z " fill="#FAE5E7" transform="translate(124,155)"/>
<path d="M0 0 C1.32 0 2.64 0 4 0 C4 0.66 4 1.32 4 2 C3.34 2 2.68 2 2 2 C2 2.66 2 3.32 2 4 C7.445 3.505 7.445 3.505 13 3 C13 4.98 13 6.96 13 9 C12.34 9 11.68 9 11 9 C11 8.34 11 7.68 11 7 C8.03 7 5.06 7 2 7 C2 7.99 2 8.98 2 10 C2.66 10.33 3.32 10.66 4 11 C2.68 11 1.36 11 0 11 C0 7.37 0 3.74 0 0 Z " fill="#F5CCD0" transform="translate(220,94)"/>
<path d="M0 0 C0.66 0 1.32 0 2 0 C2 4.29 2 8.58 2 13 C0.68 12.67 -0.64 12.34 -2 12 C-1.67 10.68 -1.34 9.36 -1 8 C-2.32 8 -3.64 8 -5 8 C-5.33 8.66 -5.66 9.32 -6 10 C-6.99 10 -7.98 10 -9 10 C-9 9.34 -9 8.68 -9 8 C-7.28515625 6.30859375 -7.28515625 6.30859375 -5.0625 4.4375 C-3.96615234 3.50744141 -3.96615234 3.50744141 -2.84765625 2.55859375 C-2.23792969 2.04425781 -1.62820312 1.52992188 -1 1 C-0.67 0.67 -0.34 0.34 0 0 Z " fill="#F9E0E2" transform="translate(161,183)"/>
<path d="M0 0 C0.33 0.66 0.66 1.32 1 2 C6.445 1.505 6.445 1.505 12 1 C11.67 2.32 11.34 3.64 11 5 C9.68 4.67 8.36 4.34 7 4 C7 5.65 7 7.3 7 9 C8.65 8.67 10.3 8.34 12 8 C11.67 9.32 11.34 10.64 11 12 C7.7 11.67 4.4 11.34 1 11 C0.67 11.66 0.34 12.32 0 13 C0 11.02 0 9.04 0 7 C0.33 7.66 0.66 8.32 1 9 C2.65 9 4.3 9 6 9 C6 7.35 6 5.7 6 4 C4.35 4 2.7 4 1 4 C0.67 4.66 0.34 5.32 0 6 C0 4.02 0 2.04 0 0 Z " fill="#FDF9F9" transform="translate(105,111)"/>
<path d="M0 0 C0.99 0 1.98 0 3 0 C3.08097324 2.27024968 3.13917704 4.54132075 3.1875 6.8125 C3.22230469 8.07707031 3.25710937 9.34164062 3.29296875 10.64453125 C3 14 3 14 1.65625 15.96875 C0 17 0 17 -2.6875 16.6875 C-3.450625 16.460625 -4.21375 16.23375 -5 16 C-5 15.01 -5 14.02 -5 13 C-3.68 13 -2.36 13 -1 13 C-0.67 8.71 -0.34 4.42 0 0 Z " fill="#231815" transform="translate(35,218)"/>
<path d="M0 0 C2.3125 1.5625 2.3125 1.5625 4 3 C3.01 3.99 2.02 4.98 1 6 C0.34 4.68 -0.32 3.36 -1 2 C-3.75641416 2.49756092 -3.75641416 2.49756092 -6 4 C-6.04063832 5.66617115 -6.042721 7.33388095 -6 9 C-4.02 9.66 -2.04 10.32 0 11 C0 11.33 0 11.66 0 12 C-6.40504648 12.48339973 -6.40504648 12.48339973 -9 10.375 C-10.36831008 7.12526355 -10.0645504 5.33559124 -9 2 C-6.05351892 -1.26217548 -4.07346614 -1.42571315 0 0 Z " fill="#F9E0E2" transform="translate(152,178)"/>
<path d="M0 0 C4.875 0.875 4.875 0.875 6 2 C6.04080783 3.99958364 6.04254356 6.00045254 6 8 C4.35 8.33 2.7 8.66 1 9 C1.33 8.34 1.66 7.68 2 7 C2.66 7 3.32 7 4 7 C4 5.68 4 4.36 4 3 C0.88667752 3.66868314 0.88667752 3.66868314 -0.1875 6.0625 C-0.455625 6.701875 -0.72375 7.34125 -1 8 C-2.66611905 8.042721 -4.33382885 8.04063832 -6 8 C-7 7 -7 7 -7.0625 3.9375 C-7.041875 2.968125 -7.02125 1.99875 -7 1 C-5.68 1.33 -4.36 1.66 -3 2 C-3.66 2 -4.32 2 -5 2 C-5.33 3.32 -5.66 4.64 -6 6 C-2.26360784 4.75453595 -1.81243487 3.36595047 0 0 Z " fill="#FBEEF0" transform="translate(227,114)"/>
<path d="M0 0 C1.32 0.33 2.64 0.66 4 1 C4.33 2.65 4.66 4.3 5 6 C5.66 6 6.32 6 7 6 C7.66 4.02 8.32 2.04 9 0 C9.66 0 10.32 0 11 0 C10.39301257 4.12751449 8.96189209 7.3321148 7 11 C6.01 11 5.02 11 4 11 C3.32880451 9.5437455 2.66318193 8.08492133 2 6.625 C1.62875 5.81289062 1.2575 5.00078125 0.875 4.1640625 C0 2 0 2 0 0 Z " fill="#231815" transform="translate(230,223)"/>
<path d="M0 0 C0.66 0 1.32 0 2 0 C5.61643836 7.68493151 5.61643836 7.68493151 5 12 C3 14 3 14 -0.125 14.125 C-1.07375 14.08375 -2.0225 14.0425 -3 14 C-4.65 11.03 -6.3 8.06 -8 5 C-6.68 4.34 -5.36 3.68 -4 3 C-3.01 5.64 -2.02 8.28 -1 11 C0.32 11 1.64 11 3 11 C2.29445932 7.33118845 0.72264494 4.29549466 -1 1 C-0.67 0.67 -0.34 0.34 0 0 Z " fill="#FAE5E7" transform="translate(191,175)"/>
<path d="M0 0 C2.375 1.5625 2.375 1.5625 4 4 C4.25 7.75 4.25 7.75 4 11 C2.35 11 0.7 11 -1 11 C-0.67 10.34 -0.34 9.68 0 9 C0.66 9 1.32 9 2 9 C1.67 7.35 1.34 5.7 1 4 C-1.31 4 -3.62 4 -6 4 C-6.93423645 7.01031744 -7.04449911 7.86650268 -6 11 C-6.66 11 -7.32 11 -8 11 C-9.39935013 8.20129973 -9.25265405 6.09501208 -9 3 C-6.79244709 -0.67925486 -4.01747809 -0.57392544 0 0 Z " fill="#F5CED2" transform="translate(114,98)"/>
<path d="M0 0 C0.66 0.495 1.32 0.99 2 1.5 C5.96633241 3.48316621 8.60303262 3.22357461 13 3 C13 4.98 13 6.96 13 9 C12.34 9 11.68 9 11 9 C11 8.34 11 7.68 11 7 C6.94718288 8.22527029 3.55639236 9.69880494 0 12 C0 10.35 0 8.7 0 7 C1.32 6.34 2.64 5.68 4 5 C2.68 4.67 1.36 4.34 0 4 C0 2.68 0 1.36 0 0 Z " fill="#F8DBDE" transform="translate(220,81)"/>
<path d="M0 0 C0.99 0 1.98 0 3 0 C3.06058594 1.04800781 3.12117187 2.09601563 3.18359375 3.17578125 C3.26801738 4.55470048 3.35266447 5.93360605 3.4375 7.3125 C3.47681641 8.00279297 3.51613281 8.69308594 3.55664062 9.40429688 C3.74927415 12.47161535 4.02322717 15.06968152 5 18 C1.125 17.125 1.125 17.125 0 16 C-0.07319621 13.30345146 -0.09242537 10.63308542 -0.0625 7.9375 C-0.05798828 7.17888672 -0.05347656 6.42027344 -0.04882812 5.63867188 C-0.0370068 3.75908129 -0.01907078 1.87953101 0 0 Z " fill="#231815" transform="translate(177,217)"/>
<path d="M0 0 C0 0.99 0 1.98 0 3 C-3.3 3.66 -6.6 4.32 -10 5 C-10.33 5.99 -10.66 6.98 -11 8 C-11.66 6.02 -12.32 4.04 -13 2 C-11.68 2 -10.36 2 -9 2 C-10.65 1.67 -12.3 1.34 -14 1 C-14 0.67 -14 0.34 -14 0 C-4.58997722 -1.33257403 -4.58997722 -1.33257403 0 0 Z " fill="#F6CFD3" transform="translate(123,151)"/>
<path d="M0 0 C1.32 0 2.64 0 4 0 C4 3.3 4 6.6 4 10 C5.98 9.67 7.96 9.34 10 9 C10 9.99 10 10.98 10 12 C6.7 12 3.4 12 0 12 C0 8.04 0 4.08 0 0 Z " fill="#F8DEE1" transform="translate(167,185)"/>
<path d="M0 0 C0.66 0 1.32 0 2 0 C2 1.32 2 2.64 2 4 C3.32 4.33 4.64 4.66 6 5 C4.68 5 3.36 5 2 5 C2.33 7.97 2.66 10.94 3 14 C3.99 14.33 4.98 14.66 6 15 C2.25 16.125 2.25 16.125 0 15 C0 11.7 0 8.4 0 5 C-0.99 4.67 -1.98 4.34 -3 4 C-2.01 4 -1.02 4 0 4 C0 2.68 0 1.36 0 0 Z " fill="#231815" transform="translate(289,219)"/>
<path d="M0 0 C0 0.99 0 1.98 0 3 C-0.99 3.33 -1.98 3.66 -3 4 C-3.33 6.64 -3.66 9.28 -4 12 C-4.99 12 -5.98 12 -7 12 C-7 8.37 -7 4.74 -7 1 C-3 0 -3 0 0 0 Z " fill="#231815" transform="translate(265,222)"/>
<path d="M0 0 C4.29 0 8.58 0 13 0 C13 1.65 13 3.3 13 5 C8.71 5 4.42 5 0 5 C0 3.35 0 1.7 0 0 Z " fill="#F7D8DB" transform="translate(220,107)"/>
<path d="M0 0 C0.99 0.33 1.98 0.66 3 1 C3.125 3.375 3.125 3.375 3 6 C1 8 1 8 -1.625 8.125 C-2.40875 8.08375 -3.1925 8.0425 -4 8 C-4 4 -4 4 -2 1.75 C-1.01 0.88375 -1.01 0.88375 0 0 Z " fill="#DA3C4D" transform="translate(132,168)"/>
<path d="M0 0 C4.875 4.75 4.875 4.75 6 7 C-0.93 6.505 -0.93 6.505 -8 6 C-7.34 4.68 -6.68 3.36 -6 2 C-5.67 2.66 -5.34 3.32 -5 4 C-3.02 3.67 -1.04 3.34 1 3 C0.67 2.01 0.34 1.02 0 0 Z " fill="#FAE8EA" transform="translate(219,153)"/>
<path d="M0 0 C0.66 0 1.32 0 2 0 C2 0.99 2 1.98 2 3 C5.3 3 8.6 3 12 3 C12 3.99 12 4.98 12 6 C10.37536158 6.05395478 8.75021459 6.09277195 7.125 6.125 C6.22007813 6.14820312 5.31515625 6.17140625 4.3828125 6.1953125 C2 6 2 6 0 4 C0 2.68 0 1.36 0 0 Z " fill="#F8DDE0" transform="translate(105,81)"/>
<path d="M0 0 C1.32 0.66 2.64 1.32 4 2 C3.45859375 2.81404297 3.45859375 2.81404297 2.90625 3.64453125 C2.4421875 4.35996094 1.978125 5.07539063 1.5 5.8125 C1.0359375 6.52019531 0.571875 7.22789062 0.09375 7.95703125 C-1.23599375 10.05458124 -1.23599375 10.05458124 -1 13 C-3.475 12.01 -3.475 12.01 -6 11 C-6 10.34 -6 9.68 -6 9 C-5.01 9 -4.02 9 -3 9 C-1.76078698 6.02588876 -0.69941596 3.14737182 0 0 Z " fill="#FAE5E7" transform="translate(140,172)"/>
<path d="M0 0 C0.53625 0.763125 1.0725 1.52625 1.625 2.3125 C4.20205814 5.22864474 6.45814404 6.4705622 10 8 C8.68 9.32 7.36 10.64 6 12 C5.60167969 11.4946875 5.20335937 10.989375 4.79296875 10.46875 C4.26316406 9.8190625 3.73335937 9.169375 3.1875 8.5 C2.66542969 7.8503125 2.14335937 7.200625 1.60546875 6.53125 C0.00795167 4.65490872 0.00795167 4.65490872 -3 5 C-1.125 1.125 -1.125 1.125 0 0 Z " fill="#FAE9EA" transform="translate(209,160)"/>
<path d="M0 0 C1.58294782 -0.05437607 3.16644256 -0.09296271 4.75 -0.125 C5.63171875 -0.14820313 6.5134375 -0.17140625 7.421875 -0.1953125 C10.14388085 0.01090006 11.62457399 0.73244075 14 2 C14.99 2 15.98 2 17 2 C16.67 2.66 16.34 3.32 16 4 C10.39 3.34 4.78 2.68 -1 2 C-0.67 1.34 -0.34 0.68 0 0 Z " fill="#F7F8FB" transform="translate(155,61)"/>
<path d="M0 0 C0.99 0 1.98 0 3 0 C3 3.63 3 7.26 3 11 C2.01 11 1.02 11 0 11 C0 7.37 0 3.74 0 0 Z " fill="#231815" transform="translate(280,223)"/>
<path d="M0 0 C0.99 0 1.98 0 3 0 C3 3.63 3 7.26 3 11 C2.01 11 1.02 11 0 11 C0 7.37 0 3.74 0 0 Z " fill="#231815" transform="translate(224,223)"/>
<path d="M0 0 C0.99 0 1.98 0 3 0 C3 3.63 3 7.26 3 11 C2.01 11 1.02 11 0 11 C0 7.37 0 3.74 0 0 Z " fill="#231815" transform="translate(143,223)"/>
<path d="M0 0 C0.99 0 1.98 0 3 0 C3 3.63 3 7.26 3 11 C2.01 11 1.02 11 0 11 C0 7.37 0 3.74 0 0 Z " fill="#231815" transform="translate(78,223)"/>
<path d="M0 0 C1.29315061 0.95632999 2.58446853 1.91513851 3.875 2.875 C4.59429687 3.40867187 5.31359375 3.94234375 6.0546875 4.4921875 C8 6 8 6 10 8 C8.35 8.33 6.7 8.66 5 9 C0 3.375 0 3.375 0 0 Z " fill="#264C78" transform="translate(136,115)"/>
<path d="M0 0 C0.99 0 1.98 0 3 0 C3.37010337 3.3309303 3.27461204 4.62731223 1.25 7.375 C-1 9 -1 9 -3.1875 8.875 C-5 8 -5 8 -6 6 C-5.195625 5.7525 -4.39125 5.505 -3.5625 5.25 C-0.828919 4.27761141 -0.828919 4.27761141 -0.1875 1.875 C-0.125625 1.25625 -0.06375 0.6375 0 0 Z " fill="#F4C8CD" transform="translate(135,170)"/>
<path d="M0 0 C0.33 0.99 0.66 1.98 1 3 C-1.1875 6.1875 -1.1875 6.1875 -4 9 C-5.32 9 -6.64 9 -8 9 C-6.90101298 5.70303895 -6.05402613 4.95329411 -3.4375 2.8125 C-2.79683594 2.28269531 -2.15617188 1.75289063 -1.49609375 1.20703125 C-0.75552734 0.60955078 -0.75552734 0.60955078 0 0 Z " fill="#2A4F76" transform="translate(133,102)"/>
<path d="M0 0 C1.46484375 1.26953125 2.9296875 2.5390625 4.39453125 3.80859375 C6.10712971 5.20871231 6.10712971 5.20871231 9 6 C9 6.66 9 7.32 9 8 C5.625 7.6875 5.625 7.6875 2 7 C0 4 0 4 0 0 Z " fill="#1E4675" transform="translate(205,129)"/>
<path d="M0 0 C1.50539661 0.94983358 3.00420347 1.91011891 4.5 2.875 C5.75296875 3.67550781 5.75296875 3.67550781 7.03125 4.4921875 C7.6809375 4.98976562 8.330625 5.48734375 9 6 C9 6.66 9 7.32 9 8 C5.68847126 8.36794764 4.39390748 8.29809215 1.6875 6.25 C0 4 0 4 0 0 Z " fill="#194478" transform="translate(137,129)"/>
<path d="M0 0 C0.75 1.75 0.75 1.75 1 4 C-0.625 6.25 -0.625 6.25 -3 8 C-5.75 8.25 -5.75 8.25 -8 8 C-8 7.34 -8 6.68 -8 6 C-6.02678947 4.6273318 -4.02456848 3.29572383 -2 2 C-1.34 1.34 -0.68 0.68 0 0 Z " fill="#13407B" transform="translate(132,129)"/>
<path d="M0 0 C1.34173403 0.92543709 2.67320159 1.86577405 4 2.8125 C5.11375 3.59560547 5.11375 3.59560547 6.25 4.39453125 C6.8275 4.92433594 7.405 5.45414062 8 6 C8 6.99 8 7.98 8 9 C4.86493389 8.66410006 3.974751 7.97334828 1.75 5.625 C0 3 0 3 0 0 Z " fill="#1C467A" transform="translate(204,115)"/>
<path d="M0 0 C0.33 0.99 0.66 1.98 1 3 C-0.625 5.6875 -0.625 5.6875 -3 8 C-5.75 8.3125 -5.75 8.3125 -8 8 C-8 7.34 -8 6.68 -8 6 C-6.02678947 4.6273318 -4.02456848 3.29572383 -2 2 C-1.34 1.34 -0.68 0.68 0 0 Z " fill="#0E3D7E" transform="translate(200,129)"/>
<path d="M0 0 C0.33 0.99 0.66 1.98 1 3 C-1.25 5.5625 -1.25 5.5625 -4 8 C-6.3125 7.8125 -6.3125 7.8125 -8 7 C-5.4837822 4.39391727 -2.94865641 2.10618315 0 0 Z " fill="#1B4477" transform="translate(200,116)"/>
<path d="M0 0 C0 0.66 0 1.32 0 2 C-0.969375 2.2475 -1.93875 2.495 -2.9375 2.75 C-6.09200867 3.63930931 -6.09200867 3.63930931 -6.9375 5.9375 C-7.12471696 8.20054488 -7.12471696 8.20054488 -6 11 C-6.66 11 -7.32 11 -8 11 C-9.39935013 8.20129973 -9.25265405 6.09501208 -9 3 C-6.77089201 -0.71517998 -4.03410755 -0.2689405 0 0 Z " fill="#FBECEE" transform="translate(114,98)"/>
<path d="M0 0 C0 1.32 0 2.64 0 4 C-0.804375 4.12375 -1.60875 4.2475 -2.4375 4.375 C-3.7059375 4.684375 -3.7059375 4.684375 -5 5 C-5.33 5.66 -5.66 6.32 -6 7 C-6.99 7 -7.98 7 -9 7 C-9 6.34 -9 5.68 -9 5 C-3.64285714 0 -3.64285714 0 0 0 Z " fill="#F4C4C9" transform="translate(161,186)"/>
<path d="M0 0 C0.33 0.99 0.66 1.98 1 3 C-1.25 5.5625 -1.25 5.5625 -4 8 C-6.3125 7.8125 -6.3125 7.8125 -8 7 C-7.236875 6.401875 -6.47375 5.80375 -5.6875 5.1875 C-3.6516425 3.53040668 -1.8021721 1.89702326 0 0 Z " fill="#164279" transform="translate(132,116)"/>
<path d="M0 0 C1.12588014 0.95729916 2.2506715 1.91587895 3.375 2.875 C4.00148437 3.40867187 4.62796875 3.94234375 5.2734375 4.4921875 C6.55836651 5.61432007 7.79371975 6.79371975 9 8 C7.3125 8.8125 7.3125 8.8125 5 9 C2.25 6.8125 2.25 6.8125 0 4 C0 2.68 0 1.36 0 0 Z " fill="#1C4578" transform="translate(136,102)"/>
<path d="M0 0 C0.75 1.75 0.75 1.75 1 4 C-0.6875 6.25 -0.6875 6.25 -3 8 C-4.32 8 -5.64 8 -7 8 C-5.61918777 3.8575633 -3.40174442 2.67796901 0 0 Z " fill="#1E4676" transform="translate(200,103)"/>
<path d="M0 0 C0.66 0.33 1.32 0.66 2 1 C1.67 2.98 1.34 4.96 1 7 C-0.32 7 -1.64 7 -3 7 C-2.625 4.0625 -2.625 4.0625 -2 1 C-1.34 0.67 -0.68 0.34 0 0 Z " fill="#E05C6A" transform="translate(228,139)"/>
<path d="M0 0 C4.455 2.97 4.455 2.97 9 6 C8.67 6.66 8.34 7.32 8 8 C4.89347355 7.6641593 3.39585697 7.40950721 1.1875 5.125 C0 3 0 3 0 0 Z " fill="#164279" transform="translate(204,103)"/>
<path d="M0 0 C1.33897583 0.95043374 2.67105427 1.91059147 4 2.875 C5.11375 3.67550781 5.11375 3.67550781 6.25 4.4921875 C6.8275 4.98976563 7.405 5.48734375 8 6 C8 6.66 8 7.32 8 8 C4.89347355 7.6641593 3.39585697 7.40950721 1.1875 5.125 C0 3 0 3 0 0 Z " fill="#204774" transform="translate(204,91)"/>
<path d="M0 0 C0 1.65 0 3.3 0 5 C-3.96 4.67 -7.92 4.34 -12 4 C-12 3.67 -12 3.34 -12 3 C-10.63875 2.814375 -10.63875 2.814375 -9.25 2.625 C-6.00672409 2.00129309 -3.21185172 0 0 0 Z " fill="#F2BDC3" transform="translate(233,131)"/>
<path d="M0 0 C4.875 0.875 4.875 0.875 6 2 C6.04080783 3.99958364 6.04254356 6.00045254 6 8 C4.35 8.33 2.7 8.66 1 9 C1.33 8.34 1.66 7.68 2 7 C2.66 7 3.32 7 4 7 C4 5.68 4 4.36 4 3 C3.34 3 2.68 3 2 3 C2 2.34 2 1.68 2 1 C1.34 0.67 0.68 0.34 0 0 Z " fill="#F5CACF" transform="translate(227,114)"/>
<path d="M0 0 C0.33 0.99 0.66 1.98 1 3 C-0.40445835 5.2636564 -2.1967913 7.0208685 -4 9 C-5.32 8.67 -6.64 8.34 -8 8 C-7.236875 7.4225 -6.47375 6.845 -5.6875 6.25 C-3.33799083 4.28296907 -1.70676495 2.51523256 0 0 Z " fill="#20497A" transform="translate(201,90)"/>
<path d="M0 0 C0.66 0 1.32 0 2 0 C2.12375 0.639375 2.2475 1.27875 2.375 1.9375 C2.684375 2.9584375 2.684375 2.9584375 3 4 C3.66 4.33 4.32 4.66 5 5 C4.34 5.66 3.68 6.32 3 7 C1.0625 6.1875 1.0625 6.1875 -1 5 C-1.33 4.01 -1.66 3.02 -2 2 C-1.34 1.34 -0.68 0.68 0 0 Z " fill="#DD4B5A" transform="translate(120,162)"/>
<path d="M0 0 C0.99 0.33 1.98 0.66 3 1 C3.33 2.65 3.66 4.3 4 6 C2.35 6 0.7 6 -1 6 C-1.625 4.125 -1.625 4.125 -2 2 C-1.34 1.34 -0.68 0.68 0 0 Z " fill="#EA939C" transform="translate(222,126)"/>
<path d="M0 0 C1.33897583 0.95043374 2.67105427 1.91059147 4 2.875 C5.11375 3.67550781 5.11375 3.67550781 6.25 4.4921875 C6.8275 4.98976563 7.405 5.48734375 8 6 C8 6.66 8 7.32 8 8 C4.89347355 7.6641593 3.39585697 7.40950721 1.1875 5.125 C0 3 0 3 0 0 Z " fill="#174279" transform="translate(136,91)"/>
<path d="M0 0 C2.64 1.98 5.28 3.96 8 6 C7.67 6.66 7.34 7.32 7 8 C4.24542282 7.62005832 3.17979426 7.1926367 1.25 5.125 C0 3 0 3 0 0 Z " fill="#274C71" transform="translate(204,80)"/>
<path d="M0 0 C2.64 1.98 5.28 3.96 8 6 C7.67 6.66 7.34 7.32 7 8 C3.34683329 6.75023244 2.21934164 6.32901247 0 3 C0 2.01 0 1.02 0 0 Z " fill="#244A72" transform="translate(136,80)"/>
<path d="M0 0 C0.33 0.99 0.66 1.98 1 3 C-1.3125 5.5 -1.3125 5.5 -4 8 C-4.99 8 -5.98 8 -7 8 C-5.61918777 3.8575633 -3.40174442 2.67796901 0 0 Z " fill="#244A72" transform="translate(133,80)"/>
<path d="M0 0 C0.33 0.66 0.66 1.32 1 2 C-0.65 3.98 -2.3 5.96 -4 8 C-5.32 7.67 -6.64 7.34 -8 7 C-7.236875 6.401875 -6.47375 5.80375 -5.6875 5.1875 C-3.6516425 3.53040668 -1.8021721 1.89702326 0 0 Z " fill="#14417C" transform="translate(133,91)"/>
<path d="M0 0 C0.66 0 1.32 0 2 0 C2 3.63 2 7.26 2 11 C1.34 11 0.68 11 0 11 C0 7.37 0 3.74 0 0 Z " fill="#231815" transform="translate(43,223)"/>
<path d="M0 0 C0.66 0 1.32 0 2 0 C1.67 2.97 1.34 5.94 1 9 C-1.97 8.505 -1.97 8.505 -5 8 C-4.67 7.34 -4.34 6.68 -4 6 C-2.68 6 -1.36 6 0 6 C0 4.02 0 2.04 0 0 Z " fill="#FBECED" transform="translate(229,140)"/>
<path d="M0 0 C0.33 0.66 0.66 1.32 1 2 C-2.61328125 6.6875 -2.61328125 6.6875 -4 8 C-4.99 8 -5.98 8 -7 8 C-5.61918777 3.8575633 -3.40174442 2.67796901 0 0 Z " fill="#164279" transform="translate(201,80)"/>
<path d="M0 0 C3.82097239 0.53069061 6.06171403 1.49701566 9 4 C8.01 4.99 7.02 5.98 6 7 C5.7525 6.360625 5.505 5.72125 5.25 5.0625 C4.18437567 2.81258459 4.18437567 2.81258459 1.875 2.25 C0.946875 2.12625 0.946875 2.12625 0 2 C0 1.34 0 0.68 0 0 Z " fill="#F6D3D7" transform="translate(147,177)"/>
<path d="M0 0 C1.32 0.66 2.64 1.32 4 2 C3.01 2 2.02 2 1 2 C1.66 3.98 2.32 5.96 3 8 C2.01 8 1.02 8 0 8 C-0.66 7.34 -1.32 6.68 -2 6 C-1.34 4.02 -0.68 2.04 0 0 Z " fill="#F1B7BD" transform="translate(217,145)"/>
<path d="M0 0 C0 1.65 0 3.3 0 5 C-1.65 5 -3.3 5 -5 5 C-4.6875 3.0625 -4.6875 3.0625 -4 1 C-1 0 -1 0 0 0 Z " fill="#DD4D5C" transform="translate(111,115)"/>
<path d="M0 0 C3.01327566 1.50663783 3.61056618 4.03166411 5 7 C3.68 7.33 2.36 7.66 1 8 C1 7.01 1 6.02 1 5 C-0.43750191 3.31201173 -0.43750191 3.31201173 -2 2 C-1.34 1.34 -0.68 0.68 0 0 Z " fill="#F6D0D4" transform="translate(203,166)"/>
<path d="M0 0 C2 2 2 2 2 6 C0.68 6 -0.64 6 -2 6 C-1.125 1.125 -1.125 1.125 0 0 Z " fill="#DF5462" transform="translate(222,138)"/>
<path d="M0 0 C1.32 0.66 2.64 1.32 4 2 C3.67 2.99 3.34 3.98 3 5 C2.01 5 1.02 5 0 5 C-0.5625 3.0625 -0.5625 3.0625 -1 1 C-0.67 0.67 -0.34 0.34 0 0 Z " fill="#DE5462" transform="translate(124,159)"/>
<path d="M0 0 C0.33 0.66 0.66 1.32 1 2 C2.65 2 4.3 2 6 2 C6 2.66 6 3.32 6 4 C3.36 4 0.72 4 -2 4 C-1.34 2.68 -0.68 1.36 0 0 Z " fill="#FDF7F7" transform="translate(213,155)"/>
<path d="M0 0 C0.66 0 1.32 0 2 0 C2.99 2.64 3.98 5.28 5 8 C2 7 2 7 0.3125 3.9375 C-0.120625 2.968125 -0.55375 1.99875 -1 1 C-0.67 0.67 -0.34 0.34 0 0 Z " fill="#F7D4D8" transform="translate(191,175)"/>
<path d="M0 0 C0.99 0 1.98 0 3 0 C3 1.32 3 2.64 3 4 C1.68 3.67 0.36 3.34 -1 3 C-0.67 2.01 -0.34 1.02 0 0 Z " fill="#231815" transform="translate(143,218)"/>
<path d="M0 0 C0.99 0 1.98 0 3 0 C3 1.32 3 2.64 3 4 C2.01 4 1.02 4 0 4 C0 2.68 0 1.36 0 0 Z " fill="#231815" transform="translate(280,218)"/>
<path d="M0 0 C0.99 0.33 1.98 0.66 3 1 C2.67 1.99 2.34 2.98 2 4 C1.01 3.67 0.02 3.34 -1 3 C-0.67 2.01 -0.34 1.02 0 0 Z " fill="#231815" transform="translate(225,218)"/>
<path d="M0 0 C0.99 0 1.98 0 3 0 C3 1.32 3 2.64 3 4 C2.01 4 1.02 4 0 4 C0 2.68 0 1.36 0 0 Z " fill="#231815" transform="translate(78,218)"/>
<path d="M0 0 C0.99 0.33 1.98 0.66 3 1 C2.67 1.99 2.34 2.98 2 4 C1.01 3.67 0.02 3.34 -1 3 C-0.67 2.01 -0.34 1.02 0 0 Z " fill="#231815" transform="translate(43,218)"/>
</svg>
