<?xml version="1.0" encoding="UTF-8"?>
<svg version="1.1" xmlns="http://www.w3.org/2000/svg" width="793" height="966">
<path d="M0 0 C4.07976016 1.08389668 6.87618187 3.31855477 10.125 5.9375 C18.19908752 12.20362972 27.08014996 17.05612755 36 22 C36.76199707 22.42958008 37.52399414 22.85916016 38.30908203 23.30175781 C95.16290434 55.2520564 160.65362606 62.18887946 224.5402832 54.38891602 C227.59736766 54.04526098 230.65246662 53.75152076 233.7162323 53.47569275 C234.70595126 53.38638961 235.69567022 53.29708647 236.71538067 53.20507717 C237.46930505 53.1374017 238.22322943 53.06972624 239 53 C239.06882182 93.61236134 239.12160755 134.22471502 239.15319599 174.83712313 C239.15694764 179.64304312 239.16083066 184.44896299 239.16479492 189.25488281 C239.16558185 190.21156532 239.16636878 191.16824782 239.16717956 192.15392071 C239.18019675 207.59918985 239.20383005 223.04442514 239.23145839 238.48967427 C239.25961561 254.36420225 239.27619795 270.23871263 239.28226548 286.11326456 C239.28636064 295.89113036 239.29924553 305.66890045 239.3237494 315.44673675 C239.3397343 322.17204813 239.34437187 328.89731077 239.34050413 335.62263972 C239.33860218 339.48988724 239.34130028 343.35696874 239.35761642 347.22418594 C239.44493809 369.00663691 238.66774317 390.59967953 233.25 411.8125 C232.99178467 412.84616699 232.73356934 413.87983398 232.4675293 414.94482422 C219.81234642 464.01160993 188.19202223 509.2872283 148 540 C146.67790657 541.05897832 145.35776398 542.12039455 144.0390625 543.18359375 C115.42275046 566.09512814 83.49010612 582.64972357 49.32421875 595.59375 C23.88213133 605.17644064 23.88213133 605.17644064 2 621 C-1.64155169 619.70648966 -4.2674682 618.17844974 -7.2265625 615.70703125 C-11.70492762 612.13634302 -16.30004034 609.32574258 -21.375 606.6875 C-22.71099243 605.98874756 -22.71099243 605.98874756 -24.07397461 605.27587891 C-32.47983232 601.02005813 -41.18252445 597.80016698 -50.04272461 594.62963867 C-60.30331972 590.95070649 -70.17314843 586.70615472 -80 582 C-80.8254834 581.60844727 -81.6509668 581.21689453 -82.50146484 580.81347656 C-100.04717861 572.44681728 -116.4345839 562.64042593 -132 551 C-132.80896729 550.39937744 -132.80896729 550.39937744 -133.63427734 549.78662109 C-145.03297998 541.29487832 -156.16629384 532.28640875 -166 522 C-168.47634202 519.50319234 -170.96833967 517.03032882 -173.5078125 514.59765625 C-180.75299065 507.57956578 -186.96055107 500.06745577 -193 492 C-193.62406738 491.18305664 -193.62406738 491.18305664 -194.26074219 490.34960938 C-230.73657782 442.50580911 -238.20270061 388.07425737 -238.11606562 329.66094446 C-238.11167556 325.93396174 -238.1132135 322.20698031 -238.1139679 318.47999573 C-238.1144878 312.04972029 -238.11139735 305.61945513 -238.10573006 299.18918228 C-238.0975419 289.89252126 -238.09499241 280.59586512 -238.09374207 271.29920088 C-238.09156293 256.20955559 -238.08493398 241.11991577 -238.07543945 226.03027344 C-238.0662357 211.38737007 -238.05916943 196.74446819 -238.05493164 182.1015625 C-238.05453756 180.7436819 -238.05453756 180.7436819 -238.05413551 179.35836937 C-238.05283031 174.8161816 -238.05156664 170.27399382 -238.05032361 165.73180604 C-238.03998651 128.15453351 -238.02239949 90.57726718 -238 53 C-236.07472728 53.15800635 -234.14951122 53.31670309 -232.22431946 53.47569275 C-230.61615341 53.60814345 -230.61615341 53.60814345 -228.97549915 53.74326992 C-225.78072096 54.01891969 -222.60096271 54.36573626 -219.41796875 54.75390625 C-156.56944683 61.94483264 -94.30600587 53.99622917 -38 24 C-36.93821533 23.4440918 -36.93821533 23.4440918 -35.85498047 22.87695312 C-24.83842016 17.08814198 -14.63457204 10.54934559 -4.61547852 3.16992188 C-3.10384356 2.07520301 -1.55293882 1.03529255 0 0 Z " fill="#D93747" transform="translate(390,59)"/>
<path d="M0 0 C111.87 0 223.74 0 339 0 C339.0928125 51.5728125 339.0928125 51.5728125 339.1875 104.1875 C339.21481201 115.01199951 339.24212402 125.83649902 339.27026367 136.98901367 C339.28381348 150.28771973 339.28381348 150.28771973 339.28633118 156.52900696 C339.28910693 160.85396517 339.30027209 165.178811 339.31672668 169.5037384 C339.33752604 175.04529866 339.34343299 180.58669892 339.33921683 186.12829459 C339.34009656 188.14652139 339.34591257 190.16475463 339.35764539 192.18294752 C339.45095994 209.03701001 338.32808659 226.12423692 333.5 242.375 C333.13140869 243.63654907 333.13140869 243.63654907 332.75537109 244.92358398 C328.01999592 260.17003587 320.65733076 275.26246994 311 288 C310.59313965 288.54382324 310.1862793 289.08764648 309.76708984 289.64794922 C301.19145261 301.06412727 292.00903132 311.85524315 281 321 C280.08089844 321.80695313 279.16179687 322.61390625 278.21484375 323.4453125 C265.22689155 334.80358986 251.05423704 344.5848411 236 353 C235.1941748 353.45342773 234.38834961 353.90685547 233.55810547 354.37402344 C222.16178249 360.72204037 210.5772623 366.21690602 198.4375 371 C196.74524292 371.66684814 196.74524292 371.66684814 195.01879883 372.34716797 C191.69608737 373.62021326 188.35964698 374.82804144 185 376 C183.81164551 376.41894531 182.62329102 376.83789062 181.39892578 377.26953125 C173.8214422 379.71857067 168.57050946 380.53515555 161 378 C159.68974854 377.60458008 159.68974854 377.60458008 158.35302734 377.20117188 C121.73320247 365.69594487 87.71431491 346.38624067 59 321 C57.62714844 319.7934375 57.62714844 319.7934375 56.2265625 318.5625 C22.86657909 288.90918141 2.65384488 249.76827268 0 205 C-0.58599083 190.35885954 -0.3614762 175.67780459 -0.30384064 161.02874756 C-0.2865392 155.91043572 -0.28593968 150.79216962 -0.28381348 145.67382812 C-0.26817727 130.78252569 -0.22629363 115.89126012 -0.1875 101 C-0.125625 67.67 -0.06375 34.34 0 0 Z " fill="#FAC601" transform="translate(221,218)"/>
<path d="M0 0 C4.07976016 1.08389668 6.87618187 3.31855477 10.125 5.9375 C18.19908752 12.20362972 27.08014996 17.05612755 36 22 C36.76199707 22.42958008 37.52399414 22.85916016 38.30908203 23.30175781 C95.16290434 55.2520564 160.65362606 62.18887946 224.5402832 54.38891602 C229.35206608 53.84801064 234.17779572 53.43838221 239 53 C239 87.98 239 122.96 239 159 C81.59 159 -75.82 159 -238 159 C-238 124.02 -238 89.04 -238 53 C-224.73684211 54.10526316 -224.73684211 54.10526316 -219.41796875 54.75390625 C-156.56944683 61.94483264 -94.30600587 53.99622917 -38 24 C-36.93821533 23.4440918 -36.93821533 23.4440918 -35.85498047 22.87695312 C-24.83842016 17.08814198 -14.63457204 10.54934559 -4.61547852 3.16992188 C-3.10384356 2.07520301 -1.55293882 1.03529255 0 0 Z " fill="#013586" transform="translate(390,59)"/>
<path d="M0 0 C6.6 0 13.2 0 20 0 C20.04898438 3.155625 20.09796875 6.31125 20.1484375 9.5625 C20.20253189 12.63725299 20.25980612 15.71193157 20.31738281 18.78662109 C20.35553643 20.9144938 20.39041246 23.042428 20.421875 25.17041016 C20.46782232 28.23882955 20.52576688 31.30683047 20.5859375 34.375 C20.59748871 35.31802979 20.60903992 36.26105957 20.62094116 37.23266602 C20.88443043 49.17181478 24.37710106 60.37710106 33 69 C42.75865955 76.92891088 51.4746591 79.72266529 64 82 C64 70.78 64 59.56 64 48 C70.6 48 77.2 48 84 48 C84.04635135 70.88794758 84.08201661 93.7758838 84.10362434 116.6638689 C84.11392505 127.29179803 84.12796233 137.9196974 84.15087891 148.54760742 C84.1708497 157.81380299 84.18372519 167.079977 84.18817699 176.34619349 C84.19077812 181.24991982 84.19686676 186.15358451 84.21146011 191.05729103 C84.22510235 195.67913683 84.22920928 200.30089598 84.22621536 204.92276001 C84.22676257 206.61294209 84.23070025 208.30312727 84.23841095 209.99329185 C84.33908911 233.21373076 78.74916462 253.46961104 62.25 270.375 C46.76990998 285.45854356 27.90893664 291.32272814 6.79394531 291.38500977 C-12.27571887 291.13105872 -29.19755836 283.15118488 -43 270 C-55.4681507 256.72427556 -64.19847224 239.84904975 -64.12025452 221.40701294 C-64.12110894 220.66276341 -64.12196337 219.91851389 -64.12284368 219.15171134 C-64.12448495 216.66898716 -64.11899935 214.1863312 -64.11352539 211.70361328 C-64.1132432 209.91949973 -64.11340187 208.13538607 -64.1139679 206.35127258 C-64.11425463 201.51499507 -64.1083779 196.67874239 -64.10139394 191.84247065 C-64.09513979 186.78559654 -64.09455497 181.72872186 -64.09336853 176.67184448 C-64.0902613 167.09910285 -64.08205609 157.52637265 -64.07201904 147.95363605 C-64.06083904 137.05406859 -64.05534269 126.15450059 -64.05032361 115.25492883 C-64.03987298 92.83661267 -64.0220837 70.41830746 -64 48 C-57.73 48 -51.46 48 -45 48 C-45 59.22 -45 70.44 -45 82 C-30.91292542 79.06988849 -18.19931412 75.99735496 -9 64 C-2.63859507 53.74241165 -0.74460773 43.74644132 -0.5859375 31.8359375 C-0.56657135 30.91785309 -0.5472052 29.99976868 -0.5272522 29.05386353 C-0.46812855 26.16099944 -0.42134357 23.26809409 -0.375 20.375 C-0.33675817 18.39711938 -0.29770297 16.41925431 -0.2578125 14.44140625 C-0.16097331 9.62769144 -0.08087372 4.81411454 0 0 Z " fill="#023684" transform="translate(381,251)"/>
<path d="M0 0 C3.65896362 1.21965454 4.18306087 2.39874114 6.375 5.5 C18.18380554 20.64560564 36.60478131 26.70059766 55 29 C55 40.88 55 52.76 55 65 C19.03 65 -16.94 65 -54 65 C-54 53.12 -54 41.24 -54 29 C-46.08 27.515 -46.08 27.515 -38 26 C-22.17802693 21.13170059 -9.78719135 13.64560333 0 0 Z " fill="#FAC700" transform="translate(390,324)"/>
<path d="M0 0 C35.97 0 71.94 0 109 0 C109 15.10321448 104.25405503 27.79085858 93.8125 38.8125 C88.64610122 43.71359722 83.50761666 47.14948059 77 50 C76.14664063 50.41121094 75.29328125 50.82242188 74.4140625 51.24609375 C62.87459438 56.02389645 47.42222102 56.14091623 35.6875 51.875 C30.42365469 49.43867003 25.60222259 46.52414289 21 43 C20.07960938 42.32517578 20.07960938 42.32517578 19.140625 41.63671875 C8.48017138 33.26401734 1.63988144 19.36380996 0 6 C0 4.02 0 2.04 0 0 Z " fill="#FAC700" transform="translate(336,468)"/>
<path d="M0 0 C1.08369873 0.26707764 2.16739746 0.53415527 3.28393555 0.80932617 C11.23293645 2.79643118 19.12185864 4.9866419 26.93481445 7.45751953 C33.63721802 9.49223951 38.81257939 9.76042328 46.1875 10.375 C46.1875 27.205 46.1875 44.035 46.1875 61.375 C33.81899544 61.375 33.81899544 61.375 28.92578125 60.31640625 C27.86939453 60.09533203 26.81300781 59.87425781 25.72460938 59.64648438 C24.12842773 59.29553711 24.12842773 59.29553711 22.5 58.9375 C12.15946166 56.72565327 2.4080031 55.18642321 -8.1875 55.125 C-9.06921875 55.104375 -9.9509375 55.08375 -10.859375 55.0625 C-19.28579028 55.01307821 -26.71087882 56.7145611 -33.8125 61.375 C-34.4725 61.375 -35.1325 61.375 -35.8125 61.375 C-35.91393412 53.77623904 -35.98398021 46.17765273 -36.03222656 38.57836914 C-36.05233972 35.99334183 -36.07963386 33.40836 -36.11425781 30.82348633 C-36.16278654 27.10747045 -36.18547235 23.39205622 -36.203125 19.67578125 C-36.23409271 17.94271477 -36.23409271 17.94271477 -36.26568604 16.17463684 C-36.26793192 8.14077674 -36.26793192 8.14077674 -33.92724609 4.20507812 C-31.75006581 2.32097014 -29.75031894 0.87730125 -27.1875 -0.4375 C-26.41148437 -0.85644531 -25.63546875 -1.27539062 -24.8359375 -1.70703125 C-16.47714209 -4.24490841 -8.23350805 -2.10636649 0 0 Z " fill="#FDFDFE" transform="translate(428.8125,111.625)"/>
<path d="M0 0 C3.3562637 2.47023241 5.59700847 4.35030757 6.64978027 8.47969055 C6.87327236 11.82760857 6.84777871 15.08807657 6.72912598 18.44139099 C6.7178064 19.65226883 6.70648682 20.86314667 6.69482422 22.11071777 C6.6501794 25.96346331 6.54982266 29.8124341 6.44787598 33.66404724 C6.40773435 36.28183189 6.3712348 38.8996751 6.33850098 41.51756287 C6.25048217 47.92183707 6.11675787 54.32392249 5.94787598 60.72654724 C5.40083008 60.4515741 4.85378418 60.17660095 4.29016113 59.89329529 C3.57134766 59.53276062 2.85253418 59.17222595 2.11193848 58.80076599 C1.04386963 58.26455627 1.04386963 58.26455627 -0.04577637 57.71751404 C-18.89853374 48.4058394 -44.5147876 53.97376178 -63.96228027 59.17576599 C-67.05212402 59.72654724 -67.05212402 59.72654724 -76.05212402 59.72654724 C-76.05212402 42.89654724 -76.05212402 26.06654724 -76.05212402 8.72654724 C-69.12212402 7.73654724 -69.12212402 7.73654724 -62.05212402 6.72654724 C-58.54047285 5.91893761 -55.09785364 5.07911218 -51.63024902 4.12498474 C-49.76181611 3.62997913 -47.89332482 3.13519382 -46.02478027 2.64060974 C-43.15171576 1.87006358 -40.27981414 1.09549251 -37.40905762 0.31639099 C-34.58967148 -0.44552765 -31.76656245 -1.19220032 -28.94274902 -1.93751526 C-27.67518768 -2.28902145 -27.67518768 -2.28902145 -26.38201904 -2.64762878 C-16.68717087 -5.19072636 -8.71907808 -5.41065447 0 0 Z " fill="#FDFDFE" transform="translate(383.0521240234375,113.27345275878906)"/>
<path d="M0 0 C35.97 0 71.94 0 109 0 C109 12.87 109 25.74 109 39 C73.03 39 37.06 39 0 39 C0 26.13 0 13.26 0 0 Z " fill="#FBC700" transform="translate(336,409)"/>
<path d="M0 0 C1.93786085 0.47770523 3.87527674 0.95721571 5.8125 1.4375 C6.89144531 1.70433594 7.97039062 1.97117187 9.08203125 2.24609375 C11.0740843 2.76077412 13.04811524 3.34937175 15 4 C13 8 13 8 4 19 C17.86 19.33 31.72 19.66 46 20 C46 48.05 46 76.1 46 105 C18.94 105 -8.12 105 -36 105 C-36 76.95 -36 48.9 -36 20 C-26.43 19.67 -16.86 19.34 -7 19 C-6.030625 16.6075 -5.06125 14.215 -4.0625 11.75 C-3.75836182 11.00331055 -3.45422363 10.25662109 -3.14086914 9.48730469 C-1.87763944 6.3488563 -0.76594369 3.29260439 0 0 Z M-23 27 C-23 33.27 -23 39.54 -23 46 C-4.19 46 14.62 46 34 46 C34 39.73 34 33.46 34 27 C15.19 27 -3.62 27 -23 27 Z M-23 53 C-23 59.27 -23 65.54 -23 72 C-4.19 72 14.62 72 34 72 C34 65.73 34 59.46 34 53 C15.19 53 -3.62 53 -23 53 Z M-23 78 C-23 84.6 -23 91.2 -23 98 C-4.19 98 14.62 98 34 98 C34 91.4 34 84.8 34 78 C15.19 78 -3.62 78 -23 78 Z " fill="#231815" transform="translate(95,729)"/>
<path d="M0 0 C2.31 0 4.62 0 7 0 C7 17.82 7 35.64 7 54 C26.63186646 53.39663805 26.63186646 53.39663805 45.02734375 49.9375 C53.19581733 47.88225875 61.49215362 47.79239113 69.875 47.75 C70.88691406 47.729375 71.89882813 47.70875 72.94140625 47.6875 C82.01239523 47.64104167 90.38401973 49.23018936 98.4375 53.5625 C99.21996094 53.97628906 100.00242187 54.39007813 100.80859375 54.81640625 C101.53175781 55.20699219 102.25492187 55.59757812 103 56 C104.33105027 56.67121338 105.66363646 57.3394285 107 58 C107.639375 57.4225 108.27875 56.845 108.9375 56.25 C118.76907935 49.02679884 129.60396169 47.58884499 141.5 47.5625 C143.28253174 47.55778687 143.28253174 47.55778687 145.10107422 47.55297852 C153.10653582 47.65888776 160.32291292 48.649737 168.125 50.4375 C182.05307015 53.79867142 182.05307015 53.79867142 205 54 C205 36.18 205 18.36 205 0 C207.31 0 209.62 0 212 0 C212 20.46 212 40.92 212 62 C180.98 62 149.96 62 118 62 C117.34 63.32 116.68 64.64 116 66 C112.03062052 69.58524598 107.7770336 69.49735226 102.671875 69.359375 C98.73127329 68.82935255 96.87759827 67.72205242 94 65 C94 64.01 94 63.02 94 62 C62.98 62 31.96 62 0 62 C0 41.54 0 21.08 0 0 Z " fill="#F9FAFC" transform="translate(285,135)"/>
<path d="M0 0 C4.29 0 8.58 0 13 0 C12.67 9.57 12.34 19.14 12 29 C27.51 28.67 43.02 28.34 59 28 C59 30.64 59 33.28 59 36 C43.82 36 28.64 36 13 36 C21.87334545 59.66225454 35.25049001 78.55538134 58.3203125 90.16796875 C59.8585853 90.83123212 61.42568429 91.42752156 63 92 C62.08938284 93.42056278 61.17120011 94.83627705 60.25 96.25 C59.48429688 97.43335938 59.48429688 97.43335938 58.703125 98.640625 C56.986175 101.01915206 55.1257829 102.98512751 53 105 C34.75286594 91.54273863 17.29942457 76.15349835 10 54 C9.38125 55.43279297 9.38125 55.43279297 8.75 56.89453125 C-1.4026642 79.84902856 -17.04109643 91.93279948 -38.29296875 104.015625 C-41 105 -41 105 -43.17578125 104.484375 C-45.46483455 102.62176204 -46.63412814 100.59515654 -48 98 C-46.64068359 97.36384766 -46.64068359 97.36384766 -45.25390625 96.71484375 C-37.80812102 93.1572879 -31.31287964 89.38414586 -25 84 C-24.1853125 83.38511719 -23.370625 82.77023437 -22.53125 82.13671875 C-8.67904809 70.44357917 -3.41155196 53.0577598 0 36 C-14.85 36 -29.7 36 -45 36 C-45 33.36 -45 30.72 -45 28 C-30.15 28.33 -15.3 28.66 0 29 C0 19.43 0 9.86 0 0 Z " fill="#231815" transform="translate(558,733)"/>
<path d="M0 0 C1.32 0 2.64 0 4 0 C4.86418094 8.0479691 5.18684027 16.02650579 5.28125 24.1171875 C5.30832031 25.97255379 5.30832031 25.97255379 5.3359375 27.86540222 C5.37419107 30.50231203 5.41107671 33.13919618 5.44555664 35.77615356 C5.53675027 42.72201209 5.64367644 49.66764079 5.75 56.61328125 C5.76035782 57.29798178 5.77071564 57.9826823 5.78138733 58.68813133 C5.94042624 69.14955308 6.17372316 79.60514481 6.5 90.0625 C6.84742571 101.32837542 7.06644402 112.59298825 7.21484375 123.86328125 C7.22376837 124.53754906 7.23269299 125.21181686 7.24188805 125.90651703 C7.28854159 129.44017525 7.33466887 132.97384024 7.38064575 136.50750732 C7.39001789 137.22719444 7.39939003 137.94688156 7.40904617 138.68837738 C7.4279815 140.14352101 7.4468695 141.59866526 7.46570969 143.05381012 C7.69617994 160.75955955 8.00138422 178.4599352 8.5078125 196.16015625 C8.53040445 196.95016525 8.55299641 197.74017426 8.57627296 198.55412292 C8.79663753 206.20882882 9.02701239 213.86318062 9.2714777 221.51715469 C9.38296832 225.0204678 9.49147815 228.52386573 9.59765625 232.02734375 C9.6179357 232.69645279 9.63821514 233.36556183 9.65910912 234.0549469 C10.08296746 248.37253217 10.09110899 262.67699155 10 277 C4.72 277 -0.56 277 -6 277 C-6.0919803 260.17371212 -5.82835955 243.36926745 -5.42714429 226.54806376 C-5.34396337 223.02988625 -5.26429902 219.51162898 -5.18431091 215.99337769 C-4.98013274 207.0371794 -4.77152637 198.08108624 -4.5625 189.125 C-4.30688256 178.1699614 -4.05283899 167.21488953 -3.80371928 156.25970101 C-3.77049563 154.79945091 -3.73720041 153.33920244 -3.70383382 151.8789556 C-3.31817839 134.99210335 -2.9679793 118.10549802 -2.71655273 101.21606445 C-2.70568795 100.48903745 -2.69482317 99.76201045 -2.68362916 99.01295233 C-2.57095438 91.4335823 -2.46552099 83.85416657 -2.36940002 76.27456665 C-2.03205111 50.83202705 -1.08614516 25.42085604 0 0 Z " fill="#FEFDF6" transform="translate(509,232)"/>
<path d="M0 0 C2.0625 0.4375 2.0625 0.4375 4 1 C4.83498132 16.00553399 5.23095866 30.99493211 5.44555664 46.02134132 C5.50158025 49.94263894 5.56176569 53.86386204 5.62304688 57.78507996 C5.7417802 65.42499769 5.8556057 73.06498435 5.96875 80.70498657 C6.14175322 92.37239776 6.31820682 104.03975364 6.5 115.70703125 C6.5204796 117.02559113 6.54095921 118.344151 6.5620594 119.70266724 C6.82731338 136.58318695 7.18719097 153.45171448 7.77685547 170.32397461 C8.17746759 181.83763433 8.36608484 193.35637317 8.5625 204.875 C8.59426834 206.67794022 8.59426834 206.67794022 8.62667847 208.51730347 C9.01819764 231.01325765 9.11010754 253.50135883 9 276 C4.05 276 -0.9 276 -6 276 C-5.44723673 217.01021645 -4.48303344 158.03674307 -3.20298672 99.05838847 C-3.01756843 90.49217928 -2.83917107 81.92583314 -2.66213703 73.35944712 C-2.48816237 64.95087598 -2.31043776 56.54239017 -2.12954998 48.1339649 C-2.02293234 43.17714581 -1.91764951 38.2203084 -1.81594849 33.26338577 C-1.72181021 28.68383988 -1.62300023 24.10441928 -1.52042007 19.52505493 C-1.4836516 17.84837828 -1.44856801 16.17166375 -1.41524887 14.49491501 C-1.36979079 12.22049309 -1.31838975 9.94628414 -1.26538086 7.67202759 C-1.2381041 6.39956995 -1.21082733 5.12711231 -1.182724 3.81609535 C-1 1 -1 1 0 0 Z " fill="#FEFDF8" transform="translate(269,232)"/>
<path d="M0 0 C0 2.97 0 5.94 0 9 C-27.72 8.67 -55.44 8.34 -84 8 C-84 34.73 -84 61.46 -84 89 C-40.935 88.505 -40.935 88.505 3 88 C3 90.97 3 93.94 3 97 C-29.67 96.67 -62.34 96.34 -96 96 C-96 64.65 -96 33.3 -96 1 C-80.345625 0.835 -64.69125 0.67 -48.5625 0.5 C-43.61193604 0.44779297 -38.66137207 0.39558594 -33.56079102 0.34179688 C-27.53503418 0.27832031 -27.53503418 0.27832031 -24.71788025 0.24865723 C-22.74209066 0.22784323 -20.76630129 0.20700834 -18.79051208 0.18615723 C-15.80508474 0.15465509 -12.81965671 0.12321841 -9.83422852 0.09179688 C-8.94783219 0.08242851 -8.06143587 0.07306015 -7.14817905 0.0634079 C-1.11402634 0 -1.11402634 0 0 0 Z " fill="#231815" transform="translate(381,738)"/>
<path d="M0 0 C4.571279 0.54855348 8.67435795 1.41744803 13 3 C11.79310745 6.10343799 10.49403054 9.01193893 9 12 C23.85 12 38.7 12 54 12 C54 14.64 54 17.28 54 20 C41.13 19.505 41.13 19.505 28 19 C28 24.61 28 30.22 28 36 C38.89 36 49.78 36 61 36 C61 38.64 61 41.28 61 44 C51.1 44 41.2 44 31 44 C38.78595014 55.67892521 48.27679305 62.44790729 62 66 C60.54955729 70.10958767 58.48889248 73.43258745 56 77 C41.35169202 72.53803397 32.21589276 64.13662528 25 51 C24.59910156 51.6290625 24.19820313 52.258125 23.78515625 52.90625 C14.59992658 66.73616497 2.87078918 73.79770878 -13 78 C-16 73.25 -16 73.25 -16 71 C-14.76636719 70.5978125 -14.76636719 70.5978125 -13.5078125 70.1875 C-1.86258662 66.09956851 7.2778802 60.25092474 13 49 C13.66 47.02 14.32 45.04 15 43 C5.1 43.33 -4.8 43.66 -15 44 C-15 41.36 -15 38.72 -15 36 C-4.77 36 5.46 36 16 36 C16 30.39 16 24.78 16 19 C8.0974052 18.64839207 8.0974052 18.64839207 1.33984375 22.1171875 C-0.92231299 24.6625859 -2.98602059 27.25514096 -5 30 C-6.32882702 31.67026174 -7.66084226 33.33800959 -9 35 C-12.65316671 33.75023244 -13.78065836 33.32901247 -16 30 C-14.7625 28.7625 -14.7625 28.7625 -13.5 27.5 C-10.20658367 23.67336388 -7.99565002 19.48717958 -5.75 15 C-5.40904297 14.32388672 -5.06808594 13.64777344 -4.71679688 12.95117188 C-2.64505656 8.70472205 -1.16844906 4.57841265 0 0 Z " fill="#231815" transform="translate(317,747)"/>
<path d="M0 0 C2.83106561 2.28311743 4.81263291 4.58768607 6.9375 7.5625 C6.6075 8.5525 6.2775 9.5425 5.9375 10.5625 C3.609375 11.51171875 3.609375 11.51171875 0.6875 12.25 C-0.26640625 12.50136719 -1.2203125 12.75273438 -2.203125 13.01171875 C-5.0625 13.5625 -5.0625 13.5625 -10.0625 13.5625 C-10.0625 19.8325 -10.0625 26.1025 -10.0625 32.5625 C-1.6475 32.0675 -1.6475 32.0675 6.9375 31.5625 C6.9375 34.2025 6.9375 36.8425 6.9375 39.5625 C1.3275 39.5625 -4.2825 39.5625 -10.0625 39.5625 C-8.19760707 46.08962524 -7.1217213 48.12582189 -2.3125 52.125 C-1.22833132 53.06935434 -0.14498935 54.01465866 0.9375 54.9609375 C2.4225 56.24871094 2.4225 56.24871094 3.9375 57.5625 C5.98270887 59.52499822 7.96077637 61.53086738 9.9375 63.5625 C8.38603492 68.21689524 4.88292037 69.74434259 0.9375 72.5625 C-2.3625 67.6125 -5.6625 62.6625 -9.0625 57.5625 C-9.3925 73.7325 -9.7225 89.9025 -10.0625 106.5625 C-14.0225 106.5625 -17.9825 106.5625 -22.0625 106.5625 C-22.0625 92.7025 -22.0625 78.8425 -22.0625 64.5625 C-24.7025 69.8425 -27.3425 75.1225 -30.0625 80.5625 C-32.04437585 84.24312657 -34.02261111 87.91542592 -36.0625 91.5625 C-39.74547866 90.9416378 -41.63938029 90.49575018 -44.0625 87.5625 C-43.48242188 86.90636719 -42.90234375 86.25023437 -42.3046875 85.57421875 C-39.65555998 82.01589589 -37.94903254 78.42704988 -36.1875 74.375 C-35.84380371 73.59342529 -35.50010742 72.81185059 -35.14599609 72.0065918 C-30.60782973 61.46562116 -27.21191439 50.58545038 -24.0625 39.5625 C-29.6725 39.5625 -35.2825 39.5625 -41.0625 39.5625 C-41.0625 36.9225 -41.0625 34.2825 -41.0625 31.5625 C-34.4625 31.8925 -27.8625 32.2225 -21.0625 32.5625 C-21.0625 27.2825 -21.0625 22.0025 -21.0625 16.5625 C-27.0025 17.5525 -32.9425 18.5425 -39.0625 19.5625 C-41.0625 15.5625 -41.0625 15.5625 -40.6875 13.3125 C-40.48125 12.735 -40.275 12.1575 -40.0625 11.5625 C-38.73412109 11.34207031 -38.73412109 11.34207031 -37.37890625 11.1171875 C-30.02722615 9.78608205 -23.04543908 8.06771715 -16 5.5625 C-15.29883057 5.3135498 -14.59766113 5.06459961 -13.87524414 4.80810547 C-10.68933694 3.6410477 -7.72732634 2.39180251 -4.6953125 0.84765625 C-2.0625 -0.4375 -2.0625 -0.4375 0 0 Z " fill="#231815" transform="translate(437.0625,733.4375)"/>
<path d="M0 0 C2.31 0 4.62 0 7 0 C7 16.17 7 32.34 7 49 C19.37082376 48.27934504 19.37082376 48.27934504 31.25 46.0625 C48.73696072 41.81981488 70.11030694 37.52782387 87 46 C90.21469301 48.2109492 91.74671343 50.2401403 93 54 C94.32 54 95.64 54 97 54 C97.0928125 53.13375 97.0928125 53.13375 97.1875 52.25 C98.61012819 48.31041426 101.45323243 46.89614312 104.96875 44.859375 C123.80416161 36.1755164 149.97535361 43.2438384 169 48 C175.93 48.495 175.93 48.495 183 49 C183 33.16 183 17.32 183 1 C185.31 1 187.62 1 190 1 C190 19.48 190 37.96 190 57 C176.90045661 57 165.5487409 56.83332365 153.125 53.375 C136.03379003 49.23867523 114.51235381 50.029692 99.19702148 58.96313477 C97.41015625 59.9296875 97.41015625 59.9296875 94 61 C90.93359375 59.33203125 90.93359375 59.33203125 88 57 C85.02929037 55.73461757 85.02929037 55.73461757 82 54.8125 C81.01 54.48894531 80.02 54.16539062 79 53.83203125 C60.92287913 48.81845476 37.63818265 51.12060578 20 57 C13.4 57 6.8 57 0 57 C0 38.19 0 19.38 0 0 Z " fill="#F2F5F9" transform="translate(296,128)"/>
<path d="M0 0 C20.79 0 41.58 0 63 0 C63 1.98 63 3.96 63 6 C60.91007172 8.00027159 59.14307651 9.39702888 56.75 10.9375 C56.12262939 11.36643555 55.49525879 11.79537109 54.84887695 12.23730469 C49.8384328 15.61167257 44.62947044 18.524176 39.23046875 21.234375 C36.28305581 23.1615603 36.28305581 23.1615603 36 29 C51.51 28.67 67.02 28.34 83 28 C83 30.64 83 33.28 83 36 C67.49 36 51.98 36 36 36 C36.15813387 45.08019116 36.15813387 45.08019116 36.36035156 54.15942383 C36.3703418 55.28888428 36.38033203 56.41834473 36.390625 57.58203125 C36.41157227 58.73936768 36.43251953 59.8967041 36.45410156 61.08911133 C36 64 36 64 34.09716797 65.87402344 C25.66208113 70.40285004 12.688839 65.12015244 4 63 C3.67 60.69 3.34 58.38 3 56 C13.89 56.495 13.89 56.495 25 57 C25 50.07 25 43.14 25 36 C9.16 36 -6.68 36 -23 36 C-23 33.36 -23 30.72 -23 28 C-7.16 28.33 8.68 28.66 25 29 C24.505 23.06 24.505 23.06 24 17 C25.299375 16.979375 26.59875 16.95875 27.9375 16.9375 C34.1911836 16.18079693 34.1911836 16.18079693 42 9 C28.14 8.67 14.28 8.34 0 8 C0 5.36 0 2.72 0 0 Z " fill="#231815" transform="translate(651,772)"/>
<path d="M0 0 C2.29297356 2.41486177 4.20324124 5.14111276 6.1875 7.8125 C6.74630859 8.53759766 7.30511719 9.26269531 7.88085938 10.00976562 C8.40873047 10.71423828 8.93660156 11.41871094 9.48046875 12.14453125 C9.96410889 12.78753174 10.44774902 13.43053223 10.94604492 14.09301758 C12 16 12 16 12 20 C10.02 20.99 10.02 20.99 8 22 C12.23597674 22.82601546 15.79659731 23.0920605 20 22 C23.65501501 18.13411874 25.7786737 13.77371566 28 9 C28.680625 7.58074219 28.680625 7.58074219 29.375 6.1328125 C30.30438694 4.11268672 31.1621287 2.05976696 32 0 C37.05255964 0.63156995 41.29593201 2.13459373 46 4 C44.65018353 7.03708705 43.16083261 9.03741247 40.75 11.3125 C37.16973044 14.70390212 34.2823241 18.17062188 31 22 C38.59 22.33 46.18 22.66 54 23 C54 30.92 54 38.84 54 47 C49.71 47 45.42 47 41 47 C41.33 41.39 41.66 35.78 42 30 C16.92 30 -8.16 30 -34 30 C-33.67 35.61 -33.34 41.22 -33 47 C-37.29 47 -41.58 47 -46 47 C-46 39.08 -46 31.16 -46 23 C-39.07 23 -32.14 23 -25 23 C-26.44375 20.421875 -27.8875 17.84375 -29.375 15.1875 C-29.82665527 14.37949951 -30.27831055 13.57149902 -30.74365234 12.73901367 C-31.2843335 11.77572144 -31.2843335 11.77572144 -31.8359375 10.79296875 C-32.20251465 10.1383667 -32.5690918 9.48376465 -32.94677734 8.80932617 C-33.90206799 7.16823694 -34.9466896 5.5799656 -36 4 C-31.375 1 -31.375 1 -28 1 C-26.4921875 2.43359375 -26.4921875 2.43359375 -24.875 4.4375 C-20.85731179 9.24668139 -16.47372627 13.61757426 -12 18 C-13.32 19.32 -14.64 20.64 -16 22 C-10.72 22.33 -5.44 22.66 0 23 C-2.48775331 14.69539662 -2.48775331 14.69539662 -6.25 6.9375 C-8 4 -8 4 -8 1 C-3.375 -1.125 -3.375 -1.125 0 0 Z " fill="#231815" transform="translate(677,731)"/>
<path d="M0 0 C4.29 0 8.58 0 13 0 C12.67 20.79 12.34 41.58 12 63 C16.62 62.01 21.24 61.02 26 60 C27 62 27 62 27 68 C22.05 68.99 17.1 69.98 12 71 C12.33 82.88 12.66 94.76 13 107 C8.71 107 4.42 107 0 107 C0.33 95.78 0.66 84.56 1 73 C-4.28 74.32 -9.56 75.64 -15 77 C-18.66611672 77.78146172 -22.3206504 78.54421281 -26 79.25 C-26.88171875 79.42273438 -27.7634375 79.59546875 -28.671875 79.7734375 C-30.78052784 80.18600001 -32.8901518 80.59359481 -35 81 C-35.33 78.36 -35.66 75.72 -36 73 C-32.17844214 72.15789669 -28.35558331 71.32198974 -24.53149414 70.49145508 C-22.601684 70.07103643 -20.67289963 69.64591803 -18.74414062 69.22070312 C-17.50986328 68.95322266 -16.27558594 68.68574219 -15.00390625 68.41015625 C-13.87799072 68.16402588 -12.7520752 67.91789551 -11.59204102 67.66430664 C-7.4287882 66.89436095 -3.20795519 66.46755058 1 66 C0.67 44.22 0.34 22.44 0 0 Z " fill="#231815" transform="translate(477,733)"/>
<path d="M0 0 C20.46 0 40.92 0 62 0 C62 14.85 62 29.7 62 45 C41.54 45 21.08 45 0 45 C0 30.15 0 15.3 0 0 Z M12 7 C12 17.23 12 27.46 12 38 C24.21 38 36.42 38 49 38 C49 27.77 49 17.54 49 7 C36.79 7 24.58 7 12 7 Z " fill="#231815" transform="translate(201,791)"/>
<path d="M0 0 C9.17716334 6.23205648 20.40463772 15.10037539 24 26 C25.17393939 32.83019281 23.90628126 38.3123527 20 44 C17.625 46.75 17.625 46.75 15 49 C14.154375 49.763125 13.30875 50.52625 12.4375 51.3125 C7.24123123 53.86339558 2.67626379 53.91213139 -3 53 C-9.97061741 50.46354692 -15.13521143 46.34646705 -20.140625 40.96875 C-22.89091177 38.05668166 -25.92509342 35.56242215 -29 33 C-28.67 32.01 -28.34 31.02 -28 30 C-27.13246094 30.27714844 -26.26492187 30.55429687 -25.37109375 30.83984375 C-21.82911984 31.36907832 -21.82911984 31.36907832 -19.03515625 28.75390625 C-18.02537698 27.70802165 -17.03517101 26.64298132 -16.0625 25.5625 C-15.28144897 24.73794312 -15.28144897 24.73794312 -14.48461914 23.89672852 C-12.96745463 22.28334092 -11.47905049 20.64832075 -10 19 C-8.89785156 17.77410156 -8.89785156 17.77410156 -7.7734375 16.5234375 C-6.63775382 15.23310753 -5.51191528 13.93394556 -4.40234375 12.62109375 C-3 11 -3 11 -1.29296875 9.51171875 C-0.86628906 9.01285156 -0.43960937 8.51398437 0 8 C-0.32326553 4.40320934 -0.32326553 4.40320934 -1 1 C-0.67 0.67 -0.34 0.34 0 0 Z " fill="#FDF7F8" transform="translate(257,535)"/>
<path d="M0 0 C4.29 1.65 8.58 3.3 13 5 C11.53639445 8.65901387 10.14854467 11.64368766 8.171875 14.984375 C7.61886719 15.92023437 7.06585938 16.85609375 6.49609375 17.8203125 C5.63177734 19.27050781 5.63177734 19.27050781 4.75 20.75 C4.18925781 21.70132813 3.62851563 22.65265625 3.05078125 23.6328125 C-0.46948892 29.56767906 -4.15910856 35.23866285 -8 41 C4.21 40.01 16.42 39.02 29 38 C23.64659385 29.89628264 23.64659385 29.89628264 18 22 C18 21.34 18 20.68 18 20 C20.31 19.01 22.62 18.02 25 17 C32.42459415 26.3538194 39.70149983 35.80649995 46.8046875 45.40722656 C47.7886075 46.71831605 48.81122105 48.0002768 49.84375 49.2734375 C51 51 51 51 51 54 C49.35546875 55.38671875 49.35546875 55.38671875 47.1875 56.6875 C46.47980469 57.12449219 45.77210938 57.56148437 45.04296875 58.01171875 C43 59 43 59 40 59 C38.02 55.04 36.04 51.08 34 47 C22.83131925 47.73401337 11.78593372 49.07922263 0.6875 50.5 C-1.11259333 50.7281557 -2.91272337 50.95602205 -4.71289062 51.18359375 C-8.01756402 51.60173198 -11.32201486 52.02154306 -14.6262207 52.44335938 C-18.74993288 52.96939309 -22.87477169 53.48599673 -27 54 C-27.99 49.71 -28.98 45.42 -30 41 C-25.71 41 -21.42 41 -17 41 C-16.34 39.35 -15.68 37.7 -15 36 C-14.27546056 34.3920702 -13.53932466 32.78932631 -12.79296875 31.19140625 C-8.03173314 20.91408271 -3.58273124 10.74819373 0 0 Z " fill="#231815" transform="translate(222,730)"/>
<path d="M0 0 C3 1 3 1 4.203125 3.14453125 C4.54859375 4.02496094 4.8940625 4.90539062 5.25 5.8125 C5.78367187 7.12154297 5.78367187 7.12154297 6.328125 8.45703125 C7.08990019 11.34026176 7.06647239 12.25136303 6 15 C3.95874023 17.38183594 3.95874023 17.38183594 1.30859375 19.984375 C0.45837646 20.82709961 -0.39184082 21.66982422 -1.26782227 22.53808594 C-2.35506592 23.59801758 -3.44230957 24.65794922 -4.5625 25.75 C-8.006875 29.1325 -11.45125 32.515 -15 36 C-4.44 36.66 6.12 37.32 17 38 C22 50 22 50 21 53 C20.01 52.67 19.02 52.34 18 52 C17.67 51.34 17.34 50.68 17 50 C12.2169271 50.55077809 8.1060143 51.52549687 3.62890625 53.28515625 C2.47841797 53.73310547 1.32792969 54.18105469 0.14257812 54.64257812 C-1.03884766 55.11115234 -2.22027344 55.57972656 -3.4375 56.0625 C-5.25024414 56.77116211 -5.25024414 56.77116211 -7.09960938 57.49414062 C-10.0690912 58.65611177 -13.03569469 59.82489989 -16 61 C-16 62.65 -16 64.3 -16 66 C-17.32 66 -18.64 66 -20 66 C-21.00419637 63.5433053 -22.00350501 61.08481647 -23 58.625 C-23.42925781 57.57699219 -23.42925781 57.57699219 -23.8671875 56.5078125 C-26 51.2265625 -26 51.2265625 -26 49 C-24.68 49 -23.36 49 -22 49 C-21.67 49.66 -21.34 50.32 -21 51 C-15.49176156 50.43043084 -10.87318585 48.99728834 -5.75 46.9375 C1.61727689 44 1.61727689 44 5 44 C5 43.34 5 42.68 5 42 C4.39639648 42.00523682 3.79279297 42.01047363 3.17089844 42.01586914 C-18.98908797 42.18272378 -18.98908797 42.18272378 -29 41 C-29 37 -29 37 -27.07226562 34.61816406 C-26.19248047 33.75932617 -25.31269531 32.90048828 -24.40625 32.015625 C-23.94013306 31.55516785 -23.47401611 31.09471069 -22.99377441 30.62030029 C-21.5049818 29.15387258 -20.00288278 27.70197017 -18.5 26.25 C-17.48737217 25.25743702 -16.47564185 24.2639575 -15.46484375 23.26953125 C-12.98688309 20.83563843 -10.49679722 18.41458252 -8 16 C-8.62567871 16.24234375 -9.25135742 16.4846875 -9.89599609 16.734375 C-12.7210098 17.82637063 -15.54796664 18.91324432 -18.375 20 C-19.35984375 20.3815625 -20.3446875 20.763125 -21.359375 21.15625 C-22.30039063 21.5171875 -23.24140625 21.878125 -24.2109375 22.25 C-25.08024902 22.58515625 -25.94956055 22.9203125 -26.84521484 23.265625 C-29 24 -29 24 -31 24 C-30.67 25.98 -30.34 27.96 -30 30 C-30.99 30.33 -31.98 30.66 -33 31 C-33.84212256 29.08717875 -34.67338864 27.16957527 -35.5 25.25 C-35.9640625 24.18265625 -36.428125 23.1153125 -36.90625 22.015625 C-38 19 -38 19 -38 15 C-37.01 15 -36.02 15 -35 15 C-34.01 16.485 -34.01 16.485 -33 18 C-29.00409121 17.32046791 -25.39845512 16.13496661 -21.60546875 14.71484375 C-19.80239258 14.04291992 -19.80239258 14.04291992 -17.96289062 13.35742188 C-16.70439626 12.88419654 -15.4459331 12.41088821 -14.1875 11.9375 C-12.90963459 11.45994011 -11.63164102 10.982723 -10.35351562 10.50585938 C-7.23440005 9.34060488 -4.11663485 8.17186993 -1 7 C-0.67 4.69 -0.34 2.38 0 0 Z " fill="#FDF7F7" transform="translate(209,450)"/>
<path d="M0 0 C0.99 0 1.98 0 3 0 C3.70095687 4.18450008 3.90109162 7.83495427 3 12 C-0.15990395 15.76499194 -3.9076447 18.31936995 -8 21 C-9.37825861 21.97457455 -10.753925 22.95284488 -12.125 23.9375 C-13.548125 24.9584375 -13.548125 24.9584375 -15 26 C-15.33 26.66 -15.66 27.32 -16 28 C-11.05 27.67 -6.1 27.34 -1 27 C-0.67 25.68 -0.34 24.36 0 23 C0.99 23 1.98 23 3 23 C3 29.27 3 35.54 3 42 C2.01 42 1.02 42 0 42 C-0.33 40.35 -0.66 38.7 -1 37 C-12.88 37 -24.76 37 -37 37 C-37.495 39.475 -37.495 39.475 -38 42 C-38.99 42 -39.98 42 -41 42 C-41.11719175 38.16692831 -41.18758077 34.33432392 -41.25 30.5 C-41.28351562 29.42234375 -41.31703125 28.3446875 -41.3515625 27.234375 C-41.44673467 19.43025715 -40.47944067 14.12378154 -35.3125 8 C-31.56846529 6.38095797 -28.00254692 6.36501484 -24 7 C-21 8.625 -21 8.625 -19 11 C-18.60520486 12.98878051 -18.26436547 14.98972091 -18 17 C-15.91382674 15.42029655 -13.83105846 13.83641716 -11.75 12.25 C-11.16347656 11.8065625 -10.57695313 11.363125 -9.97265625 10.90625 C-3.76872206 6.41569371 -3.76872206 6.41569371 0 0 Z " fill="#FDF6F7" transform="translate(613,395)"/>
<path d="M0 0 C0.99 0 1.98 0 3 0 C3.33 1.65 3.66 3.3 4 5 C15.88 4.67 27.76 4.34 40 4 C40.33 2.68 40.66 1.36 41 0 C41.99 0 42.98 0 44 0 C44 6.6 44 13.2 44 20 C43.01 20 42.02 20 41 20 C40.34 18.35 39.68 16.7 39 15 C32.07 14.505 32.07 14.505 25 14 C25 19.61 25 25.22 25 31 C29.95 31 34.9 31 40 31 C40.33 29.35 40.66 27.7 41 26 C41.99 26 42.98 26 44 26 C44 32.27 44 38.54 44 45 C43.01 45 42.02 45 41 45 C40.505 43.02 40.505 43.02 40 41 C28.12 41 16.24 41 4 41 C3.67 42.32 3.34 43.64 3 45 C2.01 45 1.02 45 0 45 C0 38.73 0 32.46 0 26 C0.99 26 1.98 26 3 26 C3.17273438 26.64453125 3.34546875 27.2890625 3.5234375 27.953125 C4.92982628 30.40445882 4.92982628 30.40445882 8.4765625 30.609375 C9.8583958 30.67940656 11.24168799 30.72144205 12.625 30.75 C15.05875 30.8325 17.4925 30.915 20 31 C20 25.39 20 19.78 20 14 C15.05 14.33 10.1 14.66 5 15 C4.01 17.475 4.01 17.475 3 20 C2.01 20 1.02 20 0 20 C0 13.4 0 6.8 0 0 Z " fill="#FDF6F6" transform="translate(165,349)"/>
<path d="M0 0 C0.99 0.33 1.98 0.66 3 1 C3 1.66 3 2.32 3 3 C2.34 3 1.68 3 1 3 C0.52313189 5.6379938 0.62981754 7.40387977 2.05761719 9.703125 C3.61231556 11.68433355 5.22594244 13.59658967 6.875 15.5 C8.06511513 16.91816997 9.25389928 18.33745786 10.44140625 19.7578125 C11.03840332 20.46583008 11.63540039 21.17384766 12.25048828 21.90332031 C14.84067443 25.0074954 17.33928923 28.17727643 19.8125 31.375 C20.62332031 32.41398438 21.43414063 33.45296875 22.26953125 34.5234375 C24 37 24 37 24 39 C15.93697174 39.57962719 8.44781829 37.42188341 0.6875 35.5 C-1.36707252 34.99773371 -3.42222676 34.49809109 -5.47831726 34.0020752 C-7.33098124 33.55416916 -9.18178256 33.09857926 -11.0324707 32.64257812 C-13.98262422 31.89418413 -13.98262422 31.89418413 -17 32 C-16.61666504 32.46897705 -16.23333008 32.9379541 -15.83837891 33.42114258 C-14.09919856 35.55046623 -12.36207968 37.68146237 -10.625 39.8125 C-10.02171875 40.55048828 -9.4184375 41.28847656 -8.796875 42.04882812 C-8.21679688 42.76103516 -7.63671875 43.47324219 -7.0390625 44.20703125 C-6.50490723 44.8616333 -5.97075195 45.51623535 -5.42041016 46.19067383 C-4.20566898 47.73801774 -3.09120531 49.36319204 -2 51 C0.31 50.67 2.62 50.34 5 50 C4.71855013 53.20419855 3.99711793 54.00246392 1.49609375 56.140625 C0.48675781 56.83671875 -0.52257812 57.5328125 -1.5625 58.25 C-2.57441406 58.95640625 -3.58632813 59.6628125 -4.62890625 60.390625 C-5.41136719 60.92171875 -6.19382812 61.4528125 -7 62 C-7.66 61.67 -8.32 61.34 -9 61 C-8.4740625 60.13375 -8.4740625 60.13375 -7.9375 59.25 C-6.80391602 56.52939845 -7.04801177 55.73712505 -8 53 C-9.21957961 51.02846947 -9.21957961 51.02846947 -10.765625 49.1015625 C-11.32636719 48.37453125 -11.88710938 47.6475 -12.46484375 46.8984375 C-13.05394531 46.14820313 -13.64304687 45.39796875 -14.25 44.625 C-14.82363281 43.8825 -15.39726562 43.14 -15.98828125 42.375 C-17.11820731 40.91819329 -18.25583156 39.46732016 -19.40161133 38.02294922 C-20.4140568 36.74158017 -21.41087834 35.44757679 -22.38549805 34.13720703 C-24.74927109 30.98758421 -24.74927109 30.98758421 -28.23828125 29.4140625 C-28.92277344 29.48367188 -29.60726563 29.55328125 -30.3125 29.625 C-32.1378125 29.810625 -32.1378125 29.810625 -34 30 C-33.24556622 25.73418924 -31.45313109 23.72858699 -28.11328125 21.078125 C-23.96146249 18.96000674 -20.26415462 20.78388794 -16 22 C-12.75865126 22.72944664 -9.50411359 23.3926815 -6.25 24.0625 C-4.63019713 24.40749947 -3.01040504 24.75254961 -1.390625 25.09765625 C2.06055814 25.82121975 5.51542328 26.45483235 9 27 C8.31292969 26.18015625 7.62585938 25.3603125 6.91796875 24.515625 C6.00775965 23.42712752 5.09760635 22.33858339 4.1875 21.25 C3.73568359 20.71117187 3.28386719 20.17234375 2.81835938 19.6171875 C0.46489931 16.79990684 -1.83421368 13.964465 -4 11 C-6.31 11.33 -8.62 11.66 -11 12 C-10.66179961 9.00354452 -9.99645313 7.99645948 -7.8203125 5.82421875 C-6.93085938 5.11910156 -6.04140625 4.41398438 -5.125 3.6875 C-3.79855469 2.61048828 -3.79855469 2.61048828 -2.4453125 1.51171875 C-1.63835938 1.01285156 -0.83140625 0.51398437 0 0 Z " fill="#FDF6F7" transform="translate(516,543)"/>
<path d="M0 0 C3.48678721 1.43716025 5.12946498 3.12949655 7.3125 6.17578125 C7.91320312 7.00400391 8.51390625 7.83222656 9.1328125 8.68554688 C9.74898437 9.55244141 10.36515625 10.41933594 11 11.3125 C12.2283374 13.01752482 13.45748185 14.72196855 14.6875 16.42578125 C15.54613647 17.62400513 15.54613647 17.62400513 16.42211914 18.84643555 C17.70509265 20.59749687 19.05958156 22.295989 20.43359375 23.9765625 C22 26 22 26 22.0625 28.0625 C20.53927271 30.84014977 18.61513921 32.25657386 16 34 C15.01 34 14.02 34 13 34 C13.23009766 33.18208984 13.23009766 33.18208984 13.46484375 32.34765625 C14.28469764 28.38389985 14.57424021 26.00116224 12.5078125 22.3984375 C10.75025482 20.17502115 8.94946826 18.05642164 7 16 C3.84669446 16.60694155 1.81111133 17.6416665 -0.75 19.5625 C-1.67039063 20.24505859 -1.67039063 20.24505859 -2.609375 20.94140625 C-3.06828125 21.29074219 -3.5271875 21.64007812 -4 22 C-0.56970569 27.56344685 -0.56970569 27.56344685 4.6875 31 C5.450625 31 6.21375 31 7 31 C7.99 31 8.98 31 10 31 C9.71855013 34.20419855 8.99711793 35.00246392 6.49609375 37.140625 C5.48675781 37.83671875 4.47742188 38.5328125 3.4375 39.25 C2.42558594 39.95640625 1.41367188 40.6628125 0.37109375 41.390625 C-0.41136719 41.92171875 -1.19382813 42.4528125 -2 43 C-2.66 42.67 -3.32 42.34 -4 42 C-3.71125 40.845 -3.4225 39.69 -3.125 38.5 C-2.72220356 35.57057133 -2.82883473 34.31178413 -4.26953125 31.6875 C-5.7646983 29.72662518 -7.37620794 27.85576235 -9 26 C-12.63 28.64 -16.26 31.28 -20 34 C-18.58637352 36.82725296 -17.30269721 39.15383106 -15.5 41.6875 C-15.0771875 42.28949219 -14.654375 42.89148438 -14.21875 43.51171875 C-12.50165136 45.60856035 -11.29104804 45.96135264 -8.6171875 46.31640625 C-7.71226562 46.39761719 -6.80734375 46.47882812 -5.875 46.5625 C-4.96492188 46.64628906 -4.05484375 46.73007812 -3.1171875 46.81640625 C-2.41851562 46.87699219 -1.71984375 46.93757812 -1 47 C-0.67 47.99 -0.34 48.98 0 50 C-1.24735567 50.6509259 -2.49801832 51.29551669 -3.75 51.9375 C-4.79414063 52.47697266 -4.79414063 52.47697266 -5.859375 53.02734375 C-7.90224433 53.95558182 -9.81115376 54.53166578 -12 55 C-17.34993664 48.62330784 -22.5197834 42.12138459 -27.5625 35.5 C-28.09907227 34.80583984 -28.63564453 34.11167969 -29.18847656 33.39648438 C-29.68444336 32.73970703 -30.18041016 32.08292969 -30.69140625 31.40625 C-31.13685791 30.82166016 -31.58230957 30.23707031 -32.04125977 29.63476562 C-33 28 -33 28 -33 25 C-31.87851563 25.30164063 -30.75703125 25.60328125 -29.6015625 25.9140625 C-24.48540409 26.54710544 -21.79403411 24.36844293 -17.8359375 21.35546875 C-17.02382812 20.70191406 -16.21171875 20.04835938 -15.375 19.375 C-14.14523438 18.42947266 -14.14523438 18.42947266 -12.890625 17.46484375 C-10.57046344 15.67063522 -8.28501086 13.83860403 -6 12 C-5.04589233 11.27586914 -5.04589233 11.27586914 -4.07250977 10.53710938 C-2.2270074 9.14693137 -2.2270074 9.14693137 0 7 C-0.06129214 3.79320551 -0.06129214 3.79320551 -1 1 C-0.67 0.67 -0.34 0.34 0 0 Z " fill="#FDF5F6" transform="translate(231,503)"/>
<path d="M0 0 C7.75 0.875 7.75 0.875 10 2 C10 2.99 10 3.98 10 5 C8.58847656 5.25910156 8.58847656 5.25910156 7.1484375 5.5234375 C3.65549678 6.73254868 3.65549678 6.73254868 2.5390625 10.4765625 C2.20810995 11.85332511 1.90417438 13.23681178 1.625 14.625 C1.46128906 15.33140625 1.29757812 16.0378125 1.12890625 16.765625 C0.7292695 18.50522026 0.361492 20.25207988 0 22 C4.29 22.66 8.58 23.32 13 24 C13.33 19.71 13.66 15.42 14 11 C13.01 10.67 12.02 10.34 11 10 C11 8.68 11 7.36 11 6 C16.46864457 7.01591421 21.76390013 8.07091057 27 10 C27 10.99 27 11.98 27 13 C26.0925 13.103125 25.185 13.20625 24.25 13.3125 C20.28671984 15.370357 20.08683133 16.52871725 18.625 20.625 C18.06069675 22.40966637 17.51182473 24.19958125 17 26 C17.56847656 26.12117188 18.13695312 26.24234375 18.72265625 26.3671875 C23.54245464 27.41322054 28.2732934 28.59204484 33 30 C33.2391811 28.12071995 33.47512526 26.24097503 33.6953125 24.359375 C33.89918968 22.78063376 34.14447219 21.20671632 34.4296875 19.640625 C35.32599823 14.63167509 35.32599823 14.63167509 33.0625 10.1875 C32.381875 9.465625 31.70125 8.74375 31 8 C31 6.68 31 5.36 31 4 C34.7910119 5.44950455 38.3874638 7.15172566 42 9 C41.5630538 18.03022141 39.15084471 26.27389004 36.61767578 34.89599609 C35.72818736 37.92588196 34.86484147 40.96299856 34 44 C33.01 44 32.02 44 31 44 C30.67 42.35 30.34 40.7 30 39 C26.02421262 37.84221824 22.0438523 36.70098407 18.0625 35.5625 C16.94552734 35.23701172 15.82855469 34.91152344 14.67773438 34.57617188 C8.41627574 32.79505314 2.49474322 31.48899975 -4 31 C-4.99 32.485 -4.99 32.485 -6 34 C-6.99 34 -7.98 34 -9 34 C-7.54074519 27.38606271 -6.04450303 20.78205989 -4.5 14.1875 C-4.28730469 13.26001953 -4.07460938 12.33253906 -3.85546875 11.37695312 C-3.64535156 10.48298828 -3.43523438 9.58902344 -3.21875 8.66796875 C-3.03248047 7.86641357 -2.84621094 7.0648584 -2.65429688 6.23901367 C-1.99623518 3.98711673 -1.11392228 2.05975533 0 0 Z " fill="#FDF6F7" transform="translate(571,444)"/>
<path d="M0 0 C0.99 0.33 1.98 0.66 3 1 C3.12060791 2.93033081 3.12060791 2.93033081 3.24365234 4.8996582 C3.54403211 9.66930847 3.85616532 14.43812904 4.171875 19.20678711 C4.30692679 21.27168346 4.43878046 23.33679155 4.56738281 25.40209961 C4.75267676 28.36894081 4.94941981 31.33483301 5.1484375 34.30078125 C5.20373627 35.2258699 5.25903503 36.15095856 5.31600952 37.1040802 C5.37592072 37.96474594 5.43583191 38.82541168 5.49755859 39.7121582 C5.54641205 40.46938675 5.5952655 41.2266153 5.64559937 42.00679016 C5.9180345 44.31090206 5.9180345 44.31090206 8 47 C8 47.99 8 48.98 8 50 C2.23955788 49.39363767 -2.72014369 47.24341721 -8 45 C-8 43.68 -8 42.36 -8 41 C-6.68 41.33 -5.36 41.66 -4 42 C-4 38.37 -4 34.74 -4 31 C-4.886875 30.87625 -5.77375 30.7525 -6.6875 30.625 C-10 30 -10 30 -12.5625 28.875 C-15.62839044 27.77442394 -16.98022644 27.76111854 -20 29 C-22.33414647 31.95849927 -22.33414647 31.95849927 -24 35 C-23.01 35.33 -22.02 35.66 -21 36 C-21 36.99 -21 37.98 -21 39 C-25.83628305 38.00956295 -30.47618873 37.04301154 -35 35 C-35 34.01 -35 33.02 -35 32 C-33.9790625 31.63261719 -32.958125 31.26523437 -31.90625 30.88671875 C-27.55542555 29.01660834 -24.72189643 26.21330964 -21.5 22.8125 C-20.649823 21.93911987 -20.649823 21.93911987 -19.7824707 21.0480957 C-16.27639597 17.42120863 -12.89706028 13.70203209 -9.6328125 9.85546875 C-6.59514691 6.40357604 -3.28818715 3.21132043 0 0 Z " fill="#FDF6F7" transform="translate(365,602)"/>
<path d="M0 0 C0 0.66 0 1.32 0 2 C-0.99 2.66 -1.98 3.32 -3 4 C-2.41888853 7.72910833 -1.37742823 10.46849093 0.50390625 13.73046875 C0.99697266 14.61669922 1.49003906 15.50292969 1.99804688 16.41601562 C3.03361835 18.25056734 4.08037189 20.07885571 5.13867188 21.90039062 C8.50087683 28.00347564 10.22060319 33.00385977 9 40 C6.31195318 45.72182314 0.9771369 49.17762535 -4.80078125 51.375 C-9.47019613 52.70200956 -12.63945813 52.61085553 -17.0625 50.625 C-21.16130084 46.9622418 -23.3673578 42.78097759 -26 38 C-26.71562802 36.76641276 -27.43455463 35.53473496 -28.15625 34.3046875 C-28.89617677 33.03665868 -29.63576257 31.76843082 -30.375 30.5 C-30.73319824 29.88850098 -31.09139648 29.27700195 -31.46044922 28.64697266 C-34 24.22847654 -34 24.22847654 -34 22 C-35.98 22.33 -37.96 22.66 -40 23 C-40 21.68 -40 20.36 -40 19 C-37.73595458 17.63319847 -35.46498979 16.28155555 -33.1875 14.9375 C-32.54490234 14.54755859 -31.90230469 14.15761719 -31.24023438 13.75585938 C-29.5371085 12.75869241 -27.77054142 11.87187313 -26 11 C-25.01 11.33 -24.02 11.66 -23 12 C-23.33 12.5775 -23.66 13.155 -24 13.75 C-25.27075898 16.19883862 -25.27075898 16.19883862 -25 20 C-24.16482668 22.17627033 -24.16482668 22.17627033 -22.953125 24.37109375 C-22.52 25.19287109 -22.086875 26.01464844 -21.640625 26.86132812 C-21.18171875 27.71146484 -20.7228125 28.56160156 -20.25 29.4375 C-19.8065625 30.28376953 -19.363125 31.13003906 -18.90625 32.00195312 C-15.53179453 38.40357224 -15.53179453 38.40357224 -11 44 C-6.22995659 44.69242566 -3.94706512 44.38897318 0.5 42.5625 C3.14895643 39.84731966 3.39148021 39.55749108 3.48046875 36.02734375 C3.30284069 29.95062654 0.6699462 25.24537621 -2.1875 20 C-2.67025391 19.04738281 -3.15300781 18.09476563 -3.65039062 17.11328125 C-5.57978126 13.39289609 -5.57978126 13.39289609 -8 10 C-10.46853926 9.22325816 -10.46853926 9.22325816 -13 9 C-13.99 8.67 -14.98 8.34 -16 8 C-16 7.34 -16 6.68 -16 6 C-13.9021477 4.79994469 -11.7979751 3.61497017 -9.6875 2.4375 C-8.79514648 1.92413086 -8.79514648 1.92413086 -7.88476562 1.40039062 C-3.33984375 -1.11328125 -3.33984375 -1.11328125 0 0 Z " fill="#FDF5F6" transform="translate(479,575)"/>
<path d="M0 0 C3.42949055 2.01698455 6.20893285 4.4178657 8 8 C8.09683564 9.76867455 8.12979382 11.54118303 8.125 13.3125 C8.12886719 14.72982422 8.12886719 14.72982422 8.1328125 16.17578125 C8.005363 18.88595736 7.60596226 21.35973585 7 24 C7.66 24 8.32 24 9 24 C8.67 25.32 8.34 26.64 8 28 C6.43883181 28.33951619 4.87598662 28.67132544 3.3125 29 C2.44238281 29.185625 1.57226562 29.37125 0.67578125 29.5625 C-1.93712964 29.98972047 -4.35813038 30.07616201 -7 30 C-6.875 28.25 -6.875 28.25 -6 26 C-4.00669158 24.65668346 -2.00615134 23.32405988 0 22 C2.74842261 18.71962462 3.04260569 17.51978938 2.6875 13.1875 C2.460625 12.135625 2.23375 11.08375 2 10 C-1.30567489 9.14612895 -1.30567489 9.14612895 -5 9 C-9.60989165 12.64987492 -12.03423781 17.98044436 -14.90234375 23.00390625 C-17.07907132 26.112938 -18.57480331 27.44846106 -22 29 C-28.52661871 29.82877698 -28.52661871 29.82877698 -31.8125 27.98046875 C-34.50568545 25.8375736 -35.90448683 24.2865395 -37 21 C-37.09329934 19.35628509 -37.12995144 17.70885323 -37.125 16.0625 C-37.12757813 15.20785156 -37.13015625 14.35320312 -37.1328125 13.47265625 C-37.00930254 11.17319148 -36.64420687 9.20359652 -36 7 C-36.66 7 -37.32 7 -38 7 C-37.67 5.68 -37.34 4.36 -37 3 C-32.05 2.67 -27.1 2.34 -22 2 C-22.33 3.32 -22.66 4.64 -23 6 C-25.9375 7.625 -25.9375 7.625 -29 9 C-31.21370051 10.78657757 -31.21370051 10.78657757 -31.1953125 13.1640625 C-31.17210937 13.97617187 -31.14890625 14.78828125 -31.125 15.625 C-31.10695313 16.44226563 -31.08890625 17.25953125 -31.0703125 18.1015625 C-31.04710937 18.72804688 -31.02390625 19.35453125 -31 20 C-28.16848027 20.41809201 -28.16848027 20.41809201 -25 20 C-21.07149351 15.76989557 -18.54042069 10.77140316 -15.78125 5.7421875 C-11.76625699 -0.43878858 -7.03907182 -1.37110755 0 0 Z " fill="#FDF6F7" transform="translate(609,360)"/>
<path d="M0 0 C2.33314093 1.34696796 3.7803012 2.53830981 5.6875 4.5 C7.41290059 6.53165183 7.41290059 6.53165183 10.25 6.5 C11.36375 6.37625 11.36375 6.37625 12.5 6.25 C13.66161779 9.11578759 13.4946154 10.26630163 12.50390625 13.265625 C11.79041016 14.86664062 11.79041016 14.86664062 11.0625 16.5 C10.58941406 17.57765625 10.11632812 18.6553125 9.62890625 19.765625 C9.25636719 20.58546875 8.88382812 21.4053125 8.5 22.25 C7.18 21.92 5.86 21.59 4.5 21.25 C4.49613281 20.14591797 4.49613281 20.14591797 4.4921875 19.01953125 C4.37137911 13.48342924 4.37137911 13.48342924 2.37890625 8.44140625 C-0.81163303 5.5275533 -4.33412713 4.33216708 -8.546875 4.05078125 C-13.04963991 4.51006327 -15.76167649 7.44839161 -18.6875 10.625 C-23.24684655 17.22819156 -24.37584877 22.28220909 -23.5 30.25 C-22.14619649 33.86014269 -21.12204683 34.87219803 -17.84375 36.86328125 C-14.00364167 38.45584954 -11.26198884 38.55458459 -7.125 38.4375 C-5.25714844 38.39689453 -5.25714844 38.39689453 -3.3515625 38.35546875 C-1.94003906 38.30326172 -1.94003906 38.30326172 -0.5 38.25 C-0.5 39.57 -0.5 40.89 -0.5 42.25 C-7.65683692 44.36412616 -15.88956587 44.59849001 -22.5625 41.0625 C-25.91417963 38.88115092 -28.33792741 36.65942217 -30.5 33.25 C-31.0775 32.363125 -31.655 31.47625 -32.25 30.5625 C-34.58115067 24.38495073 -34.34037854 18.59362591 -31.8125 12.5 C-28.74934567 6.44840242 -25.19983192 1.7926465 -18.87109375 -1.0546875 C-12.60960222 -2.89084152 -5.93735205 -2.79144164 0 0 Z " fill="#FDF5F6" transform="translate(330.5,585.75)"/>
<path d="M0 0 C5.57968595 2.81488645 9.7004223 7.32387881 12.4296875 12.91796875 C14.53237786 19.53643698 13.21183382 26.76716327 12.25 33.5 C12.745 35.48 12.745 35.48 13.25 37.5 C7.97 37.5 2.69 37.5 -2.75 37.5 C-2.42 36.18 -2.09 34.86 -1.75 33.5 C0.25 32.5 2.25 31.5 4.25 30.5 C7.4434102 26.88080177 7.83131077 23.32703668 7.66796875 18.65234375 C6.97484124 15.08306099 5.10371539 13.59272462 2.25 11.5 C-1.92309131 9.41345435 -5.54864816 9.17171553 -10.1875 9.125 C-11.46496094 9.09664063 -12.74242187 9.06828125 -14.05859375 9.0390625 C-19.2152043 9.68295673 -22.32703497 11.79244196 -25.625 15.75 C-27.44754597 20.20511238 -27.70175421 24.22979841 -25.84765625 28.65234375 C-25.1420306 30.00081697 -24.40325539 31.33272358 -23.625 32.640625 C-22.75 34.5 -22.75 34.5 -22.75 38.5 C-26.10066172 37.114012 -27.58371851 35.7243823 -29.4375 32.625 C-29.85386719 31.94695312 -30.27023438 31.26890625 -30.69921875 30.5703125 C-33.51209806 25.02820828 -33.76803948 18.80242074 -31.94921875 12.90234375 C-29.04766547 6.29158834 -25.14779967 2.74682343 -18.75 -0.5 C-12.66727478 -2.52757507 -5.98065751 -2.33266195 0 0 Z " fill="#FDF5F6" transform="translate(196.75,303.5)"/>
<path d="M0 0 C0.99 0 1.98 0 3 0 C3.37125 0.680625 3.7425 1.36125 4.125 2.0625 C6.92644766 6.45143466 10.82527217 8.97573347 15 12 C15.59554687 12.51433594 16.19109375 13.02867187 16.8046875 13.55859375 C23.28900225 18.64517843 31.19591912 17.42619374 39 17 C39.33 15.35 39.66 13.7 40 12 C41.32 12 42.64 12 44 12 C44 18.6 44 25.2 44 32 C42.02 32.495 42.02 32.495 40 33 C39.67 31.35 39.34 29.7 39 28 C27.38851665 26.62676281 20.47785805 28.36085541 11.109375 35.421875 C6.02055493 39.43218745 6.02055493 39.43218745 3 45 C2.01 45 1.02 45 0 45 C0 38.4 0 31.8 0 25 C0.99 25 1.98 25 3 25 C3 26.32 3 27.64 3 29 C7.9335117 26.64593858 12.51978158 24.13615289 17 21 C13.28725335 16.4434473 8.20992598 14.42599607 3 12 C3 13.32 3 14.64 3 16 C2.01 16 1.02 16 0 16 C0 10.72 0 5.44 0 0 Z " fill="#FDF4F5" transform="translate(573,241)"/>
<path d="M0 0 C0.66 0 1.32 0 2 0 C2.21785156 0.99773437 2.43570313 1.99546875 2.66015625 3.0234375 C3.97817104 7.60713609 6.52514399 10.91103609 9.4375 14.625 C10.22906494 15.65898926 10.22906494 15.65898926 11.03662109 16.71386719 C15.03608516 21.89160649 19.20179504 26.92452851 23.52124023 31.83837891 C25.77733533 34.4256167 27.65521692 36.82691633 29 40 C28 41 28 41 24.03125 41.125 C19.14051002 41.07091599 14.35303371 40.56952798 9.5 40 C0.29279581 38.9917731 -8.74893652 38.80903768 -18 39 C-19.32 39 -20.64 39 -22 39 C-20.57250019 35.20950293 -18.83763458 31.72877544 -16.875 28.1875 C-16.33617187 27.21167969 -15.79734375 26.23585938 -15.2421875 25.23046875 C-14.83226562 24.49441406 -14.42234375 23.75835937 -14 23 C-13.01 23 -12.02 23 -11 23 C-11.33 24.98 -11.66 26.96 -12 29 C-3.31238511 29.65655389 5.28217363 30.16311941 14 30 C13.24074219 29.03578125 12.48148438 28.0715625 11.69921875 27.078125 C10.69528885 25.80210194 9.69138391 24.52605924 8.6875 23.25 C8.18798828 22.61578125 7.68847656 21.9815625 7.17382812 21.328125 C4.74794301 18.24355585 2.33433646 15.15493938 0 12 C-1.98 12.66 -3.96 13.32 -6 14 C-6 9.88262122 -5.55544829 8.72817626 -3.5625 5.3125 C-3.11003906 4.52488281 -2.65757812 3.73726563 -2.19140625 2.92578125 C-1 1 -1 1 0 0 Z " fill="#FDF5F6" transform="translate(561,481)"/>
<path d="M0 0 C2.31 0 4.62 0 7 0 C10.63 7.92 14.26 15.84 18 24 C20.25615711 20.99179052 21.84923486 18.53921249 23.48046875 15.234375 C23.92197266 14.34492187 24.36347656 13.45546875 24.81835938 12.5390625 C25.49608398 11.15847656 25.49608398 11.15847656 26.1875 9.75 C26.88262695 8.34621094 26.88262695 8.34621094 27.59179688 6.9140625 C28.73150684 4.6111434 29.86743129 2.30643726 31 0 C32.98 0 34.96 0 37 0 C37 12.21 37 24.42 37 37 C35.35 37 33.7 37 32 37 C31.67 28.09 31.34 19.18 31 10 C27.04 17.92 23.08 25.84 19 34 C15 33 15 33 13.62792969 30.95874023 C13.22993164 30.08419189 12.83193359 29.20964355 12.421875 28.30859375 C12.02581055 27.45837646 11.62974609 26.60815918 11.22167969 25.73217773 C10.73602539 24.64493408 10.25037109 23.55769043 9.75 22.4375 C8.1825 18.993125 6.615 15.54875 5 12 C4.67 20.25 4.34 28.5 4 37 C2.68 37 1.36 37 0 37 C0 24.79 0 12.58 0 0 Z " fill="#231815" transform="translate(214,859)"/>
<path d="M0 0 C4.50156154 2.01031274 6.96727048 4.49264323 9 9 C9.89750891 14.22396211 9.80899532 19.17983474 7.3125 23.9375 C3.91725495 28.43390561 0.46757351 31.43783614 -5 33 C-11.09060046 33.67673338 -14.07866005 32.31244035 -19 29 C-20.9375 27.25 -20.9375 27.25 -22 26 C-20.69230402 23.16149404 -19.26739654 20.9523779 -17.1875 18.625 C-16.58164063 17.94695313 -15.97578125 17.26890625 -15.3515625 16.5703125 C-10.26886897 11.01481027 -5.13959098 5.50284026 0 0 Z " fill="#D93849" transform="translate(264,548)"/>
<path d="M0 0 C6.27 0 12.54 0 19 0 C19 0.99 19 1.98 19 3 C17.68 3.33 16.36 3.66 15 4 C15 15.22 15 26.44 15 38 C24.46961839 38.41865958 24.46961839 38.41865958 33 36 C34.53146378 32.99405579 34.53146378 32.99405579 35 30 C36.32 30 37.64 30 39 30 C38.69240822 31.97993541 38.3787932 33.95893599 38.0625 35.9375 C37.88847656 37.03964844 37.71445312 38.14179687 37.53515625 39.27734375 C37 42 37 42 36 43 C28.53589424 44.32099892 21.05796305 44.11242557 13.5 44.0625 C12.200625 44.05798828 10.90125 44.05347656 9.5625 44.04882812 C6.37495175 44.0371092 3.18750045 44.02070219 0 44 C0 43.01 0 42.02 0 41 C1.98 40.505 1.98 40.505 4 40 C4 28.45 4 16.9 4 5 C2.68 4.67 1.36 4.34 0 4 C0 2.68 0 1.36 0 0 Z " fill="#FCF4F5" transform="translate(383,609)"/>
<path d="M0 0 C3.96 0 7.92 0 12 0 C12 1.32 12 2.64 12 4 C11.030625 4.309375 10.06125 4.61875 9.0625 4.9375 C6.15934208 5.69523342 6.15934208 5.69523342 5 7 C4.67 9.64 4.34 12.28 4 15 C21.325 14.505 21.325 14.505 39 14 C39.66 12.35 40.32 10.7 41 9 C41.99 9.33 42.98 9.66 44 10 C44 16.27 44 22.54 44 29 C42.68 29 41.36 29 40 29 C39.505 26.03 39.505 26.03 39 23 C27.45 23 15.9 23 4 23 C4.85292115 31.76276504 4.85292115 31.76276504 9.125 34.0625 C10.07375 34.371875 11.0225 34.68125 12 35 C12 35.99 12 36.98 12 38 C8.04 38 4.08 38 0 38 C0 25.46 0 12.92 0 0 Z " fill="#FEF9FA" transform="translate(573,290)"/>
<path d="M0 0 C1.98 0 3.96 0 6 0 C6 12.87 6 25.74 6 39 C3 39 0 39 -3 39 C-3.99 39.495 -3.99 39.495 -5 40 C-9.13577752 40.39767092 -11.50429983 40.24785009 -15.25 38.375 C-18.86768935 35.25063192 -20.65953628 32.63386513 -21.28125 27.82421875 C-21.48302306 22.8219284 -20.84020934 19.26031401 -18 15 C-15.11421743 11.90045576 -12.13129628 11.47129114 -8.09765625 10.91796875 C-6 11 -6 11 -1 13 C-0.67 8.71 -0.34 4.42 0 0 Z M-14 18 C-15.44856996 22.34570989 -15.51341157 26.45883847 -15 31 C-13.60308883 34.20868551 -13.60308883 34.20868551 -11 36 C-8 36.75 -8 36.75 -5 36 C-2.15219381 33.76793569 -1.15002334 32.45007001 0 29 C0.37288316 23.96607729 0.03052983 21.07955939 -3 17 C-4.81493293 14.77918788 -4.81493293 14.77918788 -7.375 14.6875 C-10.4864336 15.05790876 -11.76112076 15.84108073 -14 18 Z " fill="#231815" transform="translate(316,857)"/>
<path d="M0 0 C2.9375 0.8125 2.9375 0.8125 6 2 C7.26099542 5.78298626 6.53852555 6.76810935 5.0078125 10.3828125 C4.5540625 11.46054932 4.1003125 12.53828613 3.6328125 13.64868164 C3.13523438 14.7958667 2.63765625 15.94305176 2.125 17.125 C1.37476563 18.8718811 1.37476563 18.8718811 0.609375 20.65405273 C-2.39529502 27.55993217 -5.51805806 34.38348887 -9 41.0625 C-9.36077637 41.7632666 -9.72155273 42.4640332 -10.09326172 43.18603516 C-12.62376267 47.87458756 -12.62376267 47.87458756 -16 49 C-18.26171875 47.78515625 -18.26171875 47.78515625 -20.6875 46.0625 C-21.49574219 45.49660156 -22.30398437 44.93070313 -23.13671875 44.34765625 C-24.05904297 43.68056641 -24.05904297 43.68056641 -25 43 C-23.63414722 39.928677 -21.84278658 37.36450746 -19.82617188 34.68530273 C-11.98797434 24.2318488 -4.44290543 12.34420885 0 0 Z " fill="#231815" transform="translate(188,788)"/>
<path d="M0 0 C0.99 0 1.98 0 3 0 C3.66 1.65 4.32 3.3 5 5 C16.22 5 27.44 5 39 5 C39.66 3.35 40.32 1.7 41 0 C41.99 0 42.98 0 44 0 C44 6.93 44 13.86 44 21 C43.01 21 42.02 21 41 21 C40.67 19.35 40.34 17.7 40 16 C28.12 15.67 16.24 15.34 4 15 C3.67 16.98 3.34 18.96 3 21 C2.01 21 1.02 21 0 21 C0 14.07 0 7.14 0 0 Z " fill="#FDF6F7" transform="translate(165,402)"/>
<path d="M0 0 C0.99 0 1.98 0 3 0 C3.66 1.65 4.32 3.3 5 5 C16.55 5.33 28.1 5.66 40 6 C40.33 4.02 40.66 2.04 41 0 C41.99 0 42.98 0 44 0 C44 6.93 44 13.86 44 21 C43.01 21 42.02 21 41 21 C40.67 19.35 40.34 17.7 40 16 C28.12 15.67 16.24 15.34 4 15 C3.67 16.98 3.34 18.96 3 21 C2.01 21 1.02 21 0 21 C0 14.07 0 7.14 0 0 Z " fill="#FDF7F7" transform="translate(165,275)"/>
<path d="M0 0 C-0.27714844 1.20527344 -0.55429687 2.41054688 -0.83984375 3.65234375 C-1.29743746 7.37121358 -1.18507523 7.75763192 1.24609375 10.94140625 C2.2881747 11.84090067 3.35355619 12.71391958 4.4375 13.5625 C4.98792969 14.02720703 5.53835938 14.49191406 6.10546875 14.97070312 C7.21001997 15.90105526 8.32308025 16.82140826 9.44482422 17.73095703 C11.52020088 19.42449045 13.506789 21.21102694 15.5 23 C17.91833185 25.12134373 20.33544466 27.1926889 23 29 C25.02919843 28.74276031 25.02919843 28.74276031 27 28 C28.32 28 29.64 28 31 28 C29.3383196 32.12417063 26.37661982 35.06554039 23.375 38.25 C22.6015625 39.08144531 22.6015625 39.08144531 21.8125 39.9296875 C20.54574965 41.2902712 19.27342185 42.64565837 18 44 C17.01 43.67 16.02 43.34 15 43 C15.309375 41.989375 15.61875 40.97875 15.9375 39.9375 C16.37524024 36.18400858 16.37524024 36.18400858 14.7890625 34.22265625 C12.93512088 32.37290906 11.00938751 30.67948807 9 29 C7.6875 27.83333333 6.375 26.66666667 5.0625 25.5 C4.39863281 24.9328125 3.73476563 24.365625 3.05078125 23.78125 C1.62416556 22.54213238 0.22737114 21.26818396 -1.14453125 19.96875 C-1.83933594 19.3190625 -2.53414062 18.669375 -3.25 18 C-4.18585937 17.1028125 -4.18585937 17.1028125 -5.140625 16.1875 C-6.91894106 14.76259007 -6.91894106 14.76259007 -8.984375 15.3125 C-9.98210938 15.6528125 -9.98210938 15.6528125 -11 16 C-12.32 16 -13.64 16 -15 16 C-13.33481689 11.91633665 -10.45307123 8.93962215 -7.5 5.75 C-7.00113281 5.19570313 -6.50226562 4.64140625 -5.98828125 4.0703125 C-2.24880696 0 -2.24880696 0 0 0 Z " fill="#FDF7F7" transform="translate(537,522)"/>
<path d="M0 0 C6.09304549 3.18756546 11.61114807 6.72709561 17 11 C16.67 11.99 16.34 12.98 16 14 C13.69 13.34 11.38 12.68 9 12 C8.740979 12.55558594 8.48195801 13.11117187 8.21508789 13.68359375 C6.84274745 16.29978144 5.25081407 18.64064761 3.55859375 21.0625 C2.89279297 22.02414062 2.22699219 22.98578125 1.54101562 23.9765625 C0.13739659 25.9940205 -1.26886058 28.0096456 -2.67773438 30.0234375 C-3.34224609 30.98507812 -4.00675781 31.94671875 -4.69140625 32.9375 C-5.60708374 34.25041016 -5.60708374 34.25041016 -6.54125977 35.58984375 C-7.87909928 37.80024571 -8.56049113 39.47639204 -9 42 C-8.01 42.66 -7.02 43.32 -6 44 C-6.33 44.99 -6.66 45.98 -7 47 C-11.15000506 45.51400561 -14.63036482 43.47679376 -18.3125 41.0625 C-19.38113281 40.37285156 -20.44976562 39.68320312 -21.55078125 38.97265625 C-22.35902344 38.32167969 -23.16726563 37.67070313 -24 37 C-24 36.01 -24 35.02 -24 34 C-23.01 34.226875 -22.02 34.45375 -21 34.6875 C-18.06274165 34.66395484 -17.19751592 34.20036667 -15.10546875 32.078125 C-13.3708057 29.689872 -11.73299131 27.26380913 -10.15039062 24.77246094 C-8.89296742 22.83508987 -7.57096872 20.9538617 -6.234375 19.0703125 C-5.30123597 17.73496674 -4.36893507 16.39903488 -3.4375 15.0625 C-2.98334717 14.4243335 -2.52919434 13.78616699 -2.0612793 13.12866211 C-0.63646652 11.09361357 -0.63646652 11.09361357 1 8 C0.63937638 6.01389233 0.63937638 6.01389233 0 4 C0 2.68 0 1.36 0 0 Z " fill="#FDF8F8" transform="translate(291,564)"/>
<path d="M0 0 C2.875 0.3125 2.875 0.3125 3.875 1.3125 C3.91563832 2.97867115 3.917721 4.64638095 3.875 6.3125 C2.225 6.6425 0.575 6.9725 -1.125 7.3125 C-0.795 7.9725 -0.465 8.6325 -0.125 9.3125 C11.095 9.3125 22.315 9.3125 33.875 9.3125 C34.535 7.6625 35.195 6.0125 35.875 4.3125 C36.865 4.3125 37.855 4.3125 38.875 4.3125 C38.875 11.2425 38.875 18.1725 38.875 25.3125 C37.885 25.3125 36.895 25.3125 35.875 25.3125 C35.215 23.3325 34.555 21.3525 33.875 19.3125 C32.9370459 19.3031543 31.9990918 19.29380859 31.03271484 19.28417969 C27.53213676 19.24000562 24.03275697 19.17832333 20.53271484 19.10498047 C19.02176062 19.07686218 17.51066179 19.05560229 15.99951172 19.04150391 C13.81923897 19.01994551 11.64068781 18.97323684 9.4609375 18.921875 C8.1517334 18.90092773 6.8425293 18.87998047 5.49365234 18.85839844 C1.33181553 18.23055691 -0.857223 16.91377023 -4.125 14.3125 C-6.46987549 11.11494251 -6.53049488 8.20525089 -6.125 4.3125 C-4.50097045 0.88399318 -3.82430643 0.38243064 0 0 Z " fill="#FEFBFB" transform="translate(170.125,243.6875)"/>
<path d="M0 0 C1.32 0 2.64 0 4 0 C4.33 1.65 4.66 3.3 5 5 C16.22 5 27.44 5 39 5 C39.66 3.35 40.32 1.7 41 0 C41.99 0 42.98 0 44 0 C44 6.6 44 13.2 44 20 C43.01 20 42.02 20 41 20 C40.34 18.35 39.68 16.7 39 15 C27.78 15 16.56 15 5 15 C4.34 16.98 3.68 18.96 3 21 C2.01 20.67 1.02 20.34 0 20 C0 13.4 0 6.8 0 0 Z " fill="#FEFAFB" transform="translate(572,333)"/>
<path d="M0 0 C1.98 0 3.96 0 6 0 C6.00410889 0.82201904 6.00821777 1.64403809 6.01245117 2.4909668 C6.04539243 6.22387042 6.11604104 9.95514334 6.1875 13.6875 C6.19620117 15.62786133 6.19620117 15.62786133 6.20507812 17.60742188 C6.23408203 18.85458984 6.26308594 20.10175781 6.29296875 21.38671875 C6.3086792 22.53358154 6.32438965 23.68044434 6.34057617 24.86206055 C7.18945543 28.90154413 8.85491118 30.41530451 12 33 C15.02648335 33.90738141 16.7496807 33.46433133 20 33 C22.96858157 30.79259319 23.82865791 29.51402627 25 26 C25.14986411 24.0093556 25.24828038 22.01464609 25.31640625 20.01953125 C25.35830078 18.85615234 25.40019531 17.69277344 25.44335938 16.49414062 C25.48267578 15.27919922 25.52199219 14.06425781 25.5625 12.8125 C25.60568359 11.58595703 25.64886719 10.35941406 25.69335938 9.09570312 C25.7995309 6.06391619 25.90157952 3.03204685 26 0 C27.32 0 28.64 0 30 0 C30.05843491 4.02077152 30.0937424 8.04143259 30.125 12.0625 C30.14175781 13.19623047 30.15851563 14.32996094 30.17578125 15.49804688 C30.25566261 29.19770049 30.25566261 29.19770049 26.59765625 33.7421875 C21.48905198 37.51189548 17.33597063 38.81172577 11 38 C6.98623524 36.68588485 3.94864303 35.28619699 1.40820312 31.84179688 C-0.30729233 28.37987469 -0.34387349 26.01976059 -0.29296875 22.16796875 C-0.28330078 20.87568359 -0.27363281 19.58339844 -0.26367188 18.25195312 C-0.23860985 16.8971293 -0.21321506 15.54231159 -0.1875 14.1875 C-0.17244013 12.81316555 -0.15875401 11.43881532 -0.14648438 10.06445312 C-0.11116628 6.70923368 -0.06183851 3.35481834 0 0 Z " fill="#231815" transform="translate(455,859)"/>
<path d="M0 0 C0.33 0 0.66 0 1 0 C1.97569401 8.00688577 0.66443327 12.90924891 -4.00390625 19.484375 C-9.01945668 25.80534266 -13.62653121 31.02509082 -22.04296875 32.3125 C-25.77007485 32.53626622 -27.82738531 32.10788418 -31 30.125 C-33 28 -33 28 -33 26 C-32.21238281 25.62230469 -31.42476562 25.24460937 -30.61328125 24.85546875 C-19.07671944 19.02575053 -9.35454453 11.47009337 -1.171875 1.36328125 C-0.78515625 0.91339844 -0.3984375 0.46351563 0 0 Z " fill="#093A82" transform="translate(264,410)"/>
<path d="M0 0 C2.45243461 1.90063682 3.62927427 3.25854855 5 6 C5.08400529 7.59447464 5.10727467 9.19240545 5.09765625 10.7890625 C5.09443359 11.73007812 5.09121094 12.67109375 5.08789062 13.640625 C5.07951172 14.62546875 5.07113281 15.6103125 5.0625 16.625 C5.05798828 17.61757813 5.05347656 18.61015625 5.04882812 19.6328125 C5.03702145 22.0886016 5.020554 24.54427104 5 27 C3.35 27 1.7 27 0 27 C0 26.34 0 25.68 0 25 C-0.845625 25.495 -1.69125 25.99 -2.5625 26.5 C-6.44294451 28.19328488 -8.80900264 28.45719971 -13 28 C-15.31279611 26.84360194 -17.17409828 25.82590172 -19 24 C-19.43357083 20.94642256 -19.46028789 18.0507453 -19 15 C-15.60498018 10.86231959 -11.11203217 9.80390828 -6 9 C-3 8.875 -3 8.875 -1 9 C-1.33 7.35 -1.66 5.7 -2 4 C-7.4883621 3.72093074 -10.3888663 3.74508209 -15 7 C-15.66 7 -16.32 7 -17 7 C-17.33 5.68 -17.66 4.36 -18 3 C-11.86882877 -0.91713718 -7.10190547 -1.72325647 0 0 Z M-13.1875 15.8125 C-14.22977124 18.04473462 -14.22977124 18.04473462 -13.5 20.6875 C-12.19648348 23.1577048 -12.19648348 23.1577048 -9.75 24 C-6.17117949 24 -4.04984628 22.80218189 -1 21 C0.20561184 20.01732141 0.20561184 20.01732141 0.09765625 18.15234375 C0.08605469 17.42144531 0.07445312 16.69054687 0.0625 15.9375 C0.041875 14.638125 0.02125 13.33875 0 12 C-4.67906752 12 -9.55413757 12.8019997 -13.1875 15.8125 Z " fill="#231815" transform="translate(401,869)"/>
<path d="M0 0 C0.33 0 0.66 0 1 0 C1.8788536 6.99420989 1.66921145 11.9495464 -2.5 17.8125 C-13.35545882 31.13160905 -13.35545882 31.13160905 -21.18359375 32.3359375 C-25.30536857 32.40737207 -27.45819651 32.33171642 -31.0625 30.125 C-33 28 -33 28 -33 26 C-32.28457031 25.69449219 -31.56914062 25.38898438 -30.83203125 25.07421875 C-18.97823903 19.63036851 -9.72203247 11.57621962 -1.390625 1.58203125 C-0.93171875 1.05996094 -0.4728125 0.53789062 0 0 Z " fill="#063882" transform="translate(504,410)"/>
<path d="M0 0 C1.65 0 3.3 0 5 0 C5.33 4.29 5.66 8.58 6 13 C7.65 12.34 9.3 11.68 11 11 C15.10427271 10.77071102 18.16562878 11.35817598 21.4375 13.875 C23.83399911 17.13423879 24.12265183 19.74366276 24.09765625 23.66796875 C24.09443359 24.56064453 24.09121094 25.45332031 24.08789062 26.37304688 C24.07951172 27.30181641 24.07113281 28.23058594 24.0625 29.1875 C24.05798828 30.12787109 24.05347656 31.06824219 24.04882812 32.03710938 C24.03704626 34.35813712 24.02059558 36.67903644 24 39 C22.35 39 20.7 39 19 39 C18.93941406 37.92621094 18.87882812 36.85242188 18.81640625 35.74609375 C18.73192349 34.30988685 18.64727946 32.87368942 18.5625 31.4375 C18.52318359 30.73302734 18.48386719 30.02855469 18.44335938 29.30273438 C18.17481721 24.8201459 17.69383803 20.43706503 17 16 C15.741875 15.9175 14.48375 15.835 13.1875 15.75 C12.47980469 15.70359375 11.77210938 15.6571875 11.04296875 15.609375 C8.9047664 15.84998962 8.9047664 15.84998962 7.28125 17.40625 C5.30925273 21.39834203 5.42618841 25.35188262 5.3125 29.75 C5.27833984 30.63816406 5.24417969 31.52632812 5.20898438 32.44140625 C5.12671286 34.62747803 5.05749828 36.81315951 5 39 C3.35 39 1.7 39 0 39 C0 26.13 0 13.26 0 0 Z " fill="#231815" transform="translate(141,857)"/>
<path d="M0 0 C0.639375 0.639375 1.27875 1.27875 1.9375 1.9375 C2.40027344 2.39511719 2.86304688 2.85273438 3.33984375 3.32421875 C4.54019218 4.53586458 5.71715486 5.77082965 6.87890625 7.01953125 C14.4456843 14.97649307 23.06509204 21.26341719 33 26 C32.6875 27.875 32.6875 27.875 32 30 C27.70846809 32.86102127 24.03355453 32.83267445 19 32 C11.23674884 28.29449173 3.73710162 19.63371368 0 12 C-0.29296875 8.88671875 -0.29296875 8.88671875 -0.1875 5.6875 C-0.16042969 4.61886719 -0.13335938 3.55023438 -0.10546875 2.44921875 C-0.07066406 1.64097656 -0.03585937 0.83273437 0 0 Z " fill="#053882" transform="translate(517,410)"/>
<path d="M0 0 C2.43809487 2.41667049 4.85163794 4.83969466 7.18359375 7.359375 C14.59949098 15.22511002 23.21168 21.37104079 33 26 C31.63016497 29.16115776 31.0109362 29.9927092 28 32 C23.01629812 33.04077308 18.85808817 32.34956136 14.5 29.75 C8.52052308 25.37066479 3.31326457 18.62652915 0 12 C-0.07065617 9.95944995 -0.08421976 7.91665743 -0.0625 5.875 C-0.05347656 4.77929688 -0.04445313 3.68359375 -0.03515625 2.5546875 C-0.02355469 1.71164062 -0.01195312 0.86859375 0 0 Z " fill="#063882" transform="translate(277,410)"/>
<path d="M0 0 C2.5625 2.9375 2.5625 2.9375 3.5625 10.9375 C-3.0375 10.9375 -9.6375 10.9375 -16.4375 10.9375 C-15.23419283 17.14018524 -15.23419283 17.14018524 -11.4375 20.9375 C-6.27734748 21.51085028 -3.72622174 20.67751667 0.5625 17.9375 C1.5525 18.2675 2.5425 18.5975 3.5625 18.9375 C2.52384782 22.28426814 1.51637047 22.96282602 -1.625 24.6875 C-6.53982853 26.54330662 -10.64652324 26.56960945 -15.625 24.8125 C-19.13723473 22.47101018 -20.62516463 20.77128636 -22.4375 16.9375 C-23.29771938 10.99328741 -22.89540724 6.00086418 -19.4375 0.9375 C-13.92737268 -4.21713524 -6.13047494 -4.38735195 0 0 Z M-15.4375 3.9375 C-15.7675 5.2575 -16.0975 6.5775 -16.4375 7.9375 C-11.8175 7.9375 -7.1975 7.9375 -2.4375 7.9375 C-3.97792748 3.13445965 -3.97792748 3.13445965 -6.4375 0.9375 C-10.45628868 0.40871202 -12.56742161 1.06742161 -15.4375 3.9375 Z " fill="#231815" transform="translate(599.4375,871.0625)"/>
<path d="M0 0 C2.5625 2.9375 2.5625 2.9375 3.5625 10.9375 C-3.0375 10.9375 -9.6375 10.9375 -16.4375 10.9375 C-15.23419283 17.14018524 -15.23419283 17.14018524 -11.4375 20.9375 C-6.11926108 21.53956478 -3.0774218 20.41931864 1.5625 17.9375 C2.2225 18.2675 2.8825 18.5975 3.5625 18.9375 C2.52384782 22.28426814 1.51637047 22.96282602 -1.625 24.6875 C-6.53982853 26.54330662 -10.64652324 26.56960945 -15.625 24.8125 C-19.13723473 22.47101018 -20.62516463 20.77128636 -22.4375 16.9375 C-23.29771938 10.99328741 -22.89540724 6.00086418 -19.4375 0.9375 C-13.92737268 -4.21713524 -6.13047494 -4.38735195 0 0 Z M-16.4375 5.9375 C-16.4375 6.5975 -16.4375 7.2575 -16.4375 7.9375 C-11.8175 7.9375 -7.1975 7.9375 -2.4375 7.9375 C-3.97792748 3.13445965 -3.97792748 3.13445965 -6.4375 0.9375 C-11.43672929 -0.00830014 -13.33966911 2.22010293 -16.4375 5.9375 Z " fill="#231815" transform="translate(283.4375,871.0625)"/>
<path d="M0 0 C0.33 0 0.66 0 1 0 C1.76133518 6.3565445 1.62321877 10.89540176 -2.125 16.25 C-3.39371439 17.8517837 -4.68453416 19.43638341 -6 21 C-6.50144531 21.67289062 -7.00289063 22.34578125 -7.51953125 23.0390625 C-11.84867645 28.64429183 -16.64846413 31.54555446 -23.6875 32.5 C-27.58481433 31.91172614 -29.27569008 30.80686476 -32 28 C-32 27.34 -32 26.68 -32 26 C-31.33355469 25.67128906 -30.66710937 25.34257812 -29.98046875 25.00390625 C-18.74732011 19.20665891 -10.12388255 11.54780817 -1.8984375 2.08984375 C-0.95871094 1.05537109 -0.95871094 1.05537109 0 0 Z " fill="#093B82" transform="translate(265,362)"/>
<path d="M0 0 C0.33 0 0.66 0 1 0 C2.19748242 8.44890377 0.30109369 13.43258029 -4.70703125 20.2578125 C-10.03482952 26.62938726 -15.02067948 31.46650137 -23.5 32.375 C-27.58666386 31.93714316 -29.16694489 30.91890526 -32 28 C-32 27.34 -32 26.68 -32 26 C-31.21238281 25.63390625 -30.42476563 25.2678125 -29.61328125 24.890625 C-17.56737109 18.90330871 -8.48758435 10.37371421 0 0 Z " fill="#073982" transform="translate(505,362)"/>
<path d="M0 0 C2.51141476 2.48903138 4.99163452 4.99102242 7.40234375 7.578125 C14.5515333 15.11286407 22.97003628 22.65667876 33 26 C31.63016497 29.16115776 31.0109362 29.9927092 28 32 C22.23191587 32.68434897 18.78910407 32.00059791 14.015625 28.68359375 C10.21044632 25.50523714 7.0546254 21.89261997 4 18 C3.54109375 17.4225 3.0821875 16.845 2.609375 16.25 C-0.86108766 11.1665054 -0.38233439 5.87308108 0 0 Z " fill="#073982" transform="translate(516,362)"/>
<path d="M0 0 C4.15153107 3.42952567 7.92651377 6.95895576 11.625 10.875 C17.57411522 16.91549947 24.88605492 22.29535164 33 25 C32.06896676 27.32758311 31.34617872 28.74357132 29.3125 30.25 C24.54808957 31.79521419 21.05512947 31.47103994 16.5 29.4375 C9.23235893 24.7712517 3.30062632 18.00904667 0 10 C-0.44166062 6.59223964 -0.39165908 3.40888457 0 0 Z " fill="#073981" transform="translate(276,363)"/>
<path d="M0 0 C0.33 0 0.66 0 1 0 C2.03581802 6.50263532 1.05606027 10.65856301 -2.5625 16.1875 C-7.33723863 22.7390814 -12.14965727 29.16051433 -20 32 C-24.11820868 32.6005721 -25.69446378 32.16974234 -29.375 30.125 C-30.24125 29.42375 -31.1075 28.7225 -32 28 C-32 27.34 -32 26.68 -32 26 C-31.21238281 25.63390625 -30.42476562 25.2678125 -29.61328125 24.890625 C-17.56737109 18.90330871 -8.48758435 10.37371421 0 0 Z " fill="#0C3C81" transform="translate(266,317)"/>
<path d="M0 0 C2.59830786 2.57477246 5.15325586 5.16339779 7.65625 7.83203125 C14.96208765 15.54944733 22.44735681 21.2236784 32 26 C30.63016497 29.16115776 30.0109362 29.9927092 27 32 C21.90104375 32.58361547 17.66674794 31.20729331 13.5 28.3125 C7.27540607 22.97713377 0.91284429 15.07769638 -0.5625 6.87109375 C-0.5625 4.50261149 -0.433965 2.32519517 0 0 Z " fill="#0A3A80" transform="translate(515,317)"/>
<path d="M0 0 C0.33 0 0.66 0 1 0 C2.03479832 7.57209562 0.42365768 12.16822763 -3.93359375 18.3828125 C-9.1264874 24.95982336 -14.37126205 31.19589458 -23.0625 32.4375 C-26.70336298 31.89524381 -28.35405729 30.49029902 -31 28 C-30 25 -30 25 -27.91796875 23.78125 C-26.56638672 23.14703125 -26.56638672 23.14703125 -25.1875 22.5 C-15.59854587 17.48730876 -8.04205859 9.66176943 -1.20703125 1.36328125 C-0.80871094 0.91339844 -0.41039062 0.46351563 0 0 Z " fill="#093A81" transform="translate(506,317)"/>
<path d="M0 0 C2.99452434 2.24589325 3.81623122 3.44869367 5 7 C5.08106686 8.55421729 5.10756898 10.11167027 5.09765625 11.66796875 C5.09443359 12.56064453 5.09121094 13.45332031 5.08789062 14.37304688 C5.07951172 15.30181641 5.07113281 16.23058594 5.0625 17.1875 C5.05798828 18.12787109 5.05347656 19.06824219 5.04882812 20.03710938 C5.03704626 22.35813712 5.02059558 24.67903644 5 27 C3.02 27 1.04 27 -1 27 C-1.01981934 26.37432129 -1.03963867 25.74864258 -1.06005859 25.10400391 C-1.15514226 22.27723481 -1.26488746 19.45122185 -1.375 16.625 C-1.4059375 15.64015625 -1.436875 14.6553125 -1.46875 13.640625 C-1.50742187 12.69960938 -1.54609375 11.75859375 -1.5859375 10.7890625 C-1.63306885 9.48509521 -1.63306885 9.48509521 -1.68115234 8.15478516 C-1.81229433 5.79038206 -1.81229433 5.79038206 -4 4 C-6.95769177 3.49989476 -6.95769177 3.49989476 -10 4 C-12.11741714 5.81636257 -12.90006379 7.35978598 -13.3293457 10.10986328 C-13.52007796 12.65857734 -13.62145658 15.19506295 -13.6875 17.75 C-13.72166016 18.63816406 -13.75582031 19.52632812 -13.79101562 20.44140625 C-13.87328714 22.62747803 -13.94250172 24.81315951 -14 27 C-15.65 27 -17.3 27 -19 27 C-19 18.09 -19 9.18 -19 0 C-16.66666667 0 -14.33333333 0 -12 0 C-7.83523216 -1.38825595 -4.24785872 -1.00627395 0 0 Z " fill="#231815" transform="translate(515,869)"/>
<path d="M0 0 C1.08839774 0.88967344 2.17044608 1.78711574 3.25 2.6875 C4.15492188 3.43580078 4.15492188 3.43580078 5.078125 4.19921875 C7 6 7 6 8.94921875 8.4609375 C15.01729319 15.97379157 23.48801724 20.72782614 32 25 C30.21875 28.84375 30.21875 28.84375 28.25 30.25 C24.39800616 31.53399795 21.66194363 31.78317937 17.89453125 30.0078125 C10.22266393 25.33338732 2.93152816 17.61136396 0 9 C-0.21461326 5.98044136 -0.1812121 3.02020169 0 0 Z " fill="#083A81" transform="translate(275,318)"/>
<path d="M0 0 C2.31 0 4.62 0 7 0 C9.64 6.27 12.28 12.54 15 19 C17.64 12.73 20.28 6.46 23 0 C24.65 0 26.3 0 28 0 C15.22498887 32.57188666 15.22498887 32.57188666 11 37 C8.73828125 37.609375 8.73828125 37.609375 6.3125 37.75 C5.50425781 37.80671875 4.69601562 37.8634375 3.86328125 37.921875 C2.94095703 37.96054687 2.94095703 37.96054687 2 38 C2 36.68 2 35.36 2 34 C3.11375 33.731875 4.2275 33.46375 5.375 33.1875 C9.21840951 32.34190981 9.21840951 32.34190981 11 29 C10.62356321 25.19842386 9.25678974 21.9856791 7.71484375 18.515625 C7.26689453 17.49855469 6.81894531 16.48148438 6.35742188 15.43359375 C5.88884766 14.38300781 5.42027344 13.33242188 4.9375 12.25 C4.00760488 10.15171007 3.07913713 8.05278678 2.15234375 5.953125 C1.73976318 5.02661133 1.32718262 4.10009766 0.90209961 3.14550781 C0 1 0 1 0 0 Z " fill="#231815" transform="translate(706,869)"/>
<path d="M0 0 C0.33 0 0.66 0 1 0 C1.98909132 8.61922439 -0.91878709 13.18725814 -6 20 C-6.75216797 21.04607422 -6.75216797 21.04607422 -7.51953125 22.11328125 C-11.86758262 27.70705533 -16.74909446 30.51236417 -23.75 31.5625 C-27.89816471 30.84454842 -28.59214295 29.30295174 -31 26 C-30.17757813 25.52691406 -29.35515625 25.05382812 -28.5078125 24.56640625 C-17.93930259 18.30584553 -9.48143155 11.05158442 -1.49609375 1.65234375 C-1.00238281 1.10707031 -0.50867188 0.56179688 0 0 Z " fill="#0A3B81" transform="translate(507,275)"/>
<path d="M0 0 C2.60637429 2.53190645 4.9810612 4.97619499 7.25 7.828125 C10.07978799 11.24747411 13.30811087 13.92181788 16.8125 16.625 C17.42689941 17.10428955 18.04129883 17.5835791 18.67431641 18.07739258 C22.90800133 21.3187553 27.06530007 23.92742603 32 26 C29.18352258 29.52059677 27.69018662 30.87554012 23.1875 31.6875 C16.5970023 31.2406866 12.05582371 26.33236585 7.8125 21.6875 C2.13806707 14.61389182 -0.72901072 9.18553503 0 0 Z " fill="#093A80" transform="translate(274,275)"/>
<path d="M0 0 C2.59830786 2.57477246 5.15325586 5.16339779 7.65625 7.83203125 C13.71884986 14.23510706 19.70911897 19.11525467 27.3828125 23.4765625 C30 25 30 25 32 27 C29.23781366 29.67848373 27.52081411 30.91155987 23.6875 31.5625 C16.69876697 30.49642208 11.76655487 26.47460658 7.453125 21.01171875 C6.97359375 20.34785156 6.4940625 19.68398438 6 19 C5.43796875 18.22269531 4.8759375 17.44539063 4.296875 16.64453125 C0.4201158 10.8022189 -0.67612235 6.9865976 0 0 Z " fill="#083A81" transform="translate(514,275)"/>
<path d="M0 0 C1.14662109 0.11794922 1.14662109 0.11794922 2.31640625 0.23828125 C4.4375 0.6875 4.4375 0.6875 7.4375 2.6875 C7.1075 4.0075 6.7775 5.3275 6.4375 6.6875 C5.4165625 6.1925 5.4165625 6.1925 4.375 5.6875 C0.92909762 4.51442685 -1.94647422 4.54569507 -5.5625 4.6875 C-5.5625 6.0075 -5.5625 7.3275 -5.5625 8.6875 C-4.71945312 9.02523437 -3.87640625 9.36296875 -3.0078125 9.7109375 C-1.91210938 10.15695312 -0.81640625 10.60296875 0.3125 11.0625 C1.40304687 11.50335937 2.49359375 11.94421875 3.6171875 12.3984375 C6.4375 13.6875 6.4375 13.6875 8.4375 15.6875 C8.93308111 18.72437496 8.9005276 21.64713805 8.4375 24.6875 C5.57798767 27.84282395 2.45305686 28.60784848 -1.75 28.9375 C-6.28076454 28.64040069 -9.3947201 27.44235469 -13.5625 25.6875 C-13.2325 24.3675 -12.9025 23.0475 -12.5625 21.6875 C-10.39375748 22.19353992 -8.56282373 22.68733813 -6.5625 23.6875 C-5.18907169 23.7564472 -3.81247898 23.77217708 -2.4375 23.75 C-1.15875 23.729375 0.12 23.70875 1.4375 23.6875 C1.7675 22.3675 2.0975 21.0475 2.4375 19.6875 C1.84582031 19.43355469 1.25414062 19.17960938 0.64453125 18.91796875 C-10.97855839 13.85538321 -10.97855839 13.85538321 -12.5625 10.6875 C-12.95806513 7.04830082 -13.05704972 5.34101213 -10.8125 2.375 C-7.25233368 -0.29512474 -4.35046251 -0.49319964 0 0 Z " fill="#231815" transform="translate(647.5625,868.3125)"/>
<path d="M0 0 C0.33 0 0.66 0 1 0 C2.11811339 9.74355951 -2.32842919 15.17009424 -8.04296875 22.6875 C-11.09353204 26.29215763 -14.53647119 28.51215706 -19 30 C-25.2601626 30.45528455 -25.2601626 30.45528455 -28.4375 28.5 C-28.953125 28.005 -29.46875 27.51 -30 27 C-29 24 -29 24 -26.953125 22.81640625 C-26.06109375 22.40261719 -25.1690625 21.98882812 -24.25 21.5625 C-19.2108486 18.93766787 -15.24657514 15.84842302 -11.125 12 C-10.59036133 11.50185791 -10.05572266 11.00371582 -9.50488281 10.49047852 C-6.88895623 7.99044223 -4.47250563 5.42568968 -2.1796875 2.625 C-1.46039063 1.75875 -0.74109375 0.8925 0 0 Z " fill="#083981" transform="translate(266,276)"/>
<path d="M0 0 C2.59705474 2.56887693 5.13908419 5.15027725 7.62109375 7.83203125 C14.63861765 15.32768311 21.84184114 20.39382542 31 25 C29.25 28.875 29.25 28.875 27 30 C22.57666112 30.36861157 20.01526373 30.48648054 16 28.5625 C9.28242727 22.82457329 0.88218518 14.87417026 -0.30078125 5.65625 C-0.3125 3.4375 -0.3125 3.4375 0 0 Z " fill="#093A81" transform="translate(273,236)"/>
<path d="M0 0 C3.19290902 2.32211565 5.77472019 4.81489311 8.3125 7.8125 C14.93565401 15.48966132 21.93834638 20.45251574 31 25 C29.25 28.875 29.25 28.875 27 30 C22.01272836 30.60191209 19.09080544 30.49329253 14.9375 27.5625 C8.48864443 22.17789564 0.77191492 13.65618439 -0.23828125 4.9453125 C-0.25 3 -0.25 3 0 0 Z " fill="#093A82" transform="translate(513,236)"/>
<path d="M0 0 C0.474375 0.474375 0.94875 0.94875 1.4375 1.4375 C0.7775 2.7575 0.1175 4.0775 -0.5625 5.4375 C-4.4375 3.5625 -4.4375 3.5625 -5.5625 2.4375 C-8.8957893 2.14120762 -10.93162652 2.07943667 -13.875 3.75 C-16.38872445 6.26372445 -16.5534292 8.31504421 -16.8125 11.8125 C-16.54739341 15.65654558 -15.87659877 17.41137084 -13.5625 20.4375 C-10.50556678 21.96596661 -7.93265453 21.66992445 -4.5625 21.4375 C-2.3552642 19.94949628 -2.3552642 19.94949628 -0.5625 18.4375 C0.4275 18.7675 1.4175 19.0975 2.4375 19.4375 C1.39758872 22.45324271 0.46835171 23.41741051 -2.25 25.1875 C-7.45573161 27.15192702 -11.05739447 26.93920184 -16.3125 25.1875 C-20.62551802 22.86510568 -22.03605896 21.01682313 -23.5625 16.4375 C-23.9309431 10.81874276 -23.75440228 7.28038621 -20.5625 2.4375 C-14.71785401 -3.10742055 -7.07766556 -4.31564973 0 0 Z " fill="#231815" transform="translate(372.5625,870.5625)"/>
<path d="M0 0 C0.33 0 0.66 0 1 0 C1.95435323 8.58917906 -1.68895607 13.62231105 -6.74609375 20.30859375 C-10.48792759 24.85046333 -13.94090663 28.4577547 -20.046875 29.2734375 C-23.15792964 29.42104228 -25.39047707 29.41904702 -28 27.625 C-29 26 -29 26 -29 24 C-27.28665677 22.95801999 -25.5259654 21.9937434 -23.75 21.0625 C-15.37518258 16.32502932 -8.32622344 10.12475438 -2.21484375 2.66015625 C-1.48394531 1.78230469 -0.75304687 0.90445313 0 0 Z " fill="#083981" transform="translate(507,237)"/>
<path d="M0 0 C0.7528125 0.07863281 1.505625 0.15726563 2.28125 0.23828125 C4.62887164 0.71359197 6.41514781 1.52661639 8.5 2.6875 C8.1875 4.625 8.1875 4.625 7.5 6.6875 C6.51 7.0175 5.52 7.3475 4.5 7.6875 C4.5 7.0275 4.5 6.3675 4.5 5.6875 C1.48760403 5.0953196 -1.42449467 4.63977664 -4.5 4.6875 C-7.05151968 6.53735177 -8.10976715 7.9070343 -9.5 10.6875 C-9.87677003 15.67970285 -9.57396361 18.66770143 -6.5 22.6875 C-3.44306678 24.21596661 -0.87015453 23.91992445 2.5 23.6875 C4.7072358 22.19949628 4.7072358 22.19949628 6.5 20.6875 C7.49 21.0175 8.48 21.3475 9.5 21.6875 C8.46008872 24.70324271 7.53085171 25.66741051 4.8125 27.4375 C-0.51641313 29.44841062 -4.57045772 29.32973554 -9.75 27.0625 C-13.58707424 24.93574955 -15.18207061 22.97077051 -16.5 18.6875 C-17.25555801 13.29065705 -16.55226622 9.31852462 -13.5 4.6875 C-9.15048128 0.56103352 -5.90201346 -0.67711456 0 0 Z " fill="#231815" transform="translate(122.5,868.3125)"/>
<path d="M0 0 C0.33 0 0.66 0 1 0 C2.03290785 9.12401935 -2.37418073 15.94961111 -7.9375 22.9375 C-11.9543034 27.27773432 -16.16514342 30.17003378 -22.25 30.4375 C-26 30 -26 30 -28 28.625 C-29 27 -29 27 -29 25 C-27.26717014 23.93550417 -25.48545192 22.95037865 -23.6875 22 C-14.54148644 16.80610092 -6.97127271 10.09671673 -1.0234375 1.3984375 C-0.68570312 0.93695313 -0.34796875 0.47546875 0 0 Z " fill="#063882" transform="translate(267,236)"/>
<path d="M0 0 C1.98 0 3.96 0 6 0 C6 2.97 6 5.94 6 9 C8.31 9 10.62 9 13 9 C13 9.99 13 10.98 13 12 C10.69 12 8.38 12 6 12 C6.33 18.6 6.66 25.2 7 32 C8.98 32.33 10.96 32.66 13 33 C12.67 34.32 12.34 35.64 12 37 C7.90866173 37.40111159 5.71999611 37.49654904 2.28125 35.125 C-0.9746281 30.66489302 -0.55907212 27.05518533 -0.3125 21.6875 C-0.27866211 20.29047852 -0.27866211 20.29047852 -0.24414062 18.86523438 C-0.18542078 16.5751604 -0.10336858 14.28842125 0 12 C-1.98 12 -3.96 12 -6 12 C-6 11.01 -6 10.02 -6 9 C-4.02 9 -2.04 9 0 9 C0 6.03 0 3.06 0 0 Z " fill="#231815" transform="translate(687,860)"/>
<path d="M0 0 C3.89864034 1.69258044 7.06607958 4.25988548 10.375 6.875 C14.47957353 10.10687215 18.61729584 13.15322841 23 16 C22.40716379 19.39192363 21.23256811 21.2107757 18.9375 23.75 C18.38964844 24.36359375 17.84179688 24.9771875 17.27734375 25.609375 C16.85582031 26.06828125 16.43429687 26.5271875 16 27 C11.42536651 22.56885132 7.36390588 17.79368333 3.28515625 12.90820312 C2.77597656 12.30556641 2.26679688 11.70292969 1.7421875 11.08203125 C1.05938721 10.26569214 1.05938721 10.26569214 0.36279297 9.43286133 C-1.13991583 7.74738362 -1.13991583 7.74738362 -4 6 C-2.84826645 3.53199953 -1.95216435 1.95216435 0 0 Z " fill="#231815" transform="translate(451,741)"/>
<path d="M0 0 C1.98 0 3.96 0 6 0 C6.0744013 4.32328804 6.12871968 8.64623255 6.16479492 12.9699707 C6.17984066 14.43943782 6.20028238 15.90886034 6.22631836 17.37817383 C6.26288955 19.4957177 6.27976801 21.61266565 6.29296875 23.73046875 C6.3086792 25.00301514 6.32438965 26.27556152 6.34057617 27.58666992 C5.97573582 31.24318096 5.18099868 33.08341208 3 36 C-0.42094119 38.56570589 -3.84773484 38.43708054 -8 38 C-10.9375 36 -10.9375 36 -13 34 C-12.67 32.68 -12.34 31.36 -12 30 C-11.34 30 -10.68 30 -10 30 C-9.566875 30.515625 -9.13375 31.03125 -8.6875 31.5625 C-8.130625 32.036875 -7.57375 32.51125 -7 33 C-3.68181015 32.75794651 -3.68181015 32.75794651 -1 31 C-0.84111908 28.71011219 -0.74861927 26.41556559 -0.68359375 24.12109375 C-0.66281265 23.4344313 -0.64203156 22.74776886 -0.62062073 22.04029846 C-0.55505857 19.83947065 -0.49620985 17.63852025 -0.4375 15.4375 C-0.39432108 13.94855486 -0.350707 12.45962227 -0.30664062 10.97070312 C-0.1993707 7.31393447 -0.09812228 3.65702682 0 0 Z " fill="#231815" transform="translate(72,859)"/>
<path d="M0 0 C1.98 0 3.96 0 6 0 C6.79311367 1.72850345 7.5844259 3.45783354 8.375 5.1875 C8.81585937 6.15042969 9.25671875 7.11335937 9.7109375 8.10546875 C13 15.49090909 13 15.49090909 13 19 C13.66 19 14.32 19 15 19 C15.17015625 18.46632813 15.3403125 17.93265625 15.515625 17.3828125 C17.43463324 11.4828829 19.64054239 5.73695531 22 0 C23.65 0 25.3 0 27 0 C25.73063207 3.18808548 24.45923816 6.37535935 23.1875 9.5625 C22.83107422 10.45775391 22.47464844 11.35300781 22.10742188 12.27539062 C20.13582889 17.21341709 18.12032161 22.12392917 16 27 C14.02 27 12.04 27 10 27 C8.32776718 22.87723451 6.66315937 18.75143325 5 14.625 C4.28457031 12.8615625 4.28457031 12.8615625 3.5546875 11.0625 C3.10351562 9.94101562 2.65234375 8.81953125 2.1875 7.6640625 C1.76855469 6.62717285 1.34960938 5.5902832 0.91796875 4.52197266 C0 2 0 2 0 0 Z " fill="#231815" transform="translate(545,869)"/>
<path d="M0 0 C3.87024476 1.68558105 7.02190758 4.21933656 10.3125 6.8125 C11.46804359 7.71314665 12.62428805 8.61289484 13.78125 9.51171875 C14.33425781 9.94145996 14.88726562 10.37120117 15.45703125 10.81396484 C18.24780414 12.95915071 21.11364862 14.98626648 24 17 C23.06862408 18.29608947 22.1296434 19.58671632 21.1875 20.875 C20.66542969 21.59429688 20.14335937 22.31359375 19.60546875 23.0546875 C18 25 18 25 15 27 C14.5875 26.45472656 14.175 25.90945313 13.75 25.34765625 C6.31644085 15.21824269 6.31644085 15.21824269 -3 7 C-2.25 2.25 -2.25 2.25 0 0 Z " fill="#231815" transform="translate(449,768)"/>
<path d="M0 0 C3.52055917 0.59084404 6.43361222 1.5155542 9.64453125 3.06640625 C10.48564453 3.46923828 11.32675781 3.87207031 12.19335938 4.28710938 C13.05767578 4.70798828 13.92199219 5.12886719 14.8125 5.5625 C15.69615234 5.98724609 16.57980469 6.41199219 17.49023438 6.84960938 C19.66264337 7.89471424 21.83239957 8.94496762 24 10 C24 14.13978192 23.67617664 14.98573504 21.5 18.25 C21.0359375 18.95640625 20.571875 19.6628125 20.09375 20.390625 C19.7328125 20.92171875 19.371875 21.4528125 19 22 C17.68 21.34 16.36 20.68 15 20 C15 19.34 15 18.68 15 18 C14.45472656 17.75121094 13.90945312 17.50242187 13.34765625 17.24609375 C10.51623451 15.74322597 8.02559222 13.95339187 5.4375 12.0625 C4.48746094 11.37285156 3.53742188 10.68320312 2.55859375 9.97265625 C0.52701009 8.40632075 -1.2576472 6.87141597 -3 5 C-2.01 3.35 -1.02 1.7 0 0 Z " fill="#231815" transform="translate(164,763)"/>
<path d="M0 0 C3.8460547 0.7018348 6.90459336 2.44235617 10.3125 4.3125 C11.4571875 4.93898438 12.601875 5.56546875 13.78125 6.2109375 C17.20426706 8.11353679 20.6144189 10.0316389 24 12 C22.25731793 15.96064107 19.85325271 19.74436549 17 23 C16.34 23 15.68 23 15 23 C13.5546875 21.49609375 13.5546875 21.49609375 11.875 19.4375 C7.47900837 14.25979438 2.656354 9.77090266 -3 6 C-2 4 -1 2 0 0 Z " fill="#231815" transform="translate(171,734)"/>
<path d="M0 0 C1.98 0 3.96 0 6 0 C6 11.88 6 23.76 6 36 C7.32 36 8.64 36 10 36 C10 37.32 10 38.64 10 40 C6.61751682 40.30749847 4.66924466 40.46046192 1.82128906 38.50097656 C-0.7168686 35.01560296 -0.5021448 31.87649251 -0.390625 27.734375 C-0.38496521 26.94097717 -0.37930542 26.14757935 -0.37347412 25.33013916 C-0.35113147 22.80280527 -0.30094176 20.27690335 -0.25 17.75 C-0.22993214 16.03387468 -0.21168187 14.31772708 -0.1953125 12.6015625 C-0.15127395 8.4004922 -0.08226326 4.20048865 0 0 Z " fill="#231815" transform="translate(417,857)"/>
<path d="M0 0 C1.24546405 2.49092811 0.7767578 3.41080733 0 6 C-1.093125 6.0825 -2.18625 6.165 -3.3125 6.25 C-6.9 6.65833333 -6.9 6.65833333 -8.6875 8.5 C-10.61527174 12.17194617 -10.56872338 15.65729702 -10.6875 19.75 C-10.72166016 20.54277344 -10.75582031 21.33554687 -10.79101562 22.15234375 C-10.87319104 24.10107504 -10.93828045 26.05051362 -11 28 C-12.65 28 -14.3 28 -16 28 C-16 19.09 -16 10.18 -16 1 C-14.35 1 -12.7 1 -11 1 C-10.67 1.66 -10.34 2.32 -10 3 C-9.278125 2.505 -8.55625 2.01 -7.8125 1.5 C-4.85151341 -0.07919285 -3.28746971 -0.28178312 0 0 Z " fill="#231815" transform="translate(629,868)"/>
<path d="M0 0 C1.94140625 0.4453125 1.94140625 0.4453125 4.44140625 2.5078125 C5.94140625 5.4453125 5.94140625 5.4453125 5.94140625 12.4453125 C0.99140625 12.4453125 -3.95859375 12.4453125 -9.05859375 12.4453125 C-9.41414931 5.33420139 -9.41414931 5.33420139 -8.05859375 1.9453125 C-5.46128108 -0.002672 -3.20413749 -0.17702417 0 0 Z " fill="#D93849" transform="translate(586.05859375,410.5546875)"/>
<path d="M0 0 C1.65 0 3.3 0 5 0 C5 8.91 5 17.82 5 27 C3.35 27 1.7 27 0 27 C0 18.09 0 9.18 0 0 Z " fill="#231815" transform="translate(667,869)"/>
<path d="M0 0 C1.65 0 3.3 0 5 0 C5 8.91 5 17.82 5 27 C3.35 27 1.7 27 0 27 C0 18.09 0 9.18 0 0 Z " fill="#231815" transform="translate(532,869)"/>
<path d="M0 0 C1.65 0 3.3 0 5 0 C5 8.91 5 17.82 5 27 C3.35 27 1.7 27 0 27 C0 18.09 0 9.18 0 0 Z " fill="#231815" transform="translate(334,869)"/>
<path d="M0 0 C1.65 0 3.3 0 5 0 C5 8.91 5 17.82 5 27 C3.35 27 1.7 27 0 27 C0 18.09 0 9.18 0 0 Z " fill="#231815" transform="translate(177,869)"/>
<path d="M0 0 C1.65 0 3.3 0 5 0 C5 8.91 5 17.82 5 27 C3.35 27 1.7 27 0 27 C0 18.09 0 9.18 0 0 Z " fill="#231815" transform="translate(91,869)"/>
<path d="M0 0 C0 4.62 0 9.24 0 14 C-3.73069283 13.25386143 -6.57404607 12.46826597 -10 11 C-8.59698853 7.81326038 -6.92234929 5.67778594 -4.4375 3.25 C-3.81746094 2.63640625 -3.19742187 2.0228125 -2.55859375 1.390625 C-1 0 -1 0 0 0 Z " fill="#DB4353" transform="translate(361,614)"/>
<path d="M0 0 C0.625 2.375 0.625 2.375 1 5 C0.34 5.66 -0.32 6.32 -1 7 C-3.625 6.625 -3.625 6.625 -6 6 C-6 4.02 -6 2.04 -6 0 C-3.50907189 -1.24546405 -2.58919267 -0.7767578 0 0 Z " fill="#231815" transform="translate(537,859)"/>
<path d="M0 0 C3.69230769 0.69230769 3.69230769 0.69230769 5 2 C5.04063832 3.66617115 5.042721 5.33388095 5 7 C2.625 7.625 2.625 7.625 0 8 C-0.66 7.34 -1.32 6.68 -2 6 C-1.44444444 1.44444444 -1.44444444 1.44444444 0 0 Z " fill="#231815" transform="translate(668,858)"/>
<path d="M0 0 C2.125 0.375 2.125 0.375 4 1 C4.625 3.375 4.625 3.375 5 6 C4.34 6.66 3.68 7.32 3 8 C0.875 7.625 0.875 7.625 -1 7 C-1.625 4.625 -1.625 4.625 -2 2 C-1.34 1.34 -0.68 0.68 0 0 Z " fill="#231815" transform="translate(335,858)"/>
<path d="M0 0 C2.125 0.375 2.125 0.375 4 1 C4.625 3.375 4.625 3.375 5 6 C4.34 6.66 3.68 7.32 3 8 C0.875 7.625 0.875 7.625 -1 7 C-1.625 4.625 -1.625 4.625 -2 2 C-1.34 1.34 -0.68 0.68 0 0 Z " fill="#231815" transform="translate(178,858)"/>
<path d="M0 0 C2.125 0.375 2.125 0.375 4 1 C4.625 3.375 4.625 3.375 5 6 C4.34 6.66 3.68 7.32 3 8 C0.875 7.625 0.875 7.625 -1 7 C-1.625 4.625 -1.625 4.625 -2 2 C-1.34 1.34 -0.68 0.68 0 0 Z " fill="#231815" transform="translate(92,858)"/>
</svg>
