<svg version="1.1" id="Layer_1" xmlns="http://www.w3.org/2000/svg" xmlns:xlink="http://www.w3.org/1999/xlink" x="0px" y="0px"
	 width="100%" viewBox="0 0 657 571" enable-background="new 0 0 657 571" xml:space="preserve">
<path fill="#FDFCFC" opacity="1.000000" stroke="none" 
	d="
M389.000000,572.000000 
	C259.333344,572.000000 130.166718,572.000000 1.000052,572.000000 
	C1.000035,381.666718 1.000035,191.333450 1.000017,1.000129 
	C219.999893,1.000086 438.999786,1.000086 657.999756,1.000043 
	C657.999878,191.333206 657.999878,381.666412 657.999939,571.999817 
	C568.500000,572.000000 479.000000,572.000000 389.000000,572.000000 
M609.035828,408.519073 
	C615.419739,396.661377 621.694275,384.742706 628.248474,372.979889 
	C630.465332,369.001465 629.410767,366.663422 626.255920,363.723145 
	C597.021606,336.477081 564.095459,315.128571 526.421265,301.592712 
	C474.064117,282.781464 420.921204,277.341736 366.700531,293.446686 
	C365.064667,293.932587 362.923096,292.715942 361.017303,292.293060 
	C361.881409,290.519592 362.281311,288.156036 363.676880,287.058197 
	C409.182648,251.261063 460.638885,232.283798 518.830139,232.223312 
	C559.860291,232.180679 599.120728,240.521439 636.898743,256.301636 
	C638.905273,257.139771 641.042480,257.665070 643.308350,258.397217 
	C643.540161,257.117157 643.761047,256.625793 643.691162,256.180023 
	C636.122925,207.900238 614.242249,166.791611 580.985474,131.438309 
	C579.766235,130.142181 577.591980,129.079086 575.844604,129.051254 
	C562.890198,128.844955 549.823120,127.852493 536.995361,129.139297 
	C507.888947,132.059113 480.190155,140.082687 455.151001,155.834900 
	C412.955994,182.379959 381.630371,219.004837 357.064941,261.851135 
	C353.674011,267.765442 350.909180,274.040283 347.477478,279.928528 
	C346.605774,281.424194 344.286530,282.076233 342.632385,283.115875 
	C341.836517,281.316895 340.704681,279.581360 340.349213,277.699219 
	C340.055725,276.145203 340.733917,274.422852 340.890411,272.766479 
	C343.935944,240.534775 349.624451,208.832336 359.850952,178.039429 
	C376.779846,127.065018 404.941437,84.352951 450.716949,54.619938 
	C451.809723,53.910130 453.080505,53.474342 454.634796,52.736828 
	C433.519684,38.667023 351.199036,28.663565 295.404877,33.217117 
	C267.127655,35.524918 239.492935,41.496964 211.449112,51.619659 
	C214.089554,53.551025 215.556976,54.546730 216.939941,55.648438 
	C226.829605,63.526943 237.331589,70.764450 246.464890,79.441475 
	C276.804840,108.265709 295.706818,144.070190 308.046356,183.631683 
	C317.150940,212.821625 322.466919,242.754028 325.119781,273.173737 
	C325.409485,276.495483 328.273407,281.321106 323.450470,282.839752 
	C318.153656,284.507690 317.944458,278.566437 316.409790,275.556854 
	C295.539825,234.628723 268.074066,199.004074 231.891235,170.458466 
	C190.470673,137.780670 143.204514,124.523575 90.833801,128.998917 
	C88.621414,129.187973 86.009392,130.478699 84.486359,132.102829 
	C54.220749,164.377319 33.436268,201.747208 24.292852,245.269058 
	C23.426348,249.393555 22.949663,253.599945 22.279869,257.845215 
	C23.472052,257.999756 24.012800,258.234802 24.426664,258.094788 
	C26.155802,257.509827 27.863789,256.852844 29.549376,256.149994 
	C79.494202,235.323441 131.200485,227.799072 184.994415,235.079376 
	C229.348511,241.082138 267.688202,260.442902 302.714264,287.312286 
	C303.997192,288.296448 304.307037,290.549103 305.070404,292.210602 
	C303.183655,292.669617 301.036896,293.961212 299.448425,293.465118 
	C265.017090,282.712280 229.953522,281.716339 194.666489,287.249023 
	C134.638855,296.660828 82.924904,323.107574 38.801807,364.727448 
	C36.305031,367.082581 36.001949,368.892700 37.352741,371.986237 
	C59.939224,423.712646 97.114296,462.392517 144.413651,492.054291 
	C145.445953,492.701599 146.710632,492.978394 147.691895,493.359985 
	C148.264099,492.742249 148.622559,492.533478 148.688812,492.255096 
	C149.150375,490.315826 149.564285,488.364807 149.969833,486.412628 
	C160.026672,438.001068 180.900925,395.471771 218.317184,362.186066 
	C248.042435,335.742279 282.852783,320.479889 322.641388,318.258698 
	C374.235138,315.378448 418.430237,333.201294 455.206146,369.123535 
	C484.693054,397.925964 502.833832,433.307587 513.008301,472.978821 
	C514.728027,479.684296 516.151123,486.465881 517.955322,494.267578 
	C554.778992,472.034790 585.228271,444.367889 609.035828,408.519073 
M326.926666,524.697510 
	C327.695770,531.966858 328.265564,539.267151 329.385406,546.482056 
	C329.639923,548.122009 331.799805,549.466187 333.082703,550.946533 
	C334.331665,549.427856 335.687469,547.980408 336.773804,546.353149 
	C337.174164,545.753418 336.900787,544.724731 336.999420,543.899475 
	C338.221375,533.675903 339.491608,523.457886 340.678192,513.230225 
	C342.822113,494.750458 344.899750,476.263062 347.038879,457.782776 
	C349.139709,439.633179 351.286224,421.488861 353.406067,403.341461 
	C355.737793,383.380280 358.011780,363.412079 360.444733,343.463226 
	C360.800354,340.547241 359.576538,339.982697 357.154419,339.986877 
	C341.002228,340.014893 324.849915,340.020233 308.697723,339.985260 
	C306.046539,339.979523 305.333069,340.977570 305.653595,343.667755 
	C307.972748,363.131317 310.085449,382.619354 312.354065,402.089142 
	C315.198822,426.503845 318.119812,450.909729 321.027405,475.317078 
	C322.952698,491.478668 324.912231,507.636200 326.926666,524.697510 
z"/>
<path fill="#C9A82B" opacity="1.000000" stroke="none" 
	d="
M608.840820,408.822449 
	C585.228271,444.367889 554.778992,472.034790 517.955322,494.267578 
	C516.151123,486.465881 514.728027,479.684296 513.008301,472.978821 
	C502.833832,433.307587 484.693054,397.925964 455.206146,369.123535 
	C418.430237,333.201294 374.235138,315.378448 322.641388,318.258698 
	C282.852783,320.479889 248.042435,335.742279 218.317184,362.186066 
	C180.900925,395.471771 160.026672,438.001068 149.969833,486.412628 
	C149.564285,488.364807 149.150375,490.315826 148.688812,492.255096 
	C148.622559,492.533478 148.264099,492.742249 147.691895,493.359985 
	C146.710632,492.978394 145.445953,492.701599 144.413651,492.054291 
	C97.114296,462.392517 59.939224,423.712646 37.352741,371.986237 
	C36.001949,368.892700 36.305031,367.082581 38.801807,364.727448 
	C82.924904,323.107574 134.638855,296.660828 194.666489,287.249023 
	C229.953522,281.716339 265.017090,282.712280 299.448425,293.465118 
	C301.036896,293.961212 303.183655,292.669617 305.070374,292.210602 
	C304.307037,290.549103 303.997192,288.296448 302.714264,287.312286 
	C267.688202,260.442902 229.348511,241.082138 184.994415,235.079376 
	C131.200485,227.799072 79.494202,235.323441 29.549376,256.149994 
	C27.863789,256.852844 26.155802,257.509827 24.426664,258.094788 
	C24.012800,258.234802 23.472052,257.999756 22.279869,257.845215 
	C22.949663,253.599945 23.426348,249.393555 24.292852,245.269058 
	C33.436268,201.747208 54.220749,164.377319 84.486359,132.102829 
	C86.009392,130.478699 88.621414,129.187973 90.833801,128.998917 
	C143.204514,124.523575 190.470673,137.780670 231.891235,170.458466 
	C268.074066,199.004074 295.539825,234.628723 316.409790,275.556854 
	C317.944458,278.566437 318.153656,284.507690 323.450470,282.839752 
	C328.273407,281.321106 325.409485,276.495483 325.119781,273.173737 
	C322.466919,242.754028 317.150940,212.821625 308.046356,183.631683 
	C295.706818,144.070190 276.804840,108.265709 246.464890,79.441475 
	C237.331589,70.764450 226.829605,63.526943 216.939941,55.648438 
	C215.556976,54.546730 214.089554,53.551025 211.449112,51.619659 
	C239.492935,41.496964 267.127655,35.524918 295.404877,33.217117 
	C351.199036,28.663565 433.519684,38.667023 454.634796,52.736828 
	C453.080505,53.474342 451.809723,53.910130 450.716949,54.619938 
	C404.941437,84.352951 376.779846,127.065018 359.850952,178.039429 
	C349.624451,208.832336 343.935944,240.534775 340.890411,272.766479 
	C340.733917,274.422852 340.055725,276.145203 340.349213,277.699219 
	C340.704681,279.581360 341.836517,281.316895 342.632385,283.115875 
	C344.286530,282.076233 346.605774,281.424194 347.477478,279.928528 
	C350.909180,274.040283 353.674011,267.765442 357.064941,261.851135 
	C381.630371,219.004837 412.955994,182.379959 455.151001,155.834900 
	C480.190155,140.082687 507.888947,132.059113 536.995361,129.139297 
	C549.823120,127.852493 562.890198,128.844955 575.844604,129.051254 
	C577.591980,129.079086 579.766235,130.142181 580.985474,131.438309 
	C614.242249,166.791611 636.122925,207.900238 643.691162,256.180023 
	C643.761047,256.625793 643.540161,257.117157 643.308350,258.397217 
	C641.042480,257.665070 638.905273,257.139771 636.898743,256.301636 
	C599.120728,240.521439 559.860291,232.180679 518.830139,232.223312 
	C460.638885,232.283798 409.182648,251.261063 363.676880,287.058197 
	C362.281311,288.156036 361.881409,290.519592 361.017303,292.293060 
	C362.923096,292.715942 365.064667,293.932587 366.700531,293.446686 
	C420.921204,277.341736 474.064117,282.781464 526.421265,301.592712 
	C564.095459,315.128571 597.021606,336.477081 626.255920,363.723145 
	C629.410767,366.663422 630.465332,369.001465 628.248474,372.979889 
	C621.694275,384.742706 615.419739,396.661377 608.840820,408.822449 
z"/>
<path fill="#9C9F9D" opacity="1.000000" stroke="none" 
	d="
M326.891541,524.246521 
	C324.912231,507.636200 322.952698,491.478668 321.027405,475.317078 
	C318.119812,450.909729 315.198822,426.503845 312.354065,402.089142 
	C310.085449,382.619354 307.972748,363.131317 305.653595,343.667755 
	C305.333069,340.977570 306.046539,339.979523 308.697723,339.985260 
	C324.849915,340.020233 341.002228,340.014893 357.154419,339.986877 
	C359.576538,339.982697 360.800354,340.547241 360.444733,343.463226 
	C358.011780,363.412079 355.737793,383.380280 353.406067,403.341461 
	C351.286224,421.488861 349.139709,439.633179 347.038879,457.782776 
	C344.899750,476.263062 342.822113,494.750458 340.678192,513.230225 
	C339.491608,523.457886 338.221375,533.675903 336.999420,543.899475 
	C336.900787,544.724731 337.174164,545.753418 336.773804,546.353149 
	C335.687469,547.980408 334.331665,549.427856 333.082703,550.946533 
	C331.799805,549.466187 329.639923,548.122009 329.385406,546.482056 
	C328.265564,539.267151 327.695770,531.966858 326.891541,524.246521 
z"/>
</svg>